<?xml version="1.0" standalone="no"?>
<!DOCTYPE svg PUBLIC "-//W3C//DTD SVG 1.1//EN" "http://www.w3.org/Graphics/SVG/1.1/DTD/svg11.dtd" >
<svg>
<metadata>
Created by FontForge 20110222 at Mon Mar  7 04:12:28 2011
 By www-data
Generated by the Artful Bodger [c] 1996          
</metadata>
<defs>
<font id="CygnetRound" horiz-adv-x="487" >
  <font-face 
    font-family="CygnetRound"
    font-weight="400"
    font-stretch="normal"
    units-per-em="1000"
    panose-1="2 0 5 3 0 0 0 0 0 0"
    ascent="800"
    descent="-200"
    x-height="368"
    cap-height="760"
    bbox="-271 -335 1527 983"
    underline-thickness="45"
    underline-position="-199"
    unicode-range="U+0020-2030"
  />
    <missing-glyph />
    <glyph glyph-name="space" unicode=" " horiz-adv-x="304" 
 />
    <glyph glyph-name="exclam" unicode="!" horiz-adv-x="528" 
d="M742 530c-8 -38 -9 -39 -37 -73c-70 -85 -135 -173 -194 -265c-32 -54 -41 -64 -57 -64l-5 6l2 5c1 11 4 16 34 65c11 25 26 55 47 93c54 93 55 95 90 181c30 78 44 97 77 99c6 -5 13 -7 22 -7c10 -14 17 -27 21 -40zM436 34c-10 -34 -11 -35 -47 -46
c-37 7 -41 12 -41 23c-6 5 -8 11 -8 18l2 5c0 18 8 31 23 41c8 0 16 2 24 7c6 -5 14 -7 23 -7c5 -8 11 -14 18 -17z" />
    <glyph glyph-name="quotedbl" unicode="&#x22;" horiz-adv-x="548" 
d="M898 731c-3 -4 -3 -6 -3 -15c-163 -226 -164 -227 -171 -227l-1 4c0 -1 -1 -2 -3 -2c-1 0 -1 0 -1 1c0 5 1 9 4 15l109 213c13 25 20 33 39 38c5 -5 11 -7 18 -7c2 -9 5 -16 9 -20zM736 731c0 -8 -6 -20 -18 -36l-142 -195c-1 -3 -6 -7 -14 -11l-5 11
c35 67 72 141 112 220c11 21 24 33 39 38c4 -5 11 -7 19 -7c2 -9 5 -16 9 -20z" />
    <glyph glyph-name="numbersign" unicode="#" horiz-adv-x="548" 
d="M874 602l-24 -38h-124l-80 -126h123l-24 -37h-123l-77 -121h-48l77 121h-135l-77 -121h-48l77 121h-118l24 37h117l81 126h-118l24 38h118l82 130h49l-83 -130h135l83 130h48l-83 -130h124zM679 564h-135l-81 -126h135z" />
    <glyph glyph-name="dollar" unicode="$" horiz-adv-x="528" 
d="M759 459c-16 -64 -32 -83 -73 -87c-14 4 -19 6 -19 11l2 7c11 28 12 31 19 71c-4 12 -6 24 -7 38c-16 16 -27 27 -30 28l-137 -212l20 -22c7 -19 18 -37 33 -55c8 -29 12 -47 12 -55c0 -102 -105 -195 -221 -195l-41 1l-11 3l-25 -41c-5 -2 -8 -7 -11 -14c-2 1 -3 2 -4 2
c-2 0 -4 -2 -6 -5l-15 6l2 5c0 11 1 14 7 18l24 36c-54 29 -99 64 -99 126c0 73 28 109 105 121c7 -2 13 -3 19 -4c1 -2 3 -4 6 -5l-2 -4h3c-2 -2 -4 -6 -7 -11c-33 -18 -53 -55 -53 -110c0 -31 17 -57 51 -77c50 80 102 160 155 240c-40 62 -48 81 -48 135
c0 56 34 105 103 147c17 3 33 7 46 13c14 1 30 3 49 7c9 0 23 -2 40 -6c30 51 37 59 52 65c0 -2 0 -2 9 -3l4 -8c-8 -14 -20 -34 -37 -61l14 -4c14 -12 30 -24 47 -35c12 -24 20 -46 24 -66zM626 540c-28 3 -29 4 -30 5c-11 -3 -30 -6 -54 -10c-35 -7 -63 -62 -63 -120
c0 -26 7 -50 20 -73l-2 -2zM508 153c0 16 -6 41 -18 73c-7 6 -13 14 -17 24c-1 -1 -50 -75 -146 -226c11 -5 21 -7 30 -7c98 0 131 27 151 136z" />
    <glyph glyph-name="percent" unicode="%" horiz-adv-x="813" 
d="M955 231c0 -86 -75 -184 -168 -224c-10 -4 -38 -11 -83 -19c-55 14 -64 18 -80 48c-9 16 -13 31 -13 46l2 2c0 79 47 148 132 198c5 3 29 13 73 31c18 0 34 2 49 7c18 -6 35 -11 51 -15c13 -17 23 -31 31 -40c4 -20 6 -31 6 -34zM852 554c-1 -9 -9 -23 -24 -40l-465 -546
c-6 -1 -10 -4 -12 -11l-4 -2l-4 2c-2 4 -3 7 -3 8l376 483c-31 -6 -49 -8 -53 -8c-24 0 -47 9 -68 27c-13 -118 -135 -224 -259 -224c-34 0 -84 31 -84 105c0 80 73 160 131 191c6 3 30 14 73 31c18 0 34 2 49 7l42 -11c14 -15 26 -29 36 -42c10 -41 39 -61 87 -61
c42 0 70 19 121 79c18 20 31 32 41 35l6 -2c1 -5 4 -8 10 -9zM899 256c-4 8 -5 10 -5 22c-8 2 -13 7 -15 15l-18 4c-89 -15 -192 -150 -192 -237l-2 -2c0 -32 15 -48 46 -48c72 0 180 142 186 246zM539 513l-6 22c-7 4 -12 9 -14 15c-6 1 -12 2 -19 4
c-82 -13 -191 -144 -191 -237l-3 -6c0 -26 18 -44 44 -44c44 0 114 61 152 131c6 14 15 34 26 61c1 17 5 35 11 54z" />
    <glyph glyph-name="ampersand" unicode="&#x26;" horiz-adv-x="914" 
d="M1128 138c0 -5 -4 -11 -13 -22c-74 -89 -143 -124 -250 -124c-67 0 -118 15 -178 49c-61 -40 -97 -53 -142 -53c-87 0 -155 62 -155 138c0 86 54 159 153 206c19 123 64 225 197 244l34 -8c7 -10 15 -18 25 -25c2 -11 5 -20 9 -30c-5 -67 -89 -138 -193 -170
c-1 -5 -1 -10 -1 -15c29 -119 62 -183 111 -223c17 16 45 51 85 104c76 100 103 119 172 130c12 -4 25 -6 38 -9c3 -6 9 -12 18 -19l8 -34l-10 -36l-9 -9l-7 1l-1 4c-4 2 -7 5 -8 8c-13 6 -23 14 -31 25c-9 1 -16 2 -23 4c-57 -8 -58 -9 -214 -184c61 -50 100 -68 170 -68
c57 0 138 46 197 123l7 3l8 -4c-1 -1 -1 -3 -1 -5zM752 517c-4 8 -5 10 -5 22c-6 1 -10 5 -11 11c-3 -1 -5 -2 -6 -2c-4 0 -6 2 -7 5c-8 -5 -17 -7 -26 -7c-57 -45 -77 -78 -85 -178c53 24 95 57 127 99zM666 60c-32 23 -83 93 -108 163c-3 18 -9 45 -16 80
c-33 -18 -83 -88 -83 -140c0 -81 50 -145 104 -145c38 0 72 14 103 42z" />
    <glyph glyph-name="quotesingle" unicode="'" horiz-adv-x="426" 
d="M736 731c0 -8 -6 -20 -18 -36l-142 -195c-1 -3 -6 -7 -14 -11l-5 11c35 67 72 141 112 220c11 21 24 33 39 38c4 -5 11 -7 19 -7c2 -9 5 -16 9 -20z" />
    <glyph glyph-name="parenleft" unicode="(" horiz-adv-x="386" 
d="M909 751c-1 -6 -37 -31 -107 -73c-315 -198 -569 -632 -569 -969c-1 -3 -1 -3 -2 -10l-4 -5l-5 -3l-6 2c-6 15 -8 33 -8 53l2 2c0 316 125 596 360 811c92 84 251 179 330 199l6 -2c-1 -1 -1 -1 -1 -3z" />
    <glyph glyph-name="parenright" unicode=")" horiz-adv-x="386" 
d="M678 701c-16 -364 -116 -578 -379 -829c-63 -59 -260 -173 -309 -181l-7 2v2l-4 -1c3 14 23 28 107 77c311 212 518 539 562 883c2 68 6 93 13 101l6 3l5 -2c-2 0 -3 0 -3 -3l3 -3c1 0 2 0 3 1l-2 -4l3 -4v-44z" />
    <glyph glyph-name="comma" unicode="," horiz-adv-x="304" 
d="M359 23l-9 -40l-38 -52c-90 -59 -100 -64 -137 -65c-5 2 -10 2 -11 2l1 4c-2 1 -3 2 -3 4c2 1 5 3 13 5c51 18 75 29 96 46l37 46c0 7 1 11 6 15c-2 3 -4 5 -8 5c-1 0 -3 -1 -5 -2c-25 10 -37 23 -37 37s5 28 15 42l30 12c8 -4 18 -8 30 -11c4 -6 9 -13 14 -19
c2 -12 4 -22 6 -29z" />
    <glyph glyph-name="hyphen" unicode="-" 
d="M670 265l-27 -54h-251l27 54h251z" />
    <glyph glyph-name="period" unicode="." horiz-adv-x="304" 
d="M363 34c-9 -29 -9 -30 -23 -40l-24 -6c-43 13 -49 26 -49 45l2 2c0 16 8 30 24 40c7 0 15 2 23 7c7 -5 15 -7 24 -7c3 -8 9 -14 17 -17z" />
    <glyph glyph-name="zero" unicode="0" horiz-adv-x="528" 
d="M726 448c0 -136 -101 -302 -234 -391c-76 -49 -89 -56 -110 -59l-64 -10c-65 0 -119 65 -119 141l2 2c0 149 100 293 281 408c28 18 72 31 131 38c14 -4 29 -7 43 -9c8 -7 20 -16 36 -27l28 -48c-1 -7 -1 -8 6 -45zM655 430c-1 3 -2 15 -4 36c-8 13 -15 25 -19 37
c-10 4 -19 10 -28 19c-11 0 -21 2 -30 7c-102 -18 -173 -72 -241 -188c-41 -71 -62 -139 -62 -203c-2 -2 -2 -5 -3 -12c0 -29 26 -76 51 -82c6 -7 14 -11 24 -11c144 0 312 212 312 397z" />
    <glyph glyph-name="one" unicode="1" horiz-adv-x="406" 
d="M648 567c-3 -8 -10 -19 -18 -33l-335 -523l-97 -11l289 444c-122 -58 -145 -66 -179 -72l-5 -3l-3 2l-6 -1l-3 4c-3 0 -5 2 -5 4l2 9c3 2 5 4 7 8c127 42 178 72 344 182l1 -4l5 1c-1 -1 -2 -2 -2 -4c1 -1 1 -2 5 -3z" />
    <glyph glyph-name="two" unicode="2" horiz-adv-x="548" 
d="M715 431c-5 -14 -7 -29 -7 -48c-36 -99 -118 -155 -370 -250c-22 -10 -42 -20 -58 -31l2 2c9 -2 24 -4 43 -6c136 -63 137 -63 161 -63c38 0 65 24 113 103c16 27 28 41 36 45l5 -2c-1 -1 -1 -2 -1 -5l4 -2c-8 -44 -99 -148 -152 -171c-3 -1 -55 -15 -58 -15
c-35 0 -44 4 -168 61c-8 1 -21 3 -37 6c-51 -9 -62 -15 -94 -51c-4 -1 -6 -3 -7 -6h-5l-2 -3c-4 1 -8 3 -14 6c4 25 55 69 119 104c321 151 419 207 419 323c0 10 -5 32 -16 64c-16 16 -28 28 -37 36c-34 11 -56 17 -65 17c-75 0 -129 -54 -129 -128c0 -32 23 -65 46 -65
c19 0 37 10 52 30l4 2v-2l3 1l4 -4c0 -37 -43 -75 -78 -75c-53 0 -88 34 -88 87c0 84 72 151 155 175c9 3 31 6 67 11c17 -4 37 -8 62 -11l46 -26c11 -18 22 -34 33 -47c5 -18 8 -39 12 -62z" />
    <glyph glyph-name="three" unicode="3" horiz-adv-x="548" 
d="M764 465c-15 -62 -16 -63 -47 -98c-37 -40 -85 -64 -143 -71l2 2c3 -7 9 -11 17 -13c14 -17 26 -34 36 -50l10 -50c-7 -38 -14 -63 -21 -74c-47 -79 -134 -123 -246 -123c-124 0 -203 60 -203 154c0 51 43 98 108 105c11 -5 19 -5 29 -5l22 -12c1 -5 5 -8 10 -10v-4
c0 -2 2 -4 4 -6l-4 -5l1 -4c-5 -2 -10 -5 -12 -7l-2 4c-2 -2 -5 -2 -7 -2c-3 0 -6 1 -8 3c-48 -3 -72 -33 -72 -89c0 -14 21 -52 35 -66c17 -15 67 -27 109 -27c17 0 49 9 93 27c60 39 83 75 93 141c-2 8 -6 22 -12 42c-10 8 -20 19 -32 33c-13 5 -23 10 -29 14h-75l-7 4
l-3 12c3 9 5 11 8 14c1 -1 2 -2 4 -2c11 0 130 12 163 30c69 37 72 40 98 76l10 44c-3 10 -7 26 -12 47c-7 7 -18 19 -31 34c-24 8 -40 12 -46 12c-50 0 -95 -41 -95 -87c0 -20 30 -46 53 -46c1 -1 3 -1 4 -1c6 1 11 4 15 7l1 -2l-2 -3l4 -1l-3 -3l2 -2
c-21 -42 -47 -59 -67 -59c-46 0 -75 26 -75 76c0 82 91 153 188 153c2 0 23 -5 64 -14c12 -13 26 -22 41 -27c16 -21 26 -45 30 -71z" />
    <glyph glyph-name="four" unicode="4" horiz-adv-x="548" 
d="M781 560l-210 -334l96 2c2 -2 4 -3 7 -3c2 1 2 1 7 2c-2 0 -3 -1 -3 -2s3 -1 8 -1l-1 -5l4 -1l-11 -15c-12 -6 -22 -9 -30 -9h-96l-119 -183l-90 -11l124 194l-223 2c-5 -3 -10 -4 -14 -4c-6 0 -11 2 -16 5c-1 -1 -2 -2 -3 -2l-9 12c3 7 21 25 55 54l464 397
c20 2 31 2 34 2c4 0 4 -1 7 -3l-2 -2h3l-11 -14l-494 -415h228l206 323z" />
    <glyph glyph-name="five" unicode="5" horiz-adv-x="548" 
d="M806 569c-3 -4 -6 -10 -9 -16c-59 -44 -88 -55 -140 -55c-4 -2 -8 -2 -13 -2s-41 13 -48 18c-11 -3 -47 -40 -162 -169c12 0 28 1 61 3c18 0 46 -7 82 -19c15 -12 31 -27 46 -45c6 -23 11 -42 14 -58c-15 -88 -23 -105 -75 -156c-63 -62 -89 -66 -203 -82
c-73 0 -120 25 -159 85c-12 19 -18 36 -18 52c0 56 27 104 63 112l44 10c11 -5 19 -5 30 -5c6 -6 14 -10 22 -11c2 -4 4 -6 7 -8l2 -7c-4 -1 -6 -2 -6 -4c0 -1 1 -3 3 -4c-9 -8 -11 -8 -17 -8c-49 -13 -55 -16 -67 -43c-7 -15 -10 -28 -10 -41c0 -11 5 -27 14 -47
c16 -35 54 -52 113 -52c53 0 124 46 155 101c13 22 23 57 32 106l-8 40c-10 11 -17 21 -23 31c-19 10 -40 18 -63 22c-13 -5 -27 -7 -43 -7c-26 -14 -65 -32 -77 -32l-2 4c-4 0 -6 1 -6 4c0 9 6 20 17 31l238 243l20 17c44 -29 51 -34 70 -34c34 0 46 5 109 34l6 -4l-2 -4h3
z" />
    <glyph glyph-name="six" unicode="6" horiz-adv-x="548" 
d="M981 663c-13 -47 -16 -51 -29 -51c-1 -1 -2 -2 -3 -2c-5 0 -8 1 -8 4c0 1 1 2 2 3c-4 1 -6 4 -6 7v5l-15 34l-40 29c-16 2 -34 5 -55 9c-180 -16 -288 -96 -437 -325c15 16 94 65 110 68c7 2 21 4 38 6c25 -6 43 -10 55 -14c8 -8 20 -21 38 -37c12 -37 17 -61 17 -71
c0 -109 -98 -247 -218 -314c-14 -8 -45 -16 -93 -26c-61 13 -80 24 -99 73c-10 24 -15 51 -15 78c0 273 350 610 635 610c13 0 40 -6 82 -17l30 -30c3 -16 7 -29 11 -39zM578 321c-4 17 -9 34 -14 50c-10 5 -18 12 -23 23c-9 1 -19 5 -30 9c-84 -14 -141 -60 -184 -153
c-26 -56 -36 -92 -33 -126l-2 -2c0 -51 30 -88 57 -88c86 0 187 109 216 209c3 18 7 43 13 78z" />
    <glyph glyph-name="seven" unicode="7" horiz-adv-x="447" 
d="M735 551c-5 -9 -15 -23 -28 -41l-508 -634l-121 -12l560 618c-47 -12 -48 -12 -70 -12c-43 0 -44 0 -123 36c-10 2 -24 5 -42 9c-46 -7 -48 -10 -101 -93c-3 -1 -5 -4 -9 -8c-1 2 -4 4 -10 6l-4 10c0 6 11 22 34 47c10 11 21 30 34 55c13 26 24 44 33 55l2 -1
c1 2 4 3 7 5c3 -2 6 -3 9 -4c0 -4 1 -7 2 -9l-9 -35c10 5 34 11 72 19c37 -6 50 -11 103 -33c22 -8 42 -12 61 -12c29 0 59 14 92 42l7 2l-2 -2c0 -1 1 -2 3 -2l4 1v-5z" />
    <glyph glyph-name="eight" unicode="8" horiz-adv-x="548" 
d="M795 508c-5 -13 -7 -29 -7 -48c-27 -68 -53 -98 -107 -125c-29 -15 -53 -23 -71 -25c-5 2 -6 2 -11 2v3c-2 0 -2 0 -2 1c0 10 10 17 66 42c35 24 62 83 62 132c0 5 -5 30 -16 75c-16 23 -32 42 -47 58c-12 3 -28 8 -50 15c-68 -7 -115 -56 -115 -122
c0 -50 12 -107 36 -176c26 -43 26 -46 50 -153c-2 -15 -11 -48 -27 -98c-20 -45 -91 -105 -187 -105c-68 0 -118 28 -152 87c-18 30 -26 55 -26 77c0 132 90 217 248 233c-11 62 -11 63 -11 113c0 53 51 129 100 148c41 16 45 17 100 27c80 -13 85 -15 143 -75
c11 -28 19 -57 24 -86zM512 151c0 48 -29 149 -55 191c-7 3 -19 6 -36 10c-75 -11 -109 -33 -136 -88c-15 -29 -22 -58 -22 -89c0 -86 74 -162 124 -162c76 0 125 63 125 138z" />
    <glyph glyph-name="nine" unicode="9" horiz-adv-x="528" 
d="M682 442c0 -294 -374 -690 -656 -690c-31 0 -72 10 -123 30c-9 3 -25 19 -50 47c-3 11 -8 28 -15 50c5 33 16 61 50 68c6 0 20 -49 20 -58l22 -38c60 -39 82 -51 125 -51c159 0 342 156 474 405l2 2c-55 -62 -111 -93 -167 -93c-60 0 -102 51 -102 123
c0 157 150 323 308 340c12 -2 30 -7 54 -14c42 -37 49 -57 58 -121zM612 441c0 11 -5 32 -16 62c-9 4 -15 10 -19 19c-11 0 -20 2 -27 7c-68 -14 -106 -37 -150 -97c-37 -50 -69 -132 -69 -176c0 -52 14 -84 40 -89c5 -5 10 -7 15 -7c66 0 137 48 178 120
c32 58 32 58 48 161z" />
    <glyph glyph-name="colon" unicode=":" horiz-adv-x="365" 
d="M560 329c-7 -31 -22 -47 -47 -47c-24 0 -41 10 -41 23c-7 7 -8 10 -8 22l2 2c0 24 16 40 47 47l24 -6c6 -8 11 -14 17 -18c1 -5 3 -13 6 -23zM368 34c-4 -8 -7 -16 -7 -23c-8 -13 -11 -14 -40 -23c-34 6 -41 10 -41 23c-8 6 -9 8 -9 21l2 2c-1 2 -1 4 -1 6
c0 13 8 24 25 35c8 0 16 2 24 7c5 -5 13 -7 23 -7c3 -8 9 -14 17 -17c0 -9 3 -18 7 -24z" />
    <glyph glyph-name="semicolon" unicode=";" horiz-adv-x="365" 
d="M573 329c-7 -31 -22 -47 -47 -47s-41 10 -41 23c-7 7 -8 10 -8 22l2 2c0 24 16 40 47 47c9 -3 16 -5 23 -6l18 -18c1 -5 3 -13 6 -23zM384 23c-4 -15 -7 -29 -9 -40l-38 -52c-25 -15 -47 -30 -65 -45c-15 -3 -31 -8 -47 -17c-18 0 -19 0 -25 -3l-4 4l-4 -3l-4 1l2 4
c-2 1 -2 2 -2 4s41 16 62 22c15 11 31 21 46 29l37 46c0 7 1 11 6 15c-2 3 -3 3 -14 3c-24 10 -36 24 -36 44c0 13 5 25 15 35l30 12c10 -6 20 -9 29 -11c2 -8 7 -15 15 -19c2 -12 4 -22 6 -29z" />
    <glyph glyph-name="less" unicode="&#x3c;" horiz-adv-x="304" 
d="M390 321l-81 -126l41 -152h-40l-41 152l81 126h40z" />
    <glyph glyph-name="greater" unicode="&#x3e;" horiz-adv-x="304" 
d="M365 170l-81 -127h-40l81 127l-41 151h40z" />
    <glyph glyph-name="question" unicode="?" horiz-adv-x="609" 
d="M815 446c0 -99 -76 -165 -272 -249c-9 -9 -23 -18 -40 -27c-8 -10 -21 -25 -40 -43l-5 -1c-3 0 -8 8 -8 13l-1 3c9 28 47 59 113 93c126 66 129 71 173 153c1 12 4 30 9 54c-5 13 -7 28 -7 44c-28 43 -31 44 -92 59c-103 -15 -155 -62 -155 -142c0 -51 22 -77 67 -77
c12 0 23 4 77 30l6 -2l-1 -3c0 -2 2 -4 4 -5c-10 -31 -50 -52 -101 -52c-55 0 -99 42 -99 98l2 2c0 98 106 183 220 183c18 0 48 -7 89 -22c16 -14 32 -32 49 -53zM447 34c-10 -34 -10 -35 -47 -46c-34 6 -41 10 -41 23c-7 6 -8 9 -8 21l2 2c0 18 8 31 23 41c9 0 17 2 24 7
c6 -5 13 -7 23 -7c5 -8 11 -14 18 -17z" />
    <glyph glyph-name="at" unicode="@" horiz-adv-x="1097" 
d="M1187 357c0 -180 -150 -355 -292 -355c-65 0 -89 24 -99 71l2 2c-57 -43 -112 -64 -164 -64c-64 0 -126 65 -126 133c0 115 62 233 107 280c11 14 57 61 83 73c10 4 26 10 46 19c12 1 29 4 51 8c14 -3 36 -8 65 -15l46 -39c3 -11 8 -20 16 -28l22 60h99l-145 -353
c-10 -25 -15 -45 -15 -61c0 -10 6 -17 18 -22c3 -3 5 -5 9 -5c99 0 225 152 225 294c0 164 -151 297 -325 297c-32 0 -124 -17 -153 -33l-78 -42c-102 -55 -208 -228 -208 -340c0 -159 49 -202 154 -273c59 -34 152 -56 231 -56c125 0 195 30 317 107l39 -20
c-88 -69 -137 -96 -224 -124c-15 -1 -31 -4 -47 -11c-20 0 -37 -2 -53 -7c-21 0 -30 0 -51 -3c-250 0 -438 155 -438 361c0 269 221 498 490 498c68 0 162 -29 170 -33c46 -23 47 -24 118 -72c12 -21 27 -38 45 -53c11 -17 24 -36 37 -58c19 -60 28 -105 28 -136zM886 408
c-4 14 -7 27 -9 39c-7 5 -15 14 -23 24c-11 2 -23 6 -35 10c-90 -7 -210 -200 -221 -353l-2 -2c0 -33 31 -72 64 -72l20 1c76 0 193 214 206 353z" />
    <glyph glyph-name="A" unicode="A" horiz-adv-x="935" 
d="M1259 261c-35 -71 -237 -273 -336 -273c-60 0 -90 45 -90 136c0 47 16 112 47 194l-136 2c-202 -244 -309 -332 -431 -332c-62 0 -116 36 -116 79c0 3 4 13 12 31c7 4 17 8 30 13c9 -5 20 -10 33 -14c3 -9 6 -18 10 -27c-3 -16 -10 -29 -22 -38l15 -3
c12 -9 34 -13 65 -13c18 0 30 4 88 31c81 38 129 85 377 379c179 209 247 256 429 331v-2c3 0 5 1 8 3l8 -2l2 -4l-27 -32c-146 -136 -321 -439 -321 -646c0 -31 19 -56 43 -56c64 0 143 69 299 246c4 1 6 3 8 4v-4c1 0 2 0 4 1l-2 -4h3zM1136 694
c-106 -56 -200 -142 -376 -353h128c83 153 165 270 248 353z" />
    <glyph glyph-name="B" unicode="B" horiz-adv-x="833" 
d="M1125 754l-3 -4c-60 -17 -81 -26 -117 -50c8 -14 17 -24 26 -31c22 -43 34 -76 34 -99c0 -83 -68 -150 -121 -171c-3 -1 -15 -5 -38 -14c28 -14 57 -38 87 -72c11 -32 16 -54 16 -65c0 -135 -131 -260 -275 -260c-72 0 -131 43 -131 98c0 21 13 43 39 67c9 2 20 6 32 11
l16 -4l7 -9c0 -3 1 -4 3 -5c-22 -48 -26 -59 -26 -74c0 -38 35 -62 76 -62c98 0 188 114 188 225c0 16 -6 39 -18 68c-12 10 -23 22 -35 34l-56 20c-8 1 -17 2 -29 4c-2 -1 -4 -2 -5 -2c-4 0 -6 2 -8 5l-5 12l6 8c6 0 9 1 12 3c125 5 172 101 187 153c1 12 4 28 8 49
c-6 17 -10 33 -11 47c-6 9 -13 20 -20 35c-78 -78 -108 -123 -185 -260c-209 -367 -297 -394 -455 -423c-18 0 -47 6 -86 19c-29 9 -44 32 -44 67c0 33 16 50 48 52c7 -4 18 -9 33 -15l13 -33c-4 -29 -17 -44 -44 -44l2 2c12 -16 51 -28 63 -28c105 0 159 39 244 175
l148 238c83 135 159 226 229 273c-9 0 -15 5 -17 15c-17 8 -33 16 -50 27c-93 17 -94 17 -101 17c-241 0 -477 -191 -477 -418c0 -56 55 -139 117 -139c73 0 106 26 140 84c23 37 29 76 29 101l4 42c-3 11 -4 20 -4 29l1 19c0 3 2 6 4 8l6 2l2 -3l3 2l4 -4l-2 -4l3 -3
c0 -4 0 -7 6 -51c0 -147 -88 -253 -203 -253c-91 0 -165 73 -165 164c0 234 263 447 549 447l89 -10c28 -12 63 -25 105 -40c30 13 71 27 125 42c1 -2 3 -2 5 -2c3 0 5 1 7 3c2 -3 5 -4 7 -4s5 0 5 1l-2 -5z" />
    <glyph glyph-name="C" unicode="C" horiz-adv-x="569" 
d="M980 650c-12 -69 -23 -104 -98 -151c-47 -29 -76 -36 -127 -36c-19 0 -61 24 -75 44c-11 14 -17 35 -17 61c-2 1 -3 3 -3 6c0 4 1 5 10 20l6 3l2 -3l3 2v-3h2l-2 -3l3 -1l1 -4c0 -59 22 -89 65 -89c88 0 162 73 174 171c-2 7 -6 18 -9 33c-9 7 -21 16 -39 29
c-16 2 -28 4 -37 6c-208 -16 -432 -216 -522 -474c-8 -24 -12 -45 -12 -65c0 -124 42 -178 140 -178c105 0 198 69 239 189c3 15 7 35 11 64c-4 14 -7 27 -9 39c-7 6 -16 17 -28 30c-10 1 -22 4 -35 9c-69 -12 -77 -18 -156 -119v2l-3 -1c0 47 52 114 102 134
c4 1 27 6 70 15c12 -2 30 -5 53 -10c19 -14 35 -28 48 -41c6 -20 11 -37 14 -52c-17 -120 -56 -180 -157 -243c-36 -23 -68 -35 -94 -38l-72 -8c-110 -2 -195 78 -195 183l2 2c13 324 417 585 617 585c4 0 26 -5 65 -14c19 -13 36 -27 49 -42c6 -20 11 -37 14 -52z" />
    <glyph glyph-name="D" unicode="D" horiz-adv-x="792" 
d="M1114 787l-3 -2l2 -2c-11 -9 -12 -9 -20 -9c-96 -44 -116 -53 -158 -87c10 -18 23 -35 39 -49c13 -26 25 -54 38 -84c2 -22 7 -54 13 -96c-8 -100 -9 -103 -38 -170c-80 -182 -266 -300 -471 -300c-46 0 -114 8 -142 16c-29 -3 -51 -7 -68 -13c-28 0 -31 -1 -36 -3
c-14 4 -20 5 -42 5c-43 17 -43 17 -43 24l-2 3c0 3 1 7 4 14c5 1 8 3 10 7l41 8c20 -5 41 -7 65 -7c14 -6 34 -12 58 -17c128 62 133 64 364 476c51 80 57 87 156 188c-8 1 -16 6 -22 15c-71 36 -72 36 -173 49c-181 0 -433 -130 -433 -410c0 -79 70 -147 117 -147
c98 0 178 74 209 189l14 91c0 8 1 20 4 34c3 5 4 5 10 7c5 -2 6 -2 10 -6c-3 -23 -9 -96 -11 -119c-48 -152 -127 -226 -239 -226c-100 0 -169 72 -169 177c0 173 131 338 320 402c36 12 91 22 165 31c113 -11 117 -13 223 -69c4 4 50 45 189 86c1 -2 2 -2 4 -2s4 1 5 3
l-1 -3h10l-2 -4h3zM954 506c-4 23 -8 52 -11 89c-24 53 -25 54 -36 65c-43 -53 -50 -65 -210 -349c-104 -169 -162 -225 -290 -292c36 -7 60 -11 72 -11c236 0 418 156 460 386c4 26 8 44 12 54c0 39 0 43 3 58z" />
    <glyph glyph-name="E" unicode="E" horiz-adv-x="609" 
d="M892 639c-13 -100 -76 -145 -201 -145c-18 0 -22 2 -28 8c-1 0 -2 0 -2 1l3 9l4 4c1 -2 2 -3 4 -3c1 0 3 2 5 4c6 -1 13 -2 20 -2c60 0 115 33 129 75c1 2 4 17 10 47c-15 63 -17 65 -59 90l-49 8c-42 0 -72 -12 -103 -39c-38 -35 -46 -45 -57 -145
c-12 -103 -38 -114 -149 -163c-82 -41 -108 -64 -131 -112c-16 -32 -24 -64 -24 -95c0 -69 64 -163 205 -163c79 0 173 51 208 111c9 16 16 40 21 73c-4 15 -7 28 -8 39c-7 8 -15 18 -23 30c-14 6 -29 10 -44 13c-71 -12 -72 -12 -164 -84l-1 3h-6c12 30 57 71 102 93
c17 8 45 15 83 20c14 -3 35 -8 63 -15l40 -40c6 -20 10 -37 14 -52c-10 -88 -64 -137 -167 -181c-63 -27 -122 -40 -178 -40l-65 9c-66 8 -153 69 -153 176l2 2c5 108 67 163 268 252c18 10 18 12 26 41c17 191 22 234 203 285c28 0 35 0 55 5c19 -5 48 -13 91 -23l41 -41
c3 -9 14 -50 15 -55z" />
    <glyph glyph-name="F" unicode="F" horiz-adv-x="792" 
d="M1316 712c-15 -35 -44 -37 -130 -39c-12 0 -36 1 -72 4c-111 -48 -170 -111 -284 -319c104 11 105 12 138 52l37 6c1 -1 3 -1 6 -1c2 0 5 1 8 2l10 -4c-2 0 -3 -1 -3 -2l4 -4c1 0 2 0 2 1c-2 -5 -19 -23 -107 -115l-44 -59l-5 3c-3 0 -5 1 -5 5l2 3c0 6 5 16 20 43l31 56
c-34 -5 -71 -8 -109 -8c-115 -197 -249 -348 -451 -348c-108 0 -191 61 -191 142c0 18 9 52 51 57c11 -6 21 -9 31 -11c4 -8 9 -19 14 -34c-1 -25 -14 -41 -37 -48l3 -7c0 -39 59 -77 134 -77c132 0 227 91 370 329c-7 0 -12 1 -17 2l-6 -1l-3 4c-1 -1 -1 -1 -2 -1
s-2 2 -3 6l6 10h35c101 168 182 254 303 320c-38 0 -42 0 -96 5c-8 -1 -21 -3 -27 -3c-10 2 -29 4 -34 4c-360 0 -560 -95 -560 -260c0 -53 69 -108 135 -108c145 -1 250 102 250 211c-2 21 -2 22 -5 28c1 4 3 10 6 17h3l3 3c4 -3 4 -4 9 -6l-1 -4l1 -7c0 -2 2 -3 4 -4
c0 -27 0 -28 3 -34c-24 -110 -56 -163 -157 -210c-35 -16 -67 -25 -94 -25c-111 0 -179 72 -179 128c0 194 248 329 608 329c34 0 61 -1 338 -14h26c4 -3 8 -5 12 -5c2 0 5 1 8 2v-2c0 -4 1 -6 3 -6s3 0 6 2z" />
    <glyph glyph-name="G" unicode="G" horiz-adv-x="650" 
d="M1053 678c-12 -89 -91 -138 -224 -140c-62 0 -149 33 -195 74c-90 -63 -188 -225 -188 -299c0 -47 9 -66 42 -90c11 -8 22 -12 33 -12c84 0 164 49 215 143c28 51 38 63 89 71c5 -5 11 -7 19 -7l6 -12c-5 -29 -14 -40 -84 -123c-103 -179 -228 -316 -413 -316
c-90 0 -167 63 -167 131c0 61 20 92 61 92c8 -4 18 -8 30 -11c7 -13 11 -25 14 -36c-5 -36 -27 -44 -38 -44c-3 0 -6 1 -8 3l-4 -29c0 -36 65 -84 121 -84c4 0 69 14 75 16c64 21 139 113 219 229c-61 -36 -107 -55 -139 -55c-96 0 -141 48 -141 145c0 58 38 133 113 226
c25 31 64 63 118 97c-12 30 -18 56 -18 79c0 43 30 102 63 115l6 -2v-5l4 -1c-2 -1 -4 -6 -6 -10c-21 -12 -46 -57 -46 -83c0 -40 6 -65 18 -77c106 59 181 83 301 95c17 -5 29 -5 46 -5c12 -6 24 -10 36 -11l34 -29c3 -16 6 -27 8 -35zM997 684l-9 28c-11 3 -20 9 -27 17
c-9 1 -23 3 -41 6c-20 -2 -44 -6 -72 -11c-77 -28 -142 -60 -194 -96c37 -37 105 -60 185 -60c58 0 131 39 149 80c1 2 4 14 9 36z" />
    <glyph glyph-name="H" unicode="H" horiz-adv-x="853" 
d="M1437 708c-4 -7 -5 -12 -5 -20c-9 -14 -23 -20 -41 -20s-42 48 -42 56c-11 2 -15 2 -18 3c-179 0 -492 -426 -492 -668c0 -22 24 -43 49 -43c5 0 10 2 15 7c73 30 160 113 261 247l9 3l4 -2l-2 -4h3c-36 -64 -150 -196 -202 -228c-63 -40 -64 -40 -126 -51
c-62 12 -80 38 -80 110c0 63 30 146 89 249h-146c-174 -270 -277 -359 -411 -359c-64 -2 -109 32 -109 86c0 4 6 14 19 31l15 5c2 -3 5 -5 15 -5c2 -6 6 -11 11 -14c0 -11 1 -17 4 -23c-3 -3 -4 -6 -4 -9s1 -6 3 -8c-3 -2 -3 -5 -3 -11c-2 -3 -4 -6 -7 -11l2 2
c10 -9 28 -22 44 -22c63 0 98 15 153 71c25 24 45 48 59 70l145 227c143 225 216 290 382 350c-197 -13 -344 -37 -441 -73c-32 -12 -75 -38 -129 -78c-31 -24 -53 -71 -53 -114c0 -41 46 -74 96 -74c52 0 115 33 130 69l16 38c0 15 0 18 3 26c-4 6 -5 13 -5 19
c0 13 1 22 3 26l4 1c4 -5 9 -8 14 -9c4 -19 6 -30 6 -32c0 -111 -99 -170 -208 -170c-65 0 -130 56 -130 112c0 122 156 226 395 265c22 1 54 6 95 13c13 -1 13 -1 113 9c13 -2 22 -2 26 -2c11 0 21 1 31 3c8 -2 16 -3 26 -3c11 0 23 2 34 4c1 -2 3 -3 6 -3
c35 7 96 18 97 18l4 -2l-2 -4l3 -3l-3 -5l2 -3c-2 -2 -4 -6 -7 -11c-4 -1 -9 -4 -15 -8c-181 -21 -245 -107 -417 -367l149 2c177 241 332 361 496 387l42 -10l20 -20c0 -11 0 -13 5 -20z" />
    <glyph glyph-name="I" unicode="I" horiz-adv-x="650" 
d="M1219 745c-3 -19 -17 -25 -110 -27c-81 -34 -136 -109 -292 -363c-154 -249 -306 -367 -473 -367c-95 0 -185 69 -185 131c0 47 19 71 56 71c8 -3 19 -7 33 -13c6 -12 10 -23 12 -32c-2 -29 -15 -44 -38 -44c-4 -3 -6 -3 -15 -3l8 -9c39 -59 76 -80 124 -80
c124 0 205 63 314 225c223 334 246 368 424 478c-398 -22 -597 -109 -597 -253c0 -34 51 -81 86 -81c89 0 156 60 162 144c-2 1 -3 3 -3 5l-1 9c0 6 1 12 4 16v-2c2 0 4 1 7 3l6 -2l2 -3v-5l4 -2c0 -23 1 -25 4 -30c-15 -97 -90 -163 -173 -163c-75 0 -123 21 -150 66
c-12 20 -18 36 -18 49c0 149 172 240 504 266c155 5 193 9 285 31c4 -2 9 -3 15 -4v-3c0 -4 2 -7 5 -8z" />
    <glyph glyph-name="J" unicode="J" horiz-adv-x="731" 
d="M1300 730c-14 -24 -19 -29 -56 -29c-95 0 -152 -59 -352 -378l-170 -272c145 54 193 83 284 179l41 39c-1 0 -1 0 -2 -1c0 -2 1 -3 3 -3c1 0 3 0 5 1l-2 -4h3c0 -13 -48 -69 -153 -150c-43 -32 -110 -65 -197 -88c-19 -24 -35 -48 -48 -71l2 2
c-84 -118 -161 -196 -280 -255c-45 -22 -47 -22 -145 -35c-66 8 -102 14 -141 59c-22 26 -34 57 -34 92s31 85 63 96c32 33 204 84 305 91c37 7 124 18 205 28c249 451 324 526 498 659c-89 0 -268 -28 -345 -50c-132 -39 -230 -122 -230 -195c0 -56 42 -95 85 -95
c62 0 128 33 147 74c6 14 12 37 16 68c-2 2 -3 5 -3 8s1 5 2 8l-2 8l4 7l5 2c1 -5 2 -5 9 -5c1 -7 4 -17 8 -31c-6 -103 -91 -171 -212 -171c-15 0 -28 3 -39 11c-56 14 -91 58 -91 116c0 116 153 222 358 246c92 13 132 16 309 26c39 3 68 9 86 19c13 1 27 3 43 7l16 -4v-3
c1 -1 2 -1 4 -2l-2 -4h3zM616 5c-38 -6 -83 -11 -137 -17c-262 -37 -364 -86 -364 -196c0 -63 50 -105 117 -105s170 53 225 114c18 24 45 55 81 93c8 15 17 27 27 36l-2 -2c15 28 33 54 53 77z" />
    <glyph glyph-name="K" unicode="K" horiz-adv-x="874" 
d="M1418 699c-5 -11 -7 -20 -7 -27c-17 -21 -27 -31 -31 -31c-7 1 -11 3 -14 4c0 -1 0 -1 -1 -2c-3 0 -3 1 -3 36c-3 1 -3 1 -3 13l-1 10c-7 6 -14 13 -19 21l-16 4c-43 -6 -56 -15 -208 -172c-125 -129 -178 -157 -303 -187l2 2c6 -7 14 -12 24 -15c10 -14 20 -27 30 -39
c4 -13 8 -35 14 -63c-5 -55 -9 -69 -28 -127c-13 -17 -27 -60 -27 -81c0 -14 13 -29 25 -29c77 0 236 124 343 267l3 1c-1 0 -2 -1 -2 -2s1 -2 3 -2l5 1l2 -7c-70 -113 -214 -240 -310 -273c-4 -1 -25 -6 -63 -13c-24 0 -43 7 -56 22c-14 14 -20 34 -20 58
c0 20 42 130 62 168c0 15 2 30 7 44c-2 9 -6 22 -9 41c-10 7 -19 16 -25 26c-13 5 -34 11 -62 18l-7 -2l-4 4h-3l-4 5c0 2 1 4 2 5c0 13 14 18 53 18c80 0 132 32 235 139c170 176 239 224 328 224c2 0 13 -1 32 -4c11 -7 26 -15 45 -25c3 -12 7 -22 11 -30zM1118 751
c-8 -23 -9 -24 -136 -45c-73 -26 -122 -86 -306 -356c-170 -256 -282 -362 -408 -362c-60 0 -118 34 -118 72c0 12 6 26 17 44c13 4 23 8 30 11c7 -3 18 -8 33 -14l9 -27c-6 -25 -15 -39 -26 -41c10 -14 36 -23 53 -23c77 0 119 36 222 182c11 27 163 259 210 321
c77 103 121 139 226 197l-52 -1l-121 -11c-298 -53 -446 -132 -446 -243c0 -54 47 -107 92 -107c55 0 98 25 126 72c4 7 19 67 19 76c-4 34 -4 41 -4 42c1 2 2 4 3 5l6 2c0 -3 2 -4 4 -4l4 1c1 -6 4 -14 8 -23c0 -10 0 -20 2 -29c-4 -13 -5 -19 -5 -39
c-29 -89 -92 -133 -188 -133c-80 0 -138 54 -138 128c0 149 216 259 555 283c53 6 66 7 81 7c44 0 81 2 111 6c60 16 90 22 120 24l4 -4l4 3c2 -5 5 -10 9 -14z" />
    <glyph glyph-name="L" unicode="L" horiz-adv-x="691" 
d="M1265 690c-13 -135 -188 -227 -433 -227c-171 -272 -231 -351 -379 -421c7 -3 9 -3 36 -3c13 -4 33 -10 59 -19c56 -48 57 -50 67 -98c117 129 393 347 394 347l1 -4l5 1l-2 -4h3c-5 -19 -65 -70 -248 -216c-53 -45 -108 -102 -163 -173c-14 -7 -24 -18 -29 -33
c-9 -3 -16 -8 -21 -17c-9 -3 -14 -3 -16 -4c-6 0 -12 1 -17 4l-6 7l3 2c0 4 12 23 19 29c5 18 6 28 6 30c0 76 -61 129 -149 129l2 2c-40 -16 -73 -24 -100 -24c-15 0 -30 -3 -43 -9c-4 2 -9 3 -13 3c-5 0 -11 -1 -16 -4c-9 4 -14 5 -28 5l-10 8l5 14l14 10c13 2 27 5 45 11
c212 -15 239 17 437 333c16 24 40 60 71 108c-87 23 -161 95 -161 157c0 78 44 120 130 127c5 -3 8 -3 33 -3l30 -12l4 -4l-1 -3h2l-2 -6l-8 -2c-11 0 -28 3 -50 7c-86 -13 -115 -40 -115 -97c0 -78 86 -131 152 -142c146 182 214 230 395 259l58 -12l30 -24
c2 -11 5 -22 9 -32zM1209 679c-4 9 -7 19 -7 30l-24 20c-21 5 -32 5 -34 6c-54 0 -123 -43 -207 -128c-12 -12 -42 -53 -90 -122h42c169 0 310 84 320 194z" />
    <glyph glyph-name="M" unicode="M" horiz-adv-x="1036" 
d="M1527 741c-14 -20 -14 -21 -22 -21c-2 0 -4 1 -7 2c-4 -2 -9 -3 -13 -3c-3 0 -16 3 -41 8c-95 -28 -150 -112 -263 -381c-80 -191 -127 -257 -230 -323c140 0 240 60 396 242l7 3l7 -6c-13 -33 -77 -101 -175 -182c-45 -38 -138 -74 -212 -85c-31 -4 -79 -8 -144 -11
c-5 1 -10 2 -17 4l-6 5l-2 6l2 7l7 5c2 -1 4 -1 7 -1c2 0 5 1 8 2c104 0 151 54 291 382c55 140 106 213 220 312c-94 -31 -192 -113 -292 -247c-260 -338 -353 -446 -412 -475l-6 2l-4 12c1 1 3 2 5 3c28 43 49 109 152 451c41 109 68 148 160 241
c-77 -17 -175 -111 -265 -253c-251 -418 -255 -424 -408 -452c-61 11 -86 25 -86 54c0 35 10 44 43 53c6 -4 16 -8 30 -13c2 -8 6 -17 12 -29c-4 -4 -5 -9 -5 -15l-3 -8l2 2c4 -3 16 -5 37 -5c79 0 134 46 219 188l100 166c145 239 228 313 416 376v-2c3 0 5 1 7 3l7 -4
l-1 -3h2c-3 -7 -14 -18 -34 -34c-87 -66 -90 -69 -225 -487c-12 -25 -28 -64 -48 -116c52 52 82 88 265 319c170 202 200 229 305 277c63 29 124 46 182 48c8 -5 15 -5 24 -5c5 -6 6 -6 8 -12z" />
    <glyph glyph-name="N" unicode="N" horiz-adv-x="853" 
d="M1435 675c-10 -50 -30 -75 -60 -85l-6 2v2c9 10 16 23 18 39l-8 24c-9 5 -18 12 -27 22l-28 6c-147 -20 -277 -185 -516 -676l-3 -7c0 -2 -2 -5 -4 -9c-4 -2 -5 -2 -8 -5c-3 1 -5 2 -7 4c0 4 0 4 -2 8c14 49 21 86 21 111c0 57 -4 98 -26 291c-3 40 -5 62 -5 67
c-4 10 -6 26 -6 50v54c-235 -482 -325 -560 -499 -585c-74 19 -84 24 -84 59c0 3 4 13 12 31c10 5 20 9 29 12c6 -4 15 -7 28 -11l13 -33c-3 -3 -4 -6 -4 -8s0 -5 1 -6l-3 -10l14 -1c4 -3 8 -5 14 -5c150 0 312 218 515 695c12 25 29 40 50 47l5 -2l2 -6
c-6 -8 -21 -74 -21 -90c0 -11 5 -126 6 -133l30 -277c-2 -6 -3 -8 -3 -37c-6 -29 -6 -30 -29 -84c276 553 367 586 515 614c9 -2 23 -5 41 -10c7 -11 15 -18 25 -23c2 -11 6 -23 10 -35z" />
    <glyph glyph-name="O" unicode="O" horiz-adv-x="630" 
d="M964 272c-10 -33 -86 -63 -180 -63c-12 0 -31 2 -56 7c-121 -152 -233 -228 -348 -228c-96 0 -134 57 -155 163c0 208 183 497 446 570c26 16 40 24 54 30c14 0 30 2 46 7c62 -13 63 -14 98 -54c3 -19 8 -34 15 -47c1 -13 3 -29 7 -48c-11 -143 -51 -237 -149 -371
c38 -4 60 -6 66 -6c63 0 110 15 141 45l7 3l5 -2c-1 -1 -1 -2 -1 -4c0 -1 1 -1 4 -2zM835 606c-3 26 -10 58 -22 95c-3 4 -12 13 -28 29c-10 0 -17 1 -25 5c-6 -3 -8 -3 -22 -3l-32 -12c7 -5 16 -7 27 -7l32 -20l20 -26l10 -32c0 -13 0 -16 3 -22l-2 -6c-1 -2 -3 -3 -6 -5
c-1 1 -3 2 -4 4c0 -1 -2 -1 -3 -1l-3 4c0 1 1 2 3 2c-3 2 -5 6 -5 11l1 2c-3 7 -11 24 -26 50c-8 4 -16 9 -23 16c-12 0 -23 3 -31 7h-27c-57 -57 -86 -133 -86 -227c0 -93 42 -168 124 -215c80 129 110 200 125 351zM694 232c-8 1 -14 6 -17 14c-61 36 -114 133 -114 208
c0 91 23 170 69 236c-192 -95 -335 -315 -335 -514c0 -48 8 -84 24 -110c3 -19 14 -30 33 -33c11 -11 25 -16 41 -16c105 0 225 101 299 215z" />
    <glyph glyph-name="P" unicode="P" horiz-adv-x="813" 
d="M1255 779c-4 -1 -6 -2 -6 -4c0 -1 1 -2 3 -4c-19 -11 -45 -18 -79 -22c-7 -5 -15 -8 -23 -9c23 -19 24 -20 65 -79c2 -12 9 -52 11 -61c0 -58 -30 -158 -183 -217c-15 -6 -26 -9 -35 -9c-50 0 -79 12 -86 35c-6 4 -9 10 -9 17c0 18 8 39 28 52c10 0 12 0 20 5
c7 -4 15 -7 25 -10l-1 -3c0 -5 2 -9 6 -13l-6 -26l-4 -3l3 -4l-3 -5c3 -6 7 -9 10 -9l13 -3c56 0 123 79 142 149c2 14 6 35 10 63c-3 13 -6 31 -10 57l-21 34c-6 0 -11 2 -14 7c-105 -72 -143 -134 -314 -411c-95 -148 -186 -235 -292 -281c71 -5 117 -7 138 -7
c147 0 291 57 393 155c18 22 45 53 83 94c3 0 6 1 8 5l6 -2l2 -6c-133 -201 -224 -250 -475 -276c-33 0 -185 16 -208 22c-67 -13 -119 -20 -155 -20c-72 0 -128 18 -128 41c0 2 1 6 4 14l6 6c32 6 61 9 85 9c64 -9 154 -25 184 -30l2 2c52 0 150 93 245 245
c176 300 238 378 388 460c-11 0 -21 3 -32 9c-23 0 -45 2 -66 7c-283 -9 -561 -202 -561 -423c0 -66 36 -100 108 -100c66 0 145 77 160 171l5 78c1 2 2 4 4 5c4 0 8 1 11 3l-1 -4c1 0 3 0 5 1l-2 -5l5 -4c0 -10 0 -18 2 -25c-1 -1 -3 -24 -7 -66
c-9 -89 -108 -184 -214 -184c-77 0 -132 55 -132 133c0 216 330 443 624 443c7 0 35 -3 86 -10c8 -3 22 -6 40 -10c27 9 68 21 123 35l10 -4z" />
    <glyph glyph-name="Q" unicode="Q" horiz-adv-x="792" 
d="M1116 260c-41 -70 -163 -193 -251 -245c-64 -37 -124 -56 -179 -56c-51 0 -158 30 -225 63c-25 -15 -139 -34 -192 -34c-54 0 -83 12 -88 36c10 38 86 70 162 70c55 0 77 -4 165 -28c330 161 514 348 514 515l-15 76c-16 36 -63 70 -122 70c-148 0 -291 -116 -291 -265
c0 -52 53 -113 102 -113c56 0 111 26 165 76l6 5l10 1l2 -6l-3 -2l2 -2c-3 -6 -21 -22 -54 -49c-36 -29 -81 -44 -136 -44c-86 0 -150 59 -150 127c0 156 177 303 354 303c2 0 85 -13 85 -14c13 -6 31 -15 56 -28c14 -16 26 -29 36 -39c15 -35 23 -63 23 -84
c0 -173 -201 -369 -552 -538c114 -33 142 -40 181 -40c118 0 212 50 311 166c18 23 44 51 78 86l-1 -4c1 0 3 0 5 1zM430 38l-2 -2c-14 3 -25 8 -35 14c-63 11 -72 13 -89 13c-34 0 -67 -12 -67 -26c0 -16 27 -29 48 -29c43 0 92 10 145 30z" />
    <glyph glyph-name="R" unicode="R" horiz-adv-x="853" 
d="M1182 266c-10 -41 -150 -177 -249 -247c-30 -21 -62 -31 -98 -31c-48 0 -82 28 -82 69c0 55 13 86 53 181c13 44 13 49 17 80c0 3 -1 8 -4 22l-10 16c-8 1 -16 5 -23 13l-20 6c-1 -2 -2 -2 -4 -2l-7 14c1 3 4 6 7 9l11 1c6 -2 13 -2 19 -2c8 0 16 1 23 3
c116 0 202 97 202 210c0 3 -3 18 -8 44c-6 7 -16 20 -29 40c-54 -38 -106 -96 -159 -174c-289 -455 -343 -500 -516 -530c-16 0 -40 5 -73 16c-27 9 -41 32 -41 71c0 26 15 41 46 47c7 -4 17 -8 29 -12c5 -12 9 -22 13 -31c-5 -8 -5 -12 -5 -20c-11 -16 -22 -25 -35 -27l2 2
c14 -16 35 -24 61 -24c100 0 134 41 348 385c121 188 181 252 295 322c-12 0 -22 4 -29 13c-103 22 -107 23 -122 23c-250 0 -507 -186 -507 -367c0 -75 48 -139 103 -139c106 0 181 87 191 228c1 21 4 35 10 42l6 3l5 -2l3 -3l2 -32c-22 -175 -104 -268 -237 -268
c-26 0 -80 23 -97 40c-12 9 -43 75 -43 99c0 257 326 403 576 422c49 0 75 -6 152 -26c6 -6 15 -11 26 -14c19 9 56 19 110 31c1 -3 3 -5 6 -5c2 0 4 1 7 2l3 -8c-1 -3 -1 -4 -3 -5c-5 -5 -6 -6 -88 -35c7 -10 17 -18 28 -25l30 -48c5 -24 11 -55 11 -56
c0 -76 -58 -154 -138 -189c-21 -9 -55 -17 -103 -24l20 -20c5 -12 11 -22 19 -30c0 -13 2 -26 7 -37c-3 -35 -11 -67 -23 -98c-9 -20 -48 -117 -48 -127c0 -40 8 -44 35 -44c63 0 211 120 309 249l10 5l2 -3l3 2l-3 -4z" />
    <glyph glyph-name="S" unicode="S" horiz-adv-x="650" 
d="M1071 661c-12 -49 -14 -53 -38 -65c-13 -7 -24 -11 -33 -11l-11 6c2 14 6 35 12 62c-6 17 -9 33 -11 47c-11 10 -19 18 -24 25c-7 1 -21 4 -43 10c-77 -12 -105 -32 -140 -121c-17 -48 -28 -95 -31 -143c-14 -247 -41 -328 -136 -411c-56 -48 -123 -72 -200 -72
c-110 0 -180 46 -217 113c-15 27 -22 49 -22 66c0 53 12 81 49 118c11 0 20 3 28 7c12 -3 23 -6 32 -10c2 -9 6 -21 12 -35c-2 -5 -4 -13 -5 -23c-12 -14 -26 -20 -42 -20c-4 0 -8 1 -12 2l2 2c-5 -15 -7 -31 -7 -49c0 -81 96 -150 203 -150c101 0 203 110 220 237
c31 403 77 474 282 512c19 0 46 -6 84 -20c11 -10 24 -22 37 -36c1 -11 5 -25 11 -41z" />
    <glyph glyph-name="T" unicode="T" horiz-adv-x="792" 
d="M1328 706c-6 -31 -37 -34 -94 -34c-1 0 -71 2 -74 3c-113 0 -170 -69 -299 -287c-171 -289 -307 -400 -490 -400c-154 10 -188 90 -188 145c0 36 16 49 53 58c8 -4 18 -7 30 -11c2 -9 7 -20 13 -35c-3 -31 -16 -47 -45 -47l2 2c7 -52 71 -90 155 -90c93 0 180 80 226 134
c33 40 60 82 209 314c88 135 169 187 242 216c-6 1 -21 2 -159 11l-194 -10c0 -1 -24 -4 -72 -11c-175 -24 -299 -126 -299 -236c0 -86 62 -138 167 -138c65 0 144 43 190 100c13 16 27 44 41 83c-1 2 -1 4 -1 7c0 21 7 44 20 50v-4c2 0 2 0 4 1v-5c0 -4 0 -8 5 -12
c-10 -68 -16 -86 -41 -121c-57 -80 -135 -120 -233 -120c-105 0 -175 61 -175 152c0 165 256 316 529 316c10 0 40 2 109 6c4 -1 34 -3 44 -3c8 0 17 0 36 2c165 -7 227 -10 248 -14c5 0 10 1 15 3c2 -5 4 -7 8 -7c2 0 4 1 7 2c1 -5 4 -8 9 -10z" />
    <glyph glyph-name="U" unicode="U" horiz-adv-x="711" 
d="M1065 748l-335 -515c-54 -83 -81 -134 -81 -154c0 -41 18 -61 54 -61c73 0 193 91 327 259l6 5c2 0 2 0 7 -2c0 -2 1 -4 2 -6c-118 -176 -236 -265 -372 -286c-47 13 -84 30 -84 73c0 40 5 70 16 92c-118 -110 -212 -165 -284 -165c-55 12 -73 17 -73 90
c0 50 14 72 289 486c39 55 42 66 55 119c-5 7 -5 12 -5 22c-8 5 -15 12 -23 21c-34 8 -36 9 -39 9c-125 0 -298 -145 -298 -284c0 -36 31 -61 79 -61c32 0 64 22 122 78l4 -1l-1 -5l4 -2c-7 -32 -84 -93 -129 -93c-51 0 -102 40 -102 80c0 146 178 311 334 311
c6 0 8 0 60 -11c16 -12 31 -24 44 -36c5 -15 9 -31 12 -47l-8 -48c-34 -69 -34 -70 -222 -343c-99 -149 -108 -181 -116 -224c0 -5 2 -9 7 -13c4 -12 15 -18 33 -18c97 0 242 126 373 329l254 394z" />
    <glyph glyph-name="V" unicode="V" horiz-adv-x="548" 
d="M1010 688c-22 -215 -220 -401 -743 -700l-7 3l-2 5c64 114 70 125 138 320c73 188 105 258 215 366c-135 -27 -380 -96 -380 -220c0 -60 22 -90 66 -90c75 0 97 55 103 127l5 5h4c1 -6 4 -7 11 -7c-1 -3 -2 -5 -2 -7c0 -4 2 -7 5 -8c-15 -92 -67 -142 -138 -142
c-66 0 -109 42 -109 107c0 74 52 135 156 181c42 18 125 43 249 73c19 5 43 13 72 26c12 9 31 20 56 31v-3c0 -2 1 -2 3 -2l4 2l4 -7l-4 -5l1 -4c-124 -122 -130 -138 -249 -450c-28 -68 -31 -73 -123 -232c407 261 507 339 586 571l2 31l-8 15c-6 2 -6 3 -13 38
c0 15 4 21 20 39c9 0 17 2 25 7l24 -6c9 -13 17 -23 24 -31c0 -17 0 -22 5 -33z" />
    <glyph glyph-name="W" unicode="W" horiz-adv-x="914" 
d="M1312 693c-27 -205 -137 -320 -697 -702h-4l-3 -3l-4 2l-1 -1l-4 4v3c0 5 2 9 13 27c45 70 74 120 169 428c-115 -139 -186 -213 -371 -378c-78 -80 -80 -81 -103 -85c-8 2 -14 4 -15 6c0 8 0 12 2 15c79 75 89 101 144 273c81 225 135 317 244 410
c-298 -85 -397 -130 -397 -219c0 -59 28 -89 84 -89c52 0 76 26 94 100c-2 3 -3 6 -3 10c0 5 3 10 8 17l4 1c4 -4 4 -4 9 -6l4 -20c-4 -15 -8 -32 -11 -51c-29 -50 -76 -84 -113 -84c-81 1 -131 43 -131 109c0 114 114 163 390 238c103 33 104 33 155 60l5 -2l-1 -3
c0 -3 2 -4 4 -5l-4 -5l1 -4c-10 -7 -73 -73 -108 -119c-39 -57 -86 -159 -141 -308c-18 -38 -43 -95 -77 -172c215 195 273 257 432 484c46 68 101 116 157 134l12 -4l6 -14c-5 -6 -5 -8 -5 -16c-6 -7 -15 -17 -27 -30c-76 -58 -137 -162 -181 -307
c-24 -79 -78 -208 -141 -296c372 231 524 417 533 576h-3c-4 0 -6 2 -6 6c-12 6 -18 16 -18 30c0 29 16 48 48 55c17 -6 31 -14 42 -25z" />
    <glyph glyph-name="X" unicode="X" horiz-adv-x="853" 
d="M1368 700c-4 -28 -17 -43 -38 -43c-22 0 -34 12 -43 45c-7 5 -14 12 -21 20c-13 0 -17 1 -25 5c-71 -12 -95 -18 -122 -32c-159 -84 -269 -225 -331 -422c-18 -59 -27 -104 -27 -136c0 -80 26 -119 79 -119c75 0 207 104 323 253c2 2 7 3 13 5l1 -4l-1 -2h3
c-12 -40 -203 -255 -308 -273c-13 -1 -32 -4 -58 -9c-90 13 -121 53 -121 154c0 32 4 59 12 80c-134 -156 -264 -234 -393 -234c-74 0 -121 30 -121 76c0 25 16 41 45 45c7 -3 17 -8 33 -13c1 -7 5 -17 11 -29c-1 -14 -7 -26 -18 -35l2 2c1 -1 33 -17 55 -17
c137 0 276 101 393 289c70 96 111 207 111 297c0 21 -7 50 -21 90c-10 8 -20 19 -32 33c-9 3 -28 9 -58 16c-133 -21 -200 -79 -252 -216c-8 -22 -13 -40 -13 -56c0 -96 37 -144 111 -144c43 0 109 42 132 85c13 23 19 36 19 38l14 8l3 -5l-1 -3h3c-2 -2 -3 -5 -5 -11
c-13 -57 -118 -145 -176 -145c-4 0 -9 1 -13 2c-5 -1 -9 -2 -14 -2c-71 0 -129 69 -129 160c0 32 6 47 46 134c58 104 187 186 295 186c22 0 53 -8 90 -24c11 -10 28 -28 50 -51c12 -28 19 -58 22 -91c-3 -7 -3 -10 -3 -40l-6 -40c137 151 273 231 391 231c4 0 22 -3 54 -9
c8 -7 18 -15 31 -22c1 -7 4 -16 8 -27z" />
    <glyph glyph-name="Y" unicode="Y" horiz-adv-x="894" 
d="M1292 748l-410 -642c-210 -328 -340 -441 -513 -441c-121 0 -188 58 -188 161c0 55 65 108 129 108c56 0 76 -18 84 -36c-3 0 -4 -2 -4 -6l1 -3h-3c-2 0 -3 -1 -3 -4l-3 8c-1 0 -2 -1 -4 -3c-10 9 -22 14 -35 14c-49 0 -91 -40 -91 -88c0 -38 19 -74 57 -109
c34 -13 58 -20 73 -20c130 0 236 115 427 456c-140 -127 -172 -135 -271 -155c-67 14 -76 19 -79 39c-7 6 -10 14 -10 24c0 73 15 106 256 444c68 99 90 141 100 188c-4 6 -5 9 -5 21c-7 3 -11 8 -13 17c-15 5 -31 10 -47 14c-89 -15 -117 -26 -198 -102
c-73 -71 -104 -126 -104 -192c0 -34 35 -52 75 -52c32 0 43 9 119 77l4 1c-1 0 -1 0 -1 -1c0 -2 0 -3 2 -3l5 1l-1 -4c0 -4 2 -7 5 -7c-53 -67 -91 -80 -163 -88c-33 0 -67 36 -67 71c0 78 49 160 146 247c45 41 89 59 193 75c14 -3 35 -7 63 -12c17 -14 31 -27 42 -38
c2 -14 5 -26 9 -36c-9 -78 -17 -90 -216 -371l-88 -128c-29 -42 -51 -93 -51 -105c0 -30 15 -51 36 -51c136 0 302 165 525 524c29 45 71 112 129 200z" />
    <glyph glyph-name="Z" unicode="Z" horiz-adv-x="691" 
d="M1105 747c-2 -3 -3 -5 -3 -6h2c-5 -9 -7 -11 -102 -83c-24 -22 -59 -54 -107 -95l-543 -462c11 2 21 7 31 13c39 5 57 8 62 9c33 0 78 -13 135 -39c58 -26 100 -39 127 -39c77 0 154 52 252 169c33 41 53 62 58 63l7 -6c-4 -1 -6 -2 -6 -4c0 -1 1 -3 3 -4
c-149 -195 -212 -246 -369 -275c-88 14 -89 14 -186 74c-17 8 -39 15 -69 23c-79 -17 -100 -32 -165 -93c-2 1 -3 2 -4 2c-2 0 -4 -2 -6 -5c-2 3 -5 5 -8 5l-2 6c3 9 3 10 206 185l534 455c-60 -16 -109 -25 -147 -25c-24 0 -50 6 -79 17c-81 39 -122 53 -164 53
c-80 0 -140 -62 -140 -144c0 -39 48 -84 86 -84c48 0 63 11 114 47l1 -2v-2c0 -2 1 -3 4 -3l-1 -3v-2c-19 -29 -67 -57 -103 -57c-74 0 -123 50 -123 128c0 98 114 180 220 180c4 0 23 -2 58 -6c35 -19 176 -63 235 -63c61 0 88 19 183 84l6 -2l-2 -4z" />
    <glyph glyph-name="bracketleft" unicode="[" horiz-adv-x="386" 
d="M867 790l-20 -33h-120l-508 -826h110l-20 -33h-171l549 892h180z" />
    <glyph glyph-name="bracketright" unicode="]" horiz-adv-x="386" 
d="M936 790l-549 -892h-181l20 33h121l508 826h-110l20 33h171z" />
    <glyph glyph-name="a" unicode="a" 
d="M814 258c-7 -24 -208 -270 -318 -270c-41 0 -66 21 -66 57c0 10 1 32 6 39c-75 -67 -92 -82 -167 -96c-59 14 -73 29 -73 90c0 81 100 219 195 272c21 11 53 21 96 28c18 -4 36 -9 53 -14c8 -12 17 -20 26 -27c0 -7 2 -14 6 -22l33 47l76 6l-162 -262
c-22 -36 -33 -61 -33 -76c-1 -2 -2 -4 -2 -6c0 -7 14 -14 22 -14c54 0 134 69 290 248c3 2 7 4 12 8v-3l3 2l-2 -5l3 -2h2zM534 307c-2 5 -4 17 -4 19v4c-9 5 -14 12 -17 21c-8 0 -14 0 -21 5c-62 -9 -108 -47 -165 -130c-38 -58 -59 -109 -60 -152l-2 -2
c0 -26 17 -49 36 -49c78 0 190 136 221 224c4 11 8 31 12 60z" />
    <glyph glyph-name="b" unicode="b" 
d="M820 255c-10 -33 -69 -65 -130 -65c-26 0 -51 11 -76 33c-46 -115 -203 -235 -305 -235c-12 0 -30 4 -55 14c-25 9 -37 32 -37 69c0 45 15 77 106 218l290 452l80 7l-364 -569c-38 -59 -57 -100 -57 -126c0 -29 14 -43 42 -43c88 0 203 125 244 275c-7 44 -8 51 -8 52
c0 23 12 36 35 41c8 -6 11 -7 21 -7c4 -8 10 -15 16 -23c0 -13 1 -22 5 -34c-2 -4 -4 -8 -4 -12c0 -3 1 -6 3 -8c-2 -5 -4 -9 -4 -13c0 -42 31 -68 92 -68c25 0 44 11 101 48h3z" />
    <glyph glyph-name="c" unicode="c" horiz-adv-x="365" 
d="M355 -3c-13 -1 -33 -4 -59 -9c-68 10 -69 11 -85 35c-10 15 -15 31 -15 46l2 2c0 142 138 280 310 307c13 -5 23 -5 36 -5l26 -14l13 -33c0 -29 -7 -34 -48 -53c-2 0 -4 1 -6 2c-2 -1 -3 -2 -4 -2c-5 0 -8 7 -8 21l5 24c-2 6 -5 16 -10 28l-24 10
c-132 -16 -221 -230 -221 -259c0 -40 9 -63 27 -67c5 -5 12 -8 20 -8c78 0 203 84 353 237c4 5 9 7 13 8l6 -3c0 -32 -236 -252 -331 -267z" />
    <glyph glyph-name="d" unicode="d" 
d="M940 748l-400 -629c-24 -38 -38 -60 -45 -90l-3 -4l4 -4c0 -4 5 -7 20 -11c72 12 143 79 274 251c3 1 7 3 14 7v-2l3 1l2 -4c-2 -4 -3 -5 -3 -6h2c-106 -159 -209 -254 -311 -269c-38 9 -56 25 -56 49c0 18 1 33 3 46c-51 -51 -91 -79 -120 -85l-50 -10
c-62 13 -78 31 -78 89s63 175 202 266c23 15 61 27 113 35c14 -4 27 -7 39 -9c11 -10 22 -21 32 -34c0 -9 1 -11 4 -17l271 423zM546 303c-5 14 -8 25 -9 35c-8 2 -13 7 -15 15c-2 -1 -5 -2 -6 -2c-3 0 -5 2 -6 5c-132 -27 -243 -191 -243 -290l-2 -2c0 -16 19 -43 31 -43
c92 0 245 174 250 282z" />
    <glyph glyph-name="e" unicode="e" horiz-adv-x="365" 
d="M697 264c-10 -27 -212 -235 -336 -262c-23 -5 -45 -10 -67 -14c-75 17 -95 39 -95 104c0 49 60 147 118 195c19 13 47 34 84 63c33 16 43 18 99 28l38 -10c4 -8 9 -13 16 -15c1 -7 3 -13 6 -19c-19 -69 -69 -101 -268 -166c-15 -31 -23 -60 -23 -87c0 -13 4 -24 12 -32
c5 -17 20 -26 47 -26c71 0 188 81 350 243l10 4l6 -2v-4h3zM501 335c-5 5 -7 10 -7 16c-9 0 -11 0 -14 5c-49 -7 -76 -35 -172 -155c116 28 180 72 193 134z" />
    <glyph glyph-name="f" unicode="f" horiz-adv-x="223" 
d="M827 677c0 -26 -30 -64 -52 -64c-1 0 -4 1 -8 2c0 -2 0 -2 -1 -2c-2 0 -3 1 -3 2c0 2 0 3 1 5l-3 7l2 5c-6 12 -7 18 -7 37c-4 11 -7 20 -8 29c-8 3 -13 9 -15 17l-20 6c-64 -16 -100 -48 -293 -359l212 2c2 -2 5 -3 7 -3s5 0 7 2v-2c0 -3 1 -3 4 -3l4 2l2 -5l-2 -6
c-7 -4 -15 -6 -24 -6h-220l-241 -422c-11 -12 -15 -18 -39 -61c-15 -19 -38 -48 -68 -87c-17 -10 -31 -22 -43 -37c-75 -49 -100 -59 -151 -59c-13 0 -42 7 -86 22c-10 9 -26 23 -47 43l-6 41c0 17 5 40 14 71c33 39 59 50 102 50c3 2 6 3 9 3l19 -9l-2 -6l2 -1l-2 -3
c-15 0 -48 -8 -65 -48c0 -12 -2 -25 -7 -39l13 -55c12 -10 23 -21 33 -33c14 -5 31 -9 48 -13c75 18 85 25 159 122c2 11 7 19 15 25c4 4 9 12 15 24l256 472c-66 3 -66 3 -75 8c1 2 3 5 4 8l7 4h77c183 284 282 380 396 380c3 0 18 -3 46 -10c7 -9 15 -18 25 -25
c2 -13 5 -23 9 -31z" />
    <glyph glyph-name="g" unicode="g" 
d="M812 255l-3 -3l2 -2c-177 -201 -216 -223 -346 -260c-125 -200 -267 -313 -437 -313c-26 0 -35 2 -115 29c-12 14 -25 27 -39 39c-6 21 -11 40 -14 55c1 5 4 18 8 41c9 9 15 19 19 30c22 17 49 31 78 40c2 3 4 4 7 4c2 0 4 -1 7 -3c4 2 7 2 10 2c8 0 14 -3 19 -9l1 -5
l2 -1l-2 -1l-1 -6c-17 -4 -33 -9 -47 -16c-6 -10 -13 -20 -21 -28c-1 -9 -4 -23 -9 -42l13 -51c30 -36 58 -55 105 -55c11 0 37 6 79 17c8 9 19 15 33 17c19 17 48 40 88 71c9 17 21 30 37 39c54 68 77 104 147 212c-64 -42 -91 -57 -154 -68c-52 12 -68 27 -68 94
c0 73 95 207 190 260c31 17 70 29 117 36c6 -2 17 -4 33 -6c5 -6 11 -11 19 -14l16 -34v-20l38 58l80 6l-228 -353c59 0 141 53 244 157c42 52 73 85 84 89l2 -3l3 2l2 -2l-1 -3h2zM552 310l-4 12c-3 2 -3 3 -3 13c-8 6 -13 11 -16 17c-6 1 -11 2 -17 4
c-66 -12 -106 -40 -168 -134c-41 -61 -62 -112 -62 -153l-2 -2c0 -23 17 -52 30 -52c73 0 194 127 230 234c2 15 6 35 12 61z" />
    <glyph glyph-name="h" unicode="h" 
d="M806 264c-1 0 -2 -5 -5 -14c-174 -209 -222 -242 -309 -262c-66 25 -72 28 -72 71c0 26 22 64 146 254c2 10 4 18 7 25l-3 2l2 3l-6 10c-2 -1 -3 -1 -4 -1c-2 0 -4 1 -6 4c-135 -24 -274 -233 -340 -350l-80 -6l462 741l80 7l-291 -468c84 68 94 76 135 91
c15 0 28 2 40 7c13 -4 24 -7 33 -8c9 -9 18 -18 27 -26l6 -26c-5 -11 -7 -21 -7 -33c-145 -236 -147 -241 -147 -246c0 -8 1 -13 3 -16l-2 -3l3 -5h4c1 -4 5 -7 10 -7c58 17 115 44 295 256l13 8l4 -2l-1 -2z" />
    <glyph glyph-name="i" unicode="i" horiz-adv-x="244" 
d="M539 519l-6 -20c-15 -14 -25 -20 -29 -20c-2 0 -2 0 -6 1c-3 -1 -5 -1 -7 -1c-14 0 -38 23 -35 38l2 2c-1 2 -1 4 -1 6c0 18 13 24 41 33c7 -4 12 -5 20 -5c4 -7 9 -11 15 -14zM569 260l-3 -3l2 -2l-5 -7c-113 -130 -183 -209 -281 -253c-13 0 -26 -2 -37 -7
c-31 7 -61 16 -61 52s14 75 42 117l134 205l77 6l-157 -246c-34 -53 -42 -68 -45 -94c-1 -1 -2 -3 -2 -5c0 -6 15 -13 28 -13c27 0 58 24 154 105c27 28 98 104 138 149l9 4l5 -2z" />
    <glyph glyph-name="j" unicode="j" horiz-adv-x="325" 
d="M597 519l-6 -20c-16 -14 -25 -20 -29 -20c-2 0 -2 0 -6 1c-3 -1 -5 -1 -7 -1c-14 0 -38 22 -35 38l2 2c0 22 0 27 40 39c7 -4 13 -5 20 -5c4 -7 9 -11 15 -14zM645 267l-3 -7c-106 -164 -209 -239 -363 -270c-18 -19 -33 -40 -45 -63c-12 -7 -20 -18 -23 -31
c-99 -129 -232 -219 -327 -219c-8 0 -33 5 -74 16c-13 11 -26 20 -38 27l-26 48c0 16 0 20 -5 30c7 65 52 102 116 102c5 0 5 0 26 -9l1 -6c-2 -4 -2 -4 -6 -6c-59 -6 -68 -31 -79 -85c3 -11 7 -29 14 -50c13 -9 24 -20 33 -31c12 -3 30 -8 52 -13c108 14 192 102 396 428
c46 73 83 136 111 190c-28 -11 -76 -49 -92 -73l-13 -9v2h-5l-1 8c0 14 63 72 92 85c13 7 42 16 88 26l22 5c-71 -124 -140 -243 -208 -356c160 39 228 117 348 266l5 2v-2l3 1c-1 -1 -1 -2 -1 -4s0 -2 2 -2z" />
    <glyph glyph-name="k" unicode="k" 
d="M809 267c0 -25 -204 -247 -289 -270c-11 -2 -27 -5 -48 -9c-56 8 -74 24 -75 67c0 31 24 85 51 123l2 9c-3 0 -5 2 -5 5l2 4h-3c-3 0 -5 2 -6 5c-17 -7 -18 -7 -70 -7c-2 2 -5 5 -9 8l2 3c0 5 5 11 16 18l78 -1c23 0 71 35 90 69c0 9 2 18 7 27c-2 5 -3 9 -4 13l-10 10
c-2 -1 -4 -2 -6 -2s-4 1 -6 3c-90 -13 -195 -122 -326 -336l-80 -6l471 741l83 7l-297 -464c76 64 118 87 181 94c11 -4 23 -7 36 -9c6 -9 13 -15 21 -20c0 -11 2 -21 7 -29c-5 -9 -7 -19 -7 -29c-25 -43 -89 -82 -142 -88l16 -16c0 -8 1 -10 7 -12c0 -16 1 -19 4 -25
c-5 -37 -6 -43 -17 -68c-13 -32 -13 -37 -13 -64c-2 -1 -3 -2 -3 -3s2 -2 8 -2c1 -3 3 -5 6 -5c39 0 137 65 197 129c49 60 117 135 129 135l-1 -4z" />
    <glyph glyph-name="l" unicode="l" horiz-adv-x="244" 
d="M679 748l-418 -663c-22 -34 -22 -37 -22 -57c-2 -1 -3 -3 -3 -5l17 -15c77 22 94 27 298 259l7 4l4 -2l-3 -4l4 -1c-3 -2 -4 -6 -4 -9c-94 -124 -218 -246 -267 -257l-44 -10c-45 6 -64 26 -64 50c0 31 14 69 43 114l376 589z" />
    <glyph glyph-name="m" unicode="m" horiz-adv-x="711" 
d="M1035 267c-5 -24 -160 -228 -265 -265c-8 -3 -28 -8 -58 -14c-51 13 -66 40 -66 58c0 37 30 93 89 166c30 38 61 86 70 105l5 16c-5 4 -7 9 -7 17c-5 1 -11 2 -17 6c-102 -26 -221 -146 -336 -350l-81 -6l156 249c41 62 46 70 50 91l-1 7l-5 1l-1 4c-3 0 -9 2 -15 4
c-109 -16 -227 -135 -347 -350l-78 -6l231 362l79 6l-62 -94c84 75 123 96 184 104c12 -4 23 -7 33 -9c5 -8 11 -14 18 -17l8 -30c-4 -15 -7 -29 -9 -44l-12 -23c81 75 123 110 204 123c7 -5 17 -7 28 -7c5 -10 13 -18 23 -23c1 -10 4 -22 9 -35c-4 -9 -5 -16 -5 -25
c-12 -24 -13 -25 -94 -143c-43 -62 -65 -100 -65 -113c0 -6 1 -10 3 -12l-2 -3c3 -3 5 -5 7 -5l12 -3c88 15 156 72 272 221c9 14 22 28 39 44l4 -1z" />
    <glyph glyph-name="n" unicode="n" 
d="M813 265c-4 -1 -6 -3 -6 -4s1 -3 3 -4l-7 -9c-109 -144 -192 -226 -249 -246c-8 -3 -29 -8 -61 -14c-47 7 -70 28 -70 65c0 42 26 83 166 276l3 11c-4 3 -5 6 -5 10l-22 6c-106 -11 -201 -103 -356 -350l-81 -6l237 362l79 6l-65 -93c99 88 139 95 197 103l32 -8
c10 -11 18 -18 24 -23c2 -12 5 -21 9 -29c-7 -44 -7 -44 -133 -219c-22 -35 -29 -50 -29 -69c-2 -2 -3 -5 -3 -7c0 -6 3 -10 10 -10c2 -3 5 -4 10 -4c84 12 212 126 298 258v2c1 1 7 3 14 5v-2h3z" />
    <glyph glyph-name="o" unicode="o" 
d="M811 259c-4 -4 -7 -7 -7 -12c-38 -38 -67 -51 -120 -51c-21 0 -55 16 -70 34c-8 3 -14 8 -18 14c-38 -109 -128 -204 -229 -241c-11 -4 -34 -9 -71 -15l-48 12c-25 7 -43 42 -43 85c0 124 174 293 300 293c1 0 19 -4 55 -12c6 -8 14 -15 24 -19c7 -14 12 -32 19 -60
c10 -32 51 -68 85 -68c27 0 66 16 118 47c3 -2 4 -5 5 -7zM532 310c-5 8 -7 18 -7 29c-5 3 -8 7 -12 11l-24 6c-52 -13 -53 -14 -87 -50c-79 -83 -121 -164 -126 -242l-2 -2c0 -29 16 -54 35 -54c77 0 188 132 214 251c1 11 4 28 9 51z" />
    <glyph glyph-name="p" unicode="p" horiz-adv-x="467" 
d="M797 263l-3 -3l3 -2c-63 -78 -169 -144 -257 -160c-7 -6 -11 -7 -29 -7c-78 -70 -146 -103 -199 -103l-29 6c-11 11 -16 18 -16 21c0 65 127 89 200 97c41 58 67 121 78 188c-4 12 -7 23 -9 33c-5 2 -9 5 -11 10c-5 1 -12 3 -21 6c-79 -10 -131 -70 -269 -301l-225 -373
l-77 -6l548 903l78 6l-162 -266c19 19 24 22 87 59c13 1 27 4 45 7c17 -6 32 -9 45 -11c8 -10 17 -19 27 -27c6 -19 10 -37 14 -54c-5 -15 -7 -31 -7 -49c-15 -38 -37 -77 -68 -118c104 34 107 34 249 151l4 -1v-5zM451 85c-97 -15 -146 -35 -146 -60c0 -4 2 -8 8 -13
c18 -2 27 -3 27 -4h-2c20 0 71 35 113 77z" />
    <glyph glyph-name="q" unicode="q" 
d="M814 269c-3 -1 -4 -5 -5 -10c-114 -146 -225 -225 -372 -265l-207 -319l-77 -6l244 383c-77 -52 -81 -53 -145 -64c-60 10 -75 24 -75 92c0 15 0 16 36 99c37 77 108 139 214 188c5 2 26 6 63 11c10 -5 19 -5 31 -5c5 -5 12 -9 21 -14l12 -16c1 -10 4 -20 8 -30l31 49
l81 6l-223 -350c135 48 208 98 344 248c5 2 11 4 16 7l2 -2l-2 -2h3zM526 308c-4 9 -7 19 -9 30c-7 2 -11 6 -13 13c-8 0 -14 0 -21 5c-14 -6 -27 -9 -40 -11c-79 -50 -134 -109 -167 -178c-27 -74 -27 -75 -27 -99l-2 -5c0 -12 11 -38 20 -38h3c2 -2 4 -4 7 -4
c67 0 209 125 237 234c5 17 9 35 12 53z" />
    <glyph glyph-name="r" unicode="r" horiz-adv-x="386" 
d="M707 268c-13 -35 -116 -59 -158 -59c-25 0 -61 23 -70 45c-5 10 -5 17 -5 55c-93 -57 -172 -148 -265 -303l-76 -6l229 362l75 6l-81 -128c10 9 53 45 163 134l48 4l7 -2l2 -5c-3 -3 -5 -7 -5 -11c-21 -34 -31 -65 -31 -95c-2 -2 -3 -4 -3 -6s1 -5 4 -7
c3 -13 14 -19 33 -19c27 0 99 22 114 37l12 4l2 -3l3 2z" />
    <glyph glyph-name="s" unicode="s" horiz-adv-x="345" 
d="M670 257l-4 -6c-4 -25 -175 -263 -389 -263c-69 0 -128 45 -128 102c0 49 21 77 72 91c14 -6 25 -12 33 -16c0 -10 2 -19 7 -25c-9 -33 -12 -40 -29 -40l-5 -2l-3 3c-7 0 -11 2 -14 7l2 2c-2 -7 -6 -34 -6 -36c0 -5 2 -10 5 -14c0 -25 31 -49 67 -50c18 0 38 14 60 43
c5 20 10 42 15 66c-5 13 -5 23 -5 37c-8 9 -13 19 -15 31c-20 27 -21 39 -26 87c0 35 39 88 71 94c12 2 29 5 52 10c12 -3 31 -7 56 -11c12 -10 24 -20 37 -28c4 -14 7 -27 11 -37c-10 -40 -25 -60 -46 -60c-26 6 -31 9 -31 22c0 2 1 4 3 6c0 15 0 19 3 27l-6 36
c-6 4 -11 10 -14 17c-5 1 -11 2 -17 6l-22 -8c-21 -22 -29 -53 -29 -72c0 -21 6 -40 19 -57c3 -16 9 -30 19 -43c10 -42 10 -43 10 -49c0 -41 -21 -77 -63 -109c125 41 217 136 299 245l10 -2z" />
    <glyph glyph-name="t" unicode="t" horiz-adv-x="304" 
d="M631 257c-169 -204 -246 -249 -365 -269c-56 11 -58 14 -74 70c0 38 10 56 54 125l102 160l-41 2l-5 -2l-3 3l-5 2c1 5 4 10 10 14h56l84 131l79 6l-84 -137c45 -2 65 -2 82 -2c16 0 29 2 39 4l7 -2v-2l3 1v-6l-13 -11l-24 -1h-109l-143 -222c-21 -33 -32 -61 -32 -85
c0 -17 10 -26 30 -26c77 0 146 55 310 221c19 24 30 35 36 35c4 -4 4 -4 6 -9z" />
    <glyph glyph-name="u" unicode="u" 
d="M807 258c-5 -29 -174 -217 -283 -263c-14 0 -25 -2 -36 -7c-37 6 -57 19 -59 39c-5 6 -7 13 -7 21c0 1 3 37 4 38c-92 -83 -100 -84 -173 -98c-57 10 -69 21 -69 70c0 22 20 62 61 121l128 183l85 6l-160 -223c-37 -51 -55 -86 -55 -103l4 -23c0 -5 1 -8 4 -8
c2 0 3 1 5 2c1 -4 4 -6 8 -6c3 0 5 1 7 3c62 6 145 82 246 228l86 124l84 6l-174 -261c-26 -40 -34 -61 -34 -81l4 -11l10 -8l5 3c59 0 184 110 296 252c3 1 5 2 7 4c-2 0 -2 0 -2 -2s1 -3 2 -3s3 1 5 2l-3 -4z" />
    <glyph glyph-name="v" unicode="v" 
d="M812 263c-11 -33 -72 -66 -135 -66c-20 0 -60 17 -75 32c-54 -125 -206 -241 -310 -241c-50 0 -94 39 -94 74c0 58 27 111 160 300l85 6l2 2c-49 -53 -128 -171 -171 -255c-11 -21 -16 -45 -16 -71c0 -19 23 -34 45 -34c83 0 218 148 244 286c-1 2 -1 5 -2 14
c-5 4 -7 10 -7 17c0 29 12 46 37 51l16 -4l22 -28c1 -9 3 -22 6 -39c-2 -4 -4 -7 -4 -11c0 -3 1 -7 3 -10c-1 -1 -9 -20 -9 -30l8 -5c9 -14 47 -31 64 -31c45 0 85 16 122 48v-2l7 3z" />
    <glyph glyph-name="w" unicode="w" horiz-adv-x="731" 
d="M1050 258c0 -18 -74 -59 -99 -59c-6 0 -11 1 -16 2c-4 -1 -9 -2 -14 -2c-12 0 -50 13 -65 26c-50 -115 -209 -237 -315 -237c-51 0 -89 34 -89 94c0 5 1 9 3 12c-24 -30 -62 -61 -114 -92c-3 -2 -24 -7 -63 -14c-67 16 -80 29 -80 80c0 66 61 164 183 294l93 6
c-137 -152 -217 -270 -217 -317c0 -28 11 -41 33 -41c82 0 167 104 321 352l94 8c-105 -119 -192 -258 -192 -317c0 -28 13 -43 38 -43c81 0 200 117 237 236c2 12 5 31 10 54c-10 33 -11 34 -11 37c0 17 5 30 15 38l15 3c6 -5 8 -5 18 -5l20 -22c6 -17 10 -38 14 -62
c-1 -2 -2 -9 -7 -40l15 -7c11 -14 35 -20 71 -20c14 0 46 14 95 43l5 -2z" />
    <glyph glyph-name="x" unicode="x" horiz-adv-x="528" 
d="M853 257c-12 -47 -196 -221 -288 -255c-14 -5 -38 -10 -72 -14c-67 11 -75 23 -75 89c-72 -64 -121 -89 -176 -89c-64 0 -115 37 -115 85c0 32 12 57 37 75c10 2 18 4 25 6l28 -10c5 -9 10 -19 14 -28c0 -25 -22 -44 -47 -44c-4 0 -10 3 -18 9c-3 -9 -3 -13 -3 -15
c0 -32 29 -56 67 -56c98 0 233 140 254 290c-5 6 -7 14 -7 23c-10 7 -21 13 -35 19c-37 0 -60 -22 -133 -97v2c-8 4 -8 4 -8 5c0 17 63 78 113 115c17 3 33 6 46 11c9 -5 20 -7 34 -7c6 -6 16 -13 28 -21c7 -14 14 -35 23 -63c78 73 81 74 174 91c17 -6 33 -9 47 -11
c6 -9 13 -15 21 -20c0 -9 3 -16 7 -23c-8 -38 -22 -55 -57 -55l-5 -2l-3 3l-5 1l-3 11c0 9 3 18 7 26c-1 6 -1 12 3 20c-6 7 -7 10 -7 21c-7 0 -13 2 -18 7c-73 -15 -123 -58 -175 -146c-35 -58 -48 -93 -48 -142c0 -30 19 -43 53 -46c53 0 174 93 277 213
c14 15 26 24 34 28l5 -2l-2 -4h3z" />
    <glyph glyph-name="y" unicode="y" 
d="M815 268c-6 -9 -8 -15 -8 -16c-91 -126 -276 -255 -376 -262c-165 -235 -231 -280 -433 -313c-24 0 -33 2 -106 28c-14 16 -29 31 -45 45c-5 16 -11 35 -16 56c9 53 17 68 50 87c20 11 37 16 54 16l28 1c9 -2 16 -3 19 -5l-3 -9c-2 0 -18 -6 -48 -17
c-30 -32 -32 -35 -39 -75l12 -46l40 -38c31 -13 55 -20 72 -20c116 0 231 111 409 398c-103 -93 -110 -95 -182 -110c-49 11 -55 14 -59 30c-5 5 -8 12 -8 19c0 33 16 73 48 120l140 205l88 6l-175 -251c-26 -34 -35 -51 -35 -70c-2 -2 -4 -4 -4 -6c0 -3 2 -5 7 -5
c0 -9 0 -11 4 -11c1 0 3 1 5 2c11 -3 17 -4 20 -4c57 0 178 113 319 339l82 6l-233 -360c153 51 224 111 361 267l4 1l2 -3l3 2v-3h2l-2 -3z" />
    <glyph glyph-name="z" unicode="z" horiz-adv-x="426" 
d="M757 271l-3 -6h2c-64 -108 -214 -256 -276 -270c-7 -1 -18 -3 -33 -7c-29 0 -43 5 -125 46c-9 2 -21 5 -37 10l-5 -3l-4 2c-12 -6 -27 -17 -69 -51l-2 -1c-2 1 -6 4 -9 7c1 6 4 14 10 24c51 36 55 39 105 83l225 186l-8 2c-25 0 -59 10 -93 26h-4c-6 0 -12 1 -19 5
c-38 -11 -44 -17 -83 -70c-1 -8 -2 -9 -12 -9c-1 -1 -3 -2 -4 -2v3c0 -1 -1 -2 -3 -2v6h-2v7c48 75 93 116 129 116c8 0 16 2 25 5l110 -36c1 0 3 1 6 2c21 -3 40 8 77 46c1 1 8 4 20 9l3 -3l2 -7c-7 -17 -7 -17 -46 -49l-307 -251c14 -5 30 -7 47 -7
c30 -18 100 -42 127 -42c44 0 119 80 246 238l4 1v-2l3 1c-1 -1 -1 -2 -1 -5z" />
    <glyph glyph-name="braceleft" unicode="{" 
d="M988 830l-14 -25c-182 -32 -203 -74 -269 -264c-62 -162 -109 -193 -293 -249c18 -7 37 -23 58 -46c11 -33 17 -53 17 -60c0 -65 -32 -117 -133 -240c-31 -38 -46 -65 -46 -79c0 -33 30 -66 91 -98l-14 -27l-56 20c-61 8 -103 56 -103 118c0 22 18 66 47 102
c24 24 104 137 119 167c5 10 10 28 16 55c-5 15 -9 29 -14 41c-13 7 -27 17 -44 29l15 30c29 8 77 32 133 66c29 24 54 62 76 114c105 295 168 346 414 346z" />
    <glyph glyph-name="braceright" unicode="}" 
d="M840 707c0 -34 -11 -64 -46 -115c-99 -126 -135 -187 -135 -226c0 -31 18 -56 54 -74l-11 -25c-145 -64 -155 -69 -211 -181c-23 -47 -40 -90 -52 -131c-9 -11 -15 -25 -17 -41c-78 -124 -157 -172 -347 -172l18 29c129 23 150 43 209 112c3 9 10 22 18 39
c97 265 125 295 335 357c-51 28 -76 59 -76 92c0 81 32 128 139 267c20 26 34 52 41 77c-4 10 -7 21 -10 33l-32 30c-16 6 -34 14 -53 25l14 27c13 -1 17 -2 90 -24c24 -15 44 -31 58 -48c9 -32 14 -48 14 -51z" />
    <glyph glyph-name="exclamdown" unicode="&#xa1;" horiz-adv-x="528" 
d="M609 331c-3 -10 -5 -17 -6 -23c-21 -22 -26 -24 -41 -24c-26 0 -49 23 -49 42l2 5c0 24 16 40 47 47l24 -6c3 -8 9 -14 17 -17zM500 227c-3 -11 -10 -24 -21 -39c-43 -66 -135 -236 -167 -321c-8 -18 -16 -32 -25 -43c-12 -5 -24 -9 -35 -15c-39 10 -39 10 -46 54
c0 15 31 54 83 110c6 0 83 104 145 200c16 25 31 45 44 58c5 0 9 3 12 7v-1h3c-2 0 -2 0 -2 -1c0 -2 1 -3 3 -3h4c-1 -1 -2 -2 -2 -4l2 -4z" />
    <glyph glyph-name="cent" unicode="&#xa2;" horiz-adv-x="406" 
d="M597 560c-12 -21 -28 -49 -49 -84h8c8 -8 18 -14 29 -17c3 -11 6 -20 11 -27c-13 -47 -28 -51 -54 -56c-6 0 -16 11 -16 13c0 1 1 4 2 6c-2 1 -3 3 -3 6l6 20c-2 3 -4 11 -6 19l-206 -335l17 -1c55 0 135 46 215 126l6 2c-1 -1 -2 -1 -2 -2s1 -2 3 -2l5 1l-1 -3h2
c-22 -48 -167 -146 -261 -146l-39 -65c-8 -13 -10 -16 -18 -18c0 1 -3 2 -7 4c0 6 3 13 45 82l-9 4c-23 1 -39 12 -49 33c-10 10 -16 24 -16 40c0 66 19 117 83 193c35 42 71 71 107 89l56 28c6 3 21 5 73 10l43 67c1 6 5 12 11 18l6 2c-1 0 -1 -1 -1 -2s1 -2 2 -2l5 1z
M515 456l-16 2c-11 -4 -22 -6 -32 -6c-92 -42 -186 -194 -186 -300c0 -7 10 -21 22 -39z" />
    <glyph glyph-name="sterling" unicode="&#xa3;" horiz-adv-x="589" 
d="M810 483l-10 -38c-19 -26 -46 -38 -80 -38c-16 -1 -63 23 -63 35h-4l2 10l4 1l6 -1c7 -6 15 -9 25 -9c44 0 72 19 82 57c-4 8 -6 16 -8 23c-11 8 -20 16 -27 24c-14 0 -26 2 -36 7c-91 -12 -120 -59 -208 -282c137 0 137 0 147 2c8 -2 10 -3 12 -5l-3 -4l4 -2l-2 -6
c-6 -5 -9 -8 -10 -8c-18 0 -146 2 -156 3c-56 -106 -104 -175 -145 -206c79 -23 91 -25 117 -25c98 0 173 37 192 90l14 56c2 4 5 6 9 8c1 -3 4 -5 9 -7l-3 -4l4 -3c-14 -84 -34 -127 -93 -161c-28 -17 -57 -25 -86 -25c-52 0 -144 24 -186 55c-23 -14 -64 -28 -125 -42
c-60 9 -76 23 -76 62c0 28 36 53 72 53c3 0 16 -2 38 -6c17 -7 41 -18 73 -33c44 52 76 114 98 186c-75 0 -119 1 -132 4c0 -1 -1 -2 -3 -2l-2 7c0 4 2 8 7 13l140 2c6 28 76 204 131 242l50 36c44 18 72 25 98 25c8 0 31 -5 70 -16c12 -10 26 -22 43 -38
c2 -14 6 -27 11 -40zM281 46c-15 6 -30 14 -44 25c-17 2 -32 5 -47 9c-3 -2 -6 -3 -10 -3c-2 0 -5 1 -6 2c-3 -3 -10 -6 -19 -11c-6 -15 -9 -24 -9 -26c0 -19 28 -32 54 -32c31 0 34 2 81 36z" />
    <glyph glyph-name="yen" unicode="&#xa5;" horiz-adv-x="894" 
d="M1198 748l-412 -639c-33 -53 -72 -110 -125 -184h96l-24 -37h-101l-41 -46h111l-25 -38h-121c-121 -104 -187 -139 -278 -139c-116 0 -190 62 -190 160c0 55 61 109 128 109c36 0 62 -9 79 -25c1 -3 2 -6 5 -11l-2 -9h-3l-3 -2c0 1 -4 5 -6 5c-1 0 -1 -1 -2 -2
c-10 9 -22 14 -35 14c-54 0 -89 -39 -89 -100c0 -36 25 -79 54 -95c10 -6 60 -20 70 -20c64 0 146 48 202 115h-100l25 38h110l38 46h-119l25 37h120c36 53 80 126 130 218c-140 -128 -172 -135 -271 -155c-76 18 -88 30 -88 81c0 37 30 102 92 194c231 322 263 373 263 419
c0 3 -1 8 -4 20c-6 4 -11 10 -14 17c-13 6 -28 11 -46 14c-100 -23 -153 -39 -237 -142c-43 -53 -65 -103 -65 -151c0 -28 34 -50 75 -50c27 0 30 3 118 76l3 1v-3c0 -2 1 -2 3 -2l5 2l-2 -5c3 -4 3 -5 5 -6c-49 -62 -87 -80 -162 -88c-33 0 -68 36 -68 71
c0 128 136 280 274 310c6 2 28 6 66 12l62 -12c18 -14 32 -27 42 -38l10 -36c-8 -71 -12 -79 -216 -371l-88 -128c-24 -36 -52 -90 -52 -104c0 -4 1 -8 2 -12c-2 -2 -2 -5 -2 -8c0 -10 24 -32 36 -32c130 0 294 157 493 473c37 55 91 139 162 251z" />
    <glyph glyph-name="ordfeminine" unicode="&#xaa;" horiz-adv-x="447" 
d="M725 503c-5 -9 -8 -15 -8 -16c-81 -125 -181 -207 -238 -207c-13 0 -37 21 -37 36c0 3 2 10 4 19c-24 -23 -76 -56 -95 -56c-24 0 -60 9 -60 31c-8 9 -12 21 -12 34c0 101 113 229 203 233c11 -4 21 -7 30 -9c15 -17 24 -32 26 -46l26 38h63l-114 -183
c-16 -26 -24 -43 -24 -51c-1 -1 -2 -3 -2 -4c0 -4 12 -11 19 -11c31 0 97 63 205 196c3 2 7 3 10 3v-2h3l-3 -4zM521 515l-6 24l-10 10c-8 0 -13 0 -19 5c-71 -11 -151 -126 -151 -213c0 -15 13 -29 29 -29l-2 -2c34 0 112 83 147 153c4 7 7 24 12 52z" />
    <glyph glyph-name="guillemotleft" unicode="&#xab;" 
d="M617 321l-82 -126l42 -152h-40l-42 152l82 126h40zM511 321l-82 -126l42 -152h-40l-41 152l81 126h40z" />
    <glyph glyph-name="logicalnot" unicode="&#xac;" horiz-adv-x="589" 
d="M689 83h-33v207h-413v33h446v-240z" />
    <glyph glyph-name="degree" unicode="&#xb0;" horiz-adv-x="406" 
d="M593 425c0 -81 -70 -151 -152 -151s-153 69 -153 149l2 2c4 93 42 127 151 152c16 0 41 -7 76 -21c19 -18 37 -36 55 -55c14 -35 21 -60 21 -76zM559 425c-4 13 -9 32 -15 59c-14 15 -29 30 -44 44c-17 4 -37 9 -59 15c-75 -10 -110 -42 -118 -118l-2 -2
c0 -63 56 -116 120 -116c40 0 87 27 103 59c4 8 9 28 15 59z" />
    <glyph glyph-name="twosuperior" unicode="&#xb2;" horiz-adv-x="345" 
d="M564 484c0 -77 -58 -106 -255 -192l2 2c29 -4 68 -16 100 -32c8 -3 15 -5 21 -5c12 0 12 0 78 84l11 4l-1 -4c1 0 3 0 5 1l2 -5l-5 -9c-16 -43 -87 -104 -122 -104c-36 0 -47 4 -106 33c-6 1 -14 3 -25 6c-11 -2 -12 -2 -72 -37l-3 4c-1 -1 -1 -1 -2 -1s-2 1 -2 2
c0 25 22 36 267 162c14 10 28 24 40 43c2 13 5 27 11 44c-4 12 -7 24 -8 35c-10 5 -17 13 -21 23l-32 9c-30 0 -65 -28 -65 -54s13 -54 27 -54v-2c7 2 14 7 22 15l7 7v-2h3l2 -7l-3 -10c-14 -23 -37 -34 -70 -34c-6 0 -12 3 -17 8c-15 0 -26 24 -26 53c0 55 72 102 145 103
c14 -4 29 -7 44 -9l36 -28c8 -26 12 -42 12 -49z" />
    <glyph glyph-name="threesuperior" unicode="&#xb3;" horiz-adv-x="345" 
d="M607 502c-6 -45 -41 -77 -105 -97l2 2c0 -7 1 -11 11 -11c9 -19 17 -37 23 -53c-15 -78 -75 -118 -176 -118c-71 0 -131 39 -131 78c0 23 12 45 35 66c13 2 25 6 36 9l30 -8l8 -8l3 -8c-2 -4 -5 -8 -9 -11l-3 2c-5 -3 -9 -4 -14 -4c-4 0 -7 1 -10 3
c-13 -6 -20 -20 -20 -43c0 -27 40 -54 69 -54c73 0 106 24 125 90c-4 12 -12 26 -22 43c-29 9 -44 11 -63 11l-3 2h-5l-3 9c2 6 3 7 7 11c2 -1 3 -2 5 -2s5 1 7 3c121 17 133 24 147 79c-5 8 -7 16 -7 26c-10 4 -17 11 -21 21c-11 0 -21 2 -28 7c-10 -3 -19 -5 -25 -6
c-16 -15 -25 -24 -25 -27c1 -1 1 -1 2 -5c-1 -2 -2 -5 -2 -6c0 -8 3 -12 32 -21c3 0 6 1 11 3l2 -4c-12 -28 -31 -34 -66 -34c-16 0 -34 21 -34 45c0 41 72 78 128 78l53 -13l26 -22c1 -6 5 -17 10 -33z" />
    <glyph glyph-name="onesuperior" unicode="&#xb9;" horiz-adv-x="264" 
d="M530 565l-208 -328l-63 -6l164 256c-34 -18 -99 -43 -111 -43c-2 3 -3 6 -4 10c0 3 2 5 4 9c72 24 166 70 202 102c3 1 7 3 13 4l-1 -2z" />
    <glyph glyph-name="ordmasculine" unicode="&#xba;" horiz-adv-x="365" 
d="M707 537c-19 -20 -63 -47 -79 -47c-20 0 -36 4 -43 9c-4 -10 -5 -17 -5 -29c-38 -99 -59 -121 -196 -184c-9 -5 -16 -7 -22 -7c-42 0 -66 12 -73 37c-8 8 -12 18 -12 30c0 94 78 183 193 223c1 1 16 3 43 8c10 -4 21 -7 32 -9c8 -11 18 -21 29 -29c0 -6 1 -10 3 -13
c22 -8 38 -13 48 -13c8 0 17 5 74 38l4 -2v-4c0 -5 1 -8 4 -8zM529 522c-2 9 -2 12 -2 13c-7 3 -12 8 -13 15c-6 1 -11 2 -17 4c-51 -13 -65 -25 -112 -96c-36 -53 -51 -83 -51 -120l-2 -2c0 -8 2 -15 7 -18c0 -6 1 -8 2 -8s2 1 3 1c5 -5 11 -8 19 -8c56 0 166 146 166 219z
" />
    <glyph glyph-name="guillemotright" unicode="&#xbb;" 
d="M611 170l-82 -127h-39l81 127l-41 151h39zM505 170l-81 -127h-40l81 127l-41 151h40z" />
    <glyph glyph-name="onequarter" unicode="&#xbc;" horiz-adv-x="975" 
d="M1015 309l-110 -174l54 2c1 -2 3 -3 5 -3l6 2l5 -2c-1 -1 -2 -3 -2 -5l2 -3h2c-7 -11 -18 -16 -31 -16h-55l-67 -104l-66 -6l69 110l-130 2c-3 -2 -6 -3 -9 -3c-2 0 -7 2 -15 6l-2 4c2 6 9 14 22 25l285 241l24 2c1 -2 2 -4 4 -4l4 3l3 -4l-9 -11l-288 -236h126l108 167z
M910 575l-495 -589h-47l494 589h48zM613 565l-208 -328l-63 -6l164 256c-13 -7 -96 -43 -111 -43c-2 2 -3 6 -4 10c0 3 2 5 4 9c73 24 164 70 202 102c3 1 7 3 13 4v-2z" />
    <glyph glyph-name="onehalf" unicode="&#xbd;" horiz-adv-x="975" 
d="M1033 253c0 -73 -39 -98 -255 -192l2 2c10 -5 22 -7 36 -7c17 -9 74 -30 84 -31c23 9 32 16 70 74c2 4 5 8 9 11l11 4c3 -2 5 -5 6 -8l-5 -9c-13 -43 -86 -102 -129 -102c-30 3 -63 13 -99 31c-6 1 -14 3 -25 6c-14 -2 -15 -3 -57 -30h-4c-4 0 -7 -2 -7 -5
c-5 2 -7 3 -11 3c0 25 33 44 166 107c93 44 117 62 141 98c2 13 6 28 11 43l-8 36c-10 5 -17 12 -21 23l-32 9c-32 0 -65 -33 -65 -55l8 -39c0 -7 2 -9 9 -9l10 -6c6 0 12 4 28 20l1 -2l3 1l2 -7c-2 -2 -3 -4 -3 -5v-5c-13 -22 -33 -33 -61 -33c-34 0 -52 20 -52 60
c0 28 30 69 55 79l46 18c22 0 28 1 44 5l44 -8l36 -29c8 -26 12 -42 12 -48zM913 575l-495 -589h-47l494 589h48zM614 565l-209 -328l-61 -6l163 256c-21 -11 -53 -24 -95 -39c-2 -3 -4 -5 -7 -5l-10 1l-1 4l-4 1c1 4 3 9 5 14c66 21 80 29 215 106v-2l2 1v-3h2z" />
    <glyph glyph-name="threequarters" unicode="&#xbe;" horiz-adv-x="975" 
d="M1058 309l-110 -174l54 2c1 -2 3 -3 5 -3l6 2l5 -2c-1 -1 -2 -3 -2 -5l2 -3h2l-3 -6c-3 -5 -7 -7 -12 -7c-3 -2 -9 -3 -16 -3h-55l-67 -104l-66 -6l69 110l-130 2c-3 -2 -6 -3 -9 -3c-2 0 -7 2 -15 6l-2 4c1 6 9 14 22 25l285 241l24 2c1 -2 2 -4 4 -4l4 3l3 -4l-9 -11
l-288 -236h126l108 167zM964 575l-494 -589h-48l494 589h48zM672 502c-6 -45 -41 -77 -105 -97l2 2c0 -7 1 -11 11 -11c10 -18 18 -35 23 -53c-14 -58 -34 -82 -93 -103c-27 -10 -55 -15 -83 -15c-67 0 -131 40 -131 78c0 30 11 52 34 66c13 2 25 6 36 9l30 -8
c3 -4 6 -6 9 -8l2 -8l-3 -3l2 -2l-2 -3l-5 -3l-3 2c-5 -3 -9 -4 -14 -4c-3 0 -7 1 -10 3c-14 -6 -20 -20 -20 -43c0 -21 31 -54 70 -54c51 0 102 23 111 50l14 40c-15 45 -29 54 -86 54l-3 2h-5c0 3 -1 6 -3 9l2 6l5 5c1 -1 3 -2 5 -2s4 1 7 3c105 15 115 19 140 54
c0 9 2 17 7 25c-5 8 -7 16 -7 26c-10 4 -17 11 -21 21c-11 0 -19 2 -27 7l-24 -6c-16 -15 -24 -24 -24 -27c0 -18 3 -21 32 -32c3 0 7 1 12 3l2 -4l-7 -14c-18 -15 -35 -21 -60 -21c-14 0 -34 23 -34 37c0 46 62 87 125 87l53 -13l26 -22c1 -7 5 -17 10 -33z" />
    <glyph glyph-name="questiondown" unicode="&#xbf;" horiz-adv-x="609" 
d="M720 331c-3 -10 -5 -17 -6 -23c-21 -22 -26 -24 -41 -24c-23 0 -49 20 -49 45l2 2c0 30 15 37 47 47l24 -6c3 -8 9 -14 17 -17zM628 -8c-4 -18 -7 -35 -9 -51c-12 -14 -22 -30 -29 -49c-70 -61 -116 -83 -182 -83c-17 0 -76 15 -89 21c-41 19 -62 57 -62 116
c0 50 54 116 129 158c168 80 169 80 209 120c1 4 6 9 16 14l9 -4l-2 -4l5 -5c0 -29 -34 -51 -200 -137c-53 -35 -95 -96 -95 -137c0 -48 8 -65 48 -98c13 -4 31 -8 52 -13c26 4 52 11 80 21c9 10 22 19 37 29c7 12 17 25 28 39c1 7 4 25 10 53c-1 3 -2 8 -6 37
c-8 7 -14 16 -17 27c-9 2 -21 7 -38 13c-29 -4 -30 -5 -82 -33l-12 9c11 32 35 45 99 55c13 -5 23 -5 37 -5c19 -13 35 -25 49 -39c3 -8 7 -28 13 -56z" />
    <glyph glyph-name="Agrave" unicode="&#xc0;" horiz-adv-x="935" 
d="M1249 833l-3 -3v-3c-7 -4 -12 -6 -14 -6l-187 70c-18 7 -27 17 -27 31c2 5 5 11 8 21l22 10l16 -4c3 -6 8 -10 15 -11c47 -24 103 -57 167 -97zM1259 261c-35 -71 -237 -273 -336 -273c-60 0 -90 45 -90 136c0 47 16 112 47 194l-136 2c-202 -244 -309 -332 -431 -332
c-62 0 -116 36 -116 79c0 3 4 13 12 31c7 4 17 8 30 13c9 -5 20 -10 33 -14c3 -9 6 -18 10 -27c-3 -16 -10 -29 -22 -38l15 -3c12 -9 34 -13 65 -13c18 0 30 4 88 31c81 38 129 85 377 379c179 209 247 256 429 331v-2c3 0 5 1 8 3l8 -2l2 -4l-27 -32
c-146 -136 -321 -439 -321 -646c0 -31 19 -56 43 -56c64 0 143 69 299 246c4 1 6 3 8 4v-4c1 0 2 0 4 1l-2 -4h3zM1136 694c-106 -56 -200 -142 -376 -353h128c83 153 165 270 248 353z" />
    <glyph glyph-name="Aacute" unicode="&#xc1;" horiz-adv-x="935" 
d="M1251 922c-5 -18 -6 -19 -29 -33l-191 -66l-8 4c-1 -1 -1 -2 -2 -2c-1 1 -2 2 -2 3c2 11 3 14 16 21l153 91c10 6 21 10 33 13l22 -10c1 -6 4 -13 8 -21zM1259 261c-35 -71 -237 -273 -336 -273c-60 0 -90 45 -90 136c0 47 16 112 47 194l-136 2
c-202 -244 -309 -332 -431 -332c-62 0 -116 36 -116 79c0 3 4 13 12 31c7 4 17 8 30 13c9 -5 20 -10 33 -14c3 -9 6 -18 10 -27c-3 -16 -10 -29 -22 -38l15 -3c12 -9 34 -13 65 -13c18 0 30 4 88 31c81 38 129 85 377 379c179 209 247 256 429 331v-2c3 0 5 1 8 3l8 -2l2 -4
l-27 -32c-146 -136 -321 -439 -321 -646c0 -31 19 -56 43 -56c64 0 143 69 299 246c4 1 6 3 8 4v-4c1 0 2 0 4 1l-2 -4h3zM1136 694c-106 -56 -200 -142 -376 -353h128c83 153 165 270 248 353z" />
    <glyph glyph-name="Acircumflex" unicode="&#xc2;" horiz-adv-x="935" 
d="M1248 834c-3 -1 -5 -5 -5 -6s1 -2 2 -2l-7 -3h-4c-8 0 -33 23 -67 61l-175 -63c-4 0 -7 4 -9 13c4 11 14 17 167 96l6 -1l29 2l-1 -1c0 -2 1 -2 10 -2c30 -59 37 -71 53 -87c-2 -1 -3 -2 -3 -3zM1259 261c-35 -71 -237 -273 -336 -273c-60 0 -90 45 -90 136
c0 47 16 112 47 194l-136 2c-202 -244 -309 -332 -431 -332c-62 0 -116 36 -116 79c0 3 4 13 12 31c7 4 17 8 30 13c9 -5 20 -10 33 -14c3 -9 6 -18 10 -27c-3 -16 -10 -29 -22 -38l15 -3c12 -9 34 -13 65 -13c18 0 30 4 88 31c81 38 129 85 377 379
c179 209 247 256 429 331v-2c3 0 5 1 8 3l8 -2l2 -4l-27 -32c-146 -136 -321 -439 -321 -646c0 -31 19 -56 43 -56c64 0 143 69 299 246c4 1 6 3 8 4v-4c1 0 2 0 4 1l-2 -4h3zM1136 694c-106 -56 -200 -142 -376 -353h128c83 153 165 270 248 353z" />
    <glyph glyph-name="Atilde" unicode="&#xc3;" horiz-adv-x="935" 
d="M1387 890l-1 -3c-29 -36 -81 -65 -122 -65c-13 0 -14 0 -104 44l-42 12c-8 -2 -19 -7 -35 -13c-11 -9 -27 -19 -49 -32v2c-1 -1 -2 -1 -4 -2c0 2 -1 4 -3 5c39 57 67 75 119 83c11 -4 19 -5 31 -5c37 -19 112 -49 128 -49c12 0 13 0 75 29l2 -3l3 2zM1259 261
c-35 -71 -237 -273 -336 -273c-60 0 -90 45 -90 136c0 47 16 112 47 194l-136 2c-202 -244 -309 -332 -431 -332c-62 0 -116 36 -116 79c0 3 4 13 12 31c7 4 17 8 30 13c9 -5 20 -10 33 -14c3 -9 6 -18 10 -27c-3 -16 -10 -29 -22 -38l15 -3c12 -9 34 -13 65 -13
c18 0 30 4 88 31c81 38 129 85 377 379c179 209 247 256 429 331v-2c3 0 5 1 8 3l8 -2l2 -4l-27 -32c-146 -136 -321 -439 -321 -646c0 -31 19 -56 43 -56c64 0 143 69 299 246c4 1 6 3 8 4v-4c1 0 2 0 4 1l-2 -4h3zM1136 694c-106 -56 -200 -142 -376 -353h128
c83 153 165 270 248 353z" />
    <glyph glyph-name="Adieresis" unicode="&#xc4;" horiz-adv-x="935" 
d="M1249 897c-5 -8 -7 -16 -7 -23c-15 -22 -29 -33 -42 -33c-24 0 -36 9 -36 27l2 2c14 40 17 43 56 55l20 -8c0 -8 2 -14 7 -20zM1097 897c-10 -39 -29 -56 -49 -56c-23 0 -35 9 -35 27l2 2l10 29l22 20c8 1 16 3 23 6c8 -4 15 -7 21 -8zM1259 261
c-35 -71 -237 -273 -336 -273c-60 0 -90 45 -90 136c0 47 16 112 47 194l-136 2c-202 -244 -309 -332 -431 -332c-62 0 -116 36 -116 79c0 3 4 13 12 31c7 4 17 8 30 13c9 -5 20 -10 33 -14c3 -9 6 -18 10 -27c-3 -16 -10 -29 -22 -38l15 -3c12 -9 34 -13 65 -13
c18 0 30 4 88 31c81 38 129 85 377 379c179 209 247 256 429 331v-2c3 0 5 1 8 3l8 -2l2 -4l-27 -32c-146 -136 -321 -439 -321 -646c0 -31 19 -56 43 -56c64 0 143 69 299 246c4 1 6 3 8 4v-4c1 0 2 0 4 1l-2 -4h3zM1136 694c-106 -56 -200 -142 -376 -353h128
c83 153 165 270 248 353z" />
    <glyph glyph-name="Aring" unicode="&#xc5;" horiz-adv-x="935" 
d="M1315 903c-3 -8 -7 -21 -11 -40c-21 -27 -46 -41 -77 -41c-11 0 -22 4 -32 12c-17 2 -27 12 -29 29c-10 11 -13 21 -13 38l2 2c0 29 20 64 40 70c3 1 16 4 40 10l40 -10c10 -13 19 -23 29 -30c2 -14 6 -27 11 -40zM1259 261c-35 -71 -237 -273 -336 -273
c-60 0 -90 45 -90 136c0 47 16 112 47 194l-136 2c-202 -244 -309 -332 -431 -332c-62 0 -116 36 -116 79c0 3 4 13 12 31c7 4 17 8 30 13c9 -5 20 -10 33 -14c3 -9 6 -18 10 -27c-3 -16 -10 -29 -22 -38l15 -3c12 -9 34 -13 65 -13c18 0 30 4 88 31c81 38 129 85 377 379
c179 209 247 256 429 331v-2c3 0 5 1 8 3l8 -2l2 -4l-27 -32c-146 -136 -321 -439 -321 -646c0 -31 19 -56 43 -56c64 0 143 69 299 246c4 1 6 3 8 4v-4c1 0 2 0 4 1l-2 -4h3zM1289 903c-4 11 -7 20 -8 27c-7 6 -14 13 -19 20c-10 0 -19 2 -27 7c-9 -5 -19 -7 -27 -7
c-18 -12 -27 -28 -27 -47l-2 -2c0 -19 23 -53 47 -53c27 0 51 10 63 55zM1136 694c-106 -56 -200 -142 -376 -353h128c83 153 165 270 248 353z" />
    <glyph glyph-name="AE" unicode="&#xc6;" horiz-adv-x="1118" 
d="M1392 651c-9 -59 -21 -79 -65 -108c-40 -27 -64 -36 -136 -36c-19 0 -24 3 -29 8c-1 0 -2 0 -2 1l3 9l5 3c1 -2 2 -3 4 -3s3 2 5 4c87 4 96 7 129 45c17 19 18 19 30 76c-5 23 -9 40 -13 52c-17 15 -33 27 -47 37c-28 6 -44 8 -48 9c-31 0 -87 -11 -127 -64
c-18 -23 -29 -68 -33 -134c-5 -81 -33 -104 -149 -155c-96 -42 -155 -119 -155 -201c0 -100 81 -176 191 -176c66 0 149 31 184 69c50 56 51 57 58 115c-5 11 -7 24 -7 39c-8 8 -15 18 -23 30l-45 13l-48 -8c-22 -4 -32 -12 -115 -76l-2 3h-5c0 19 60 74 102 93
c17 8 44 15 83 20c14 -4 34 -9 62 -15l40 -40l15 -52c-11 -89 -65 -137 -168 -181c-62 -27 -121 -40 -177 -40c-136 0 -196 60 -218 182c0 62 9 110 26 145h-119c-192 -285 -219 -307 -337 -327c-10 4 -15 5 -30 5c-27 13 -40 31 -40 53s17 38 47 45c4 -1 15 -6 32 -14
c2 -7 5 -16 11 -25c-8 -24 -10 -29 -15 -36c118 39 118 40 293 293c199 274 350 430 509 449l11 -2c2 -4 2 -5 2 -6c-109 -105 -188 -217 -286 -420c50 47 51 48 120 79c38 17 60 31 68 43c0 9 1 16 4 21c14 209 40 270 258 297c78 -10 93 -19 132 -64c3 -12 8 -30 15 -55z
M971 698c-94 -36 -211 -154 -359 -360h113c58 121 140 241 246 360z" />
    <glyph glyph-name="Ccedilla" unicode="&#xc7;" horiz-adv-x="569" 
d="M980 650c-12 -69 -23 -104 -98 -151c-47 -29 -76 -36 -127 -36c-19 0 -61 24 -75 44c-11 14 -17 35 -17 61c-2 1 -3 3 -3 6c0 4 1 5 10 20l6 3l2 -3l3 2v-3h2l-2 -3l3 -1l1 -4c0 -59 22 -89 65 -89c88 0 162 73 174 171c-2 7 -6 18 -9 33c-9 7 -21 16 -39 29
c-16 2 -28 4 -37 6c-208 -16 -432 -216 -522 -474c-8 -24 -12 -45 -12 -65c0 -124 42 -178 140 -178c105 0 198 69 239 189c3 15 7 35 11 64c-4 14 -7 27 -9 39c-7 6 -16 17 -28 30c-10 1 -22 4 -35 9c-69 -12 -77 -18 -156 -119v2l-3 -1c0 47 52 114 102 134
c4 1 27 6 70 15c12 -2 30 -5 53 -10c19 -14 35 -28 48 -41c6 -20 11 -37 14 -52c-17 -120 -56 -180 -157 -243c-36 -23 -68 -35 -94 -38l-72 -8c-110 -2 -195 78 -195 183l2 2c13 324 417 585 617 585c4 0 26 -5 65 -14c19 -13 36 -27 49 -42c6 -20 11 -37 14 -52zM464 -96
c-5 -6 -7 -13 -7 -23c-12 -7 -23 -17 -34 -27c-19 0 -36 -3 -53 -9c-18 5 -28 5 -46 5c-11 7 -22 11 -33 11l-19 12l-2 8l4 2l-1 3c5 0 22 -5 51 -16c5 0 21 0 35 -5c4 3 6 3 25 3c6 5 13 9 21 12c3 7 6 14 10 21c-3 19 -6 21 -25 21c-7 4 -10 5 -11 5c-3 0 -5 -1 -6 -3
l-12 -1l-4 5c0 2 19 26 57 72h21l-46 -58l29 5c10 0 22 -6 37 -19c3 -9 6 -17 9 -24z" />
    <glyph glyph-name="Egrave" unicode="&#xc8;" horiz-adv-x="609" 
d="M873 833l-3 -3v-3c-7 -4 -12 -6 -15 -6l-186 70c-18 7 -27 17 -27 31c2 5 5 11 8 21l22 10l16 -4c3 -6 8 -10 15 -11c47 -24 103 -57 167 -97zM892 639c-13 -100 -76 -145 -201 -145c-18 0 -22 2 -28 8c-1 0 -2 0 -2 1l3 9l4 4c1 -2 2 -3 4 -3c1 0 3 2 5 4
c6 -1 13 -2 20 -2c60 0 115 33 129 75c1 2 4 17 10 47c-15 63 -17 65 -59 90l-49 8c-42 0 -72 -12 -103 -39c-38 -35 -46 -45 -57 -145c-12 -103 -38 -114 -149 -163c-82 -41 -108 -64 -131 -112c-16 -32 -24 -64 -24 -95c0 -69 64 -163 205 -163c79 0 173 51 208 111
c9 16 16 40 21 73c-4 15 -7 28 -8 39c-7 8 -15 18 -23 30c-14 6 -29 10 -44 13c-71 -12 -72 -12 -164 -84l-1 3h-6c12 30 57 71 102 93c17 8 45 15 83 20c14 -3 35 -8 63 -15l40 -40c6 -20 10 -37 14 -52c-10 -88 -64 -137 -167 -181c-63 -27 -122 -40 -178 -40l-65 9
c-66 8 -153 69 -153 176l2 2c5 108 67 163 268 252c18 10 18 12 26 41c17 191 22 234 203 285c28 0 35 0 55 5c19 -5 48 -13 91 -23l41 -41c3 -9 14 -50 15 -55z" />
    <glyph glyph-name="Eacute" unicode="&#xc9;" horiz-adv-x="609" 
d="M941 922c-1 -4 -3 -10 -6 -17c-5 -4 -12 -9 -23 -16l-191 -66l-8 4c-1 -1 -1 -1 -1 -2l-3 3v9c3 3 8 8 16 12l153 91c10 6 21 10 33 13l22 -10c2 -6 4 -13 8 -21zM892 639c-13 -100 -76 -145 -201 -145c-18 0 -22 2 -28 8c-1 0 -2 0 -2 1l3 9l4 4c1 -2 2 -3 4 -3
c1 0 3 2 5 4c6 -1 13 -2 20 -2c60 0 115 33 129 75c1 2 4 17 10 47c-15 63 -17 65 -59 90l-49 8c-42 0 -72 -12 -103 -39c-38 -35 -46 -45 -57 -145c-12 -103 -38 -114 -149 -163c-82 -41 -108 -64 -131 -112c-16 -32 -24 -64 -24 -95c0 -69 64 -163 205 -163
c79 0 173 51 208 111c9 16 16 40 21 73c-4 15 -7 28 -8 39c-7 8 -15 18 -23 30c-14 6 -29 10 -44 13c-71 -12 -72 -12 -164 -84l-1 3h-6c12 30 57 71 102 93c17 8 45 15 83 20c14 -3 35 -8 63 -15l40 -40c6 -20 10 -37 14 -52c-10 -88 -64 -137 -167 -181
c-63 -27 -122 -40 -178 -40l-65 9c-66 8 -153 69 -153 176l2 2c5 108 67 163 268 252c18 10 18 12 26 41c17 191 22 234 203 285c28 0 35 0 55 5c19 -5 48 -13 91 -23l41 -41c3 -9 14 -50 15 -55z" />
    <glyph glyph-name="Ecircumflex" unicode="&#xca;" horiz-adv-x="609" 
d="M879 834c-1 0 -4 -2 -5 -5c0 -1 1 -2 2 -3l-3 -3l-7 -1c-8 0 -22 11 -68 62c-37 -15 -94 -36 -171 -61c-1 -2 -2 -2 -5 -2s-6 4 -8 13c4 12 14 17 167 96l6 -1l29 2c0 -1 0 -1 9 -3c28 -56 35 -70 53 -87c-2 -1 -2 -2 -2 -3zM892 639c-13 -100 -76 -145 -201 -145
c-18 0 -22 2 -28 8c-1 0 -2 0 -2 1l3 9l4 4c1 -2 2 -3 4 -3c1 0 3 2 5 4c6 -1 13 -2 20 -2c60 0 115 33 129 75c1 2 4 17 10 47c-15 63 -17 65 -59 90l-49 8c-42 0 -72 -12 -103 -39c-38 -35 -46 -45 -57 -145c-12 -103 -38 -114 -149 -163c-82 -41 -108 -64 -131 -112
c-16 -32 -24 -64 -24 -95c0 -69 64 -163 205 -163c79 0 173 51 208 111c9 16 16 40 21 73c-4 15 -7 28 -8 39c-7 8 -15 18 -23 30c-14 6 -29 10 -44 13c-71 -12 -72 -12 -164 -84l-1 3h-6c12 30 57 71 102 93c17 8 45 15 83 20c14 -3 35 -8 63 -15l40 -40
c6 -20 10 -37 14 -52c-10 -88 -64 -137 -167 -181c-63 -27 -122 -40 -178 -40l-65 9c-66 8 -153 69 -153 176l2 2c5 108 67 163 268 252c18 10 18 12 26 41c17 191 22 234 203 285c28 0 35 0 55 5c19 -5 48 -13 91 -23l41 -41c3 -9 14 -50 15 -55z" />
    <glyph glyph-name="Edieresis" unicode="&#xcb;" horiz-adv-x="609" 
d="M886 897c-5 -8 -7 -16 -7 -23c-15 -22 -29 -33 -42 -33c-24 0 -36 9 -36 27l2 2c14 40 17 43 56 55l20 -8c0 -8 2 -14 7 -20zM734 897c-10 -39 -29 -56 -49 -56c-23 0 -35 9 -35 27l2 2l10 29l22 20c8 1 16 3 23 6c8 -4 15 -7 21 -8zM892 639
c-13 -100 -76 -145 -201 -145c-18 0 -22 2 -28 8c-1 0 -2 0 -2 1l3 9l4 4c1 -2 2 -3 4 -3c1 0 3 2 5 4c6 -1 13 -2 20 -2c60 0 115 33 129 75c1 2 4 17 10 47c-15 63 -17 65 -59 90l-49 8c-42 0 -72 -12 -103 -39c-38 -35 -46 -45 -57 -145c-12 -103 -38 -114 -149 -163
c-82 -41 -108 -64 -131 -112c-16 -32 -24 -64 -24 -95c0 -69 64 -163 205 -163c79 0 173 51 208 111c9 16 16 40 21 73c-4 15 -7 28 -8 39c-7 8 -15 18 -23 30c-14 6 -29 10 -44 13c-71 -12 -72 -12 -164 -84l-1 3h-6c12 30 57 71 102 93c17 8 45 15 83 20
c14 -3 35 -8 63 -15l40 -40c6 -20 10 -37 14 -52c-10 -88 -64 -137 -167 -181c-63 -27 -122 -40 -178 -40l-65 9c-66 8 -153 69 -153 176l2 2c5 108 67 163 268 252c18 10 18 12 26 41c17 191 22 234 203 285c28 0 35 0 55 5c19 -5 48 -13 91 -23l41 -41c3 -9 14 -50 15 -55
z" />
    <glyph glyph-name="Igrave" unicode="&#xcc;" horiz-adv-x="697" 
d="M1069 833l-3 -6c-7 -4 -12 -6 -14 -6l-187 70c-18 7 -27 17 -27 31c1 6 4 12 8 21l22 10l16 -4c3 -6 8 -10 15 -11c47 -24 103 -57 167 -97zM1219 745c-3 -19 -17 -25 -110 -27c-81 -34 -136 -109 -292 -363c-154 -249 -306 -367 -473 -367c-95 0 -185 69 -185 131
c0 47 19 71 56 71c8 -3 19 -7 33 -13c6 -12 10 -23 12 -32c-2 -29 -15 -44 -38 -44c-4 -3 -6 -3 -15 -3l8 -9c39 -59 76 -80 124 -80c124 0 205 63 314 225c223 334 246 368 424 478c-398 -22 -597 -109 -597 -253c0 -34 51 -81 86 -81c89 0 156 60 162 144c-2 1 -3 3 -3 5
l-1 9c0 6 1 12 4 16v-2c2 0 4 1 7 3l6 -2l2 -3v-5l4 -2c0 -23 1 -25 4 -30c-15 -97 -90 -163 -173 -163c-75 0 -123 21 -150 66c-12 20 -18 36 -18 49c0 149 172 240 504 266c155 5 193 9 285 31c4 -2 9 -3 15 -4v-3c0 -4 2 -7 5 -8z" />
    <glyph glyph-name="Iacute" unicode="&#xcd;" horiz-adv-x="650" 
d="M1087 922c-7 -20 -8 -20 -29 -33l-191 -66l-8 4l-2 -2c-1 1 -2 2 -2 3c2 11 3 14 16 21l153 91c10 6 21 10 33 13l22 -10c1 -6 4 -13 8 -21zM1219 745c-3 -19 -17 -25 -110 -27c-81 -34 -136 -109 -292 -363c-154 -249 -306 -367 -473 -367c-95 0 -185 69 -185 131
c0 47 19 71 56 71c8 -3 19 -7 33 -13c6 -12 10 -23 12 -32c-2 -29 -15 -44 -38 -44c-4 -3 -6 -3 -15 -3l8 -9c39 -59 76 -80 124 -80c124 0 205 63 314 225c223 334 246 368 424 478c-398 -22 -597 -109 -597 -253c0 -34 51 -81 86 -81c89 0 156 60 162 144c-2 1 -3 3 -3 5
l-1 9c0 6 1 12 4 16v-2c2 0 4 1 7 3l6 -2l2 -3v-5l4 -2c0 -23 1 -25 4 -30c-15 -97 -90 -163 -173 -163c-75 0 -123 21 -150 66c-12 20 -18 36 -18 49c0 149 172 240 504 266c155 5 193 9 285 31c4 -2 9 -3 15 -4v-3c0 -4 2 -7 5 -8z" />
    <glyph glyph-name="Icircumflex" unicode="&#xce;" horiz-adv-x="666" 
d="M1119 834c-4 -1 -5 -5 -5 -6l2 -2l-3 -3l-7 -1c-8 0 -22 11 -68 62l-175 -63c-5 0 -8 4 -9 13c4 11 14 17 167 96l6 -1l29 2c0 -1 0 -1 9 -3c30 -59 37 -71 53 -87c-2 -1 -2 -2 -2 -3zM1219 745c-3 -19 -17 -25 -110 -27c-81 -34 -136 -109 -292 -363
c-154 -249 -306 -367 -473 -367c-95 0 -185 69 -185 131c0 47 19 71 56 71c8 -3 19 -7 33 -13c6 -12 10 -23 12 -32c-2 -29 -15 -44 -38 -44c-4 -3 -6 -3 -15 -3l8 -9c39 -59 76 -80 124 -80c124 0 205 63 314 225c223 334 246 368 424 478c-398 -22 -597 -109 -597 -253
c0 -34 51 -81 86 -81c89 0 156 60 162 144c-2 1 -3 3 -3 5l-1 9c0 6 1 12 4 16v-2c2 0 4 1 7 3l6 -2l2 -3v-5l4 -2c0 -23 1 -25 4 -30c-15 -97 -90 -163 -173 -163c-75 0 -123 21 -150 66c-12 20 -18 36 -18 49c0 149 172 240 504 266c155 5 193 9 285 31c4 -2 9 -3 15 -4
v-3c0 -4 2 -7 5 -8z" />
    <glyph glyph-name="Idieresis" unicode="&#xcf;" horiz-adv-x="666" 
d="M1126 897c-5 -8 -7 -16 -7 -23c-15 -22 -29 -33 -42 -33c-24 0 -36 9 -36 27l2 2c14 40 17 44 56 55l20 -8c0 -8 2 -14 7 -20zM974 897c-10 -35 -28 -56 -49 -56c-23 0 -35 9 -35 27l12 31l22 20c8 2 16 3 23 6c8 -4 15 -7 21 -8zM1219 745c-3 -19 -17 -25 -110 -27
c-81 -34 -136 -109 -292 -363c-154 -249 -306 -367 -473 -367c-95 0 -185 69 -185 131c0 47 19 71 56 71c8 -3 19 -7 33 -13c6 -12 10 -23 12 -32c-2 -29 -15 -44 -38 -44c-4 -3 -6 -3 -15 -3l8 -9c39 -59 76 -80 124 -80c124 0 205 63 314 225c223 334 246 368 424 478
c-398 -22 -597 -109 -597 -253c0 -34 51 -81 86 -81c89 0 156 60 162 144c-2 1 -3 3 -3 5l-1 9c0 6 1 12 4 16v-2c2 0 4 1 7 3l6 -2l2 -3v-5l4 -2c0 -23 1 -25 4 -30c-15 -97 -90 -163 -173 -163c-75 0 -123 21 -150 66c-12 20 -18 36 -18 49c0 149 172 240 504 266
c155 5 193 9 285 31c4 -2 9 -3 15 -4v-3c0 -4 2 -7 5 -8z" />
    <glyph glyph-name="Eth" unicode="&#xd0;" horiz-adv-x="792" 
d="M1114 787l-3 -2l2 -2c-11 -9 -12 -9 -20 -9c-63 -24 -115 -52 -158 -87c10 -18 23 -35 39 -49c13 -26 25 -54 38 -84c2 -22 7 -54 13 -96c-8 -100 -9 -103 -38 -170c-80 -182 -266 -300 -471 -300c-46 0 -114 8 -142 16c-29 -3 -51 -7 -68 -13c-28 0 -31 -1 -36 -3
c-14 4 -20 5 -42 5c-43 17 -43 17 -43 24l-2 3c0 3 1 7 4 14c5 1 8 3 10 7l41 8c20 -5 41 -7 65 -7c13 -4 31 -10 56 -19c108 53 153 89 266 306h-55l14 44h66c89 158 125 215 231 316c-8 1 -16 6 -22 15c-71 38 -81 39 -173 49c-191 0 -433 -142 -433 -410
c0 -78 66 -147 119 -147c69 0 125 31 167 95l11 7l7 -2l4 -9c-28 -66 -116 -121 -193 -121c-100 0 -170 71 -170 177c0 173 131 338 320 402c36 12 91 22 165 31c117 -11 124 -13 225 -68c85 55 85 55 187 85c1 -2 2 -2 4 -2s4 1 5 3l-1 -3h10l-2 -4h3zM954 506
c-4 23 -8 52 -11 89c-24 53 -25 54 -36 65c-48 -58 -72 -100 -175 -287h113l-15 -44h-124c-118 -200 -164 -228 -301 -312c6 -1 57 -7 74 -9c242 0 418 159 460 386c4 26 8 44 12 54c0 39 0 43 3 58z" />
    <glyph glyph-name="Ntilde" unicode="&#xd1;" horiz-adv-x="853" 
d="M1346 890l-1 -3c-31 -38 -83 -65 -122 -65c-12 0 -26 6 -104 44l-42 12c-8 -2 -19 -7 -35 -13c-11 -9 -27 -19 -49 -32v2c-1 -1 -1 -1 -4 -2c0 2 -1 4 -3 5c31 52 68 75 119 83c10 -4 19 -5 31 -5c102 -45 114 -49 128 -49c12 0 13 0 75 29l2 -3l3 2zM1435 675
c-10 -50 -30 -75 -60 -85l-6 2v2c9 10 16 23 18 39l-8 24c-9 5 -18 12 -27 22l-28 6c-147 -20 -277 -185 -516 -676l-3 -7c0 -2 -2 -5 -4 -9c-4 -2 -5 -2 -8 -5c-3 1 -5 2 -7 4c0 4 0 4 -2 8c14 49 21 86 21 111c0 57 -4 98 -26 291c-3 40 -5 62 -5 67c-4 10 -6 26 -6 50v54
c-235 -482 -325 -560 -499 -585c-74 19 -84 24 -84 59c0 3 4 13 12 31c10 5 20 9 29 12c6 -4 15 -7 28 -11l13 -33c-3 -3 -4 -6 -4 -8s0 -5 1 -6l-3 -10l14 -1c4 -3 8 -5 14 -5c150 0 312 218 515 695c12 25 29 40 50 47l5 -2l2 -6c-6 -8 -21 -74 -21 -90
c0 -11 5 -126 6 -133l30 -277c-2 -6 -3 -8 -3 -37c-6 -29 -6 -30 -29 -84c276 553 367 586 515 614c9 -2 23 -5 41 -10c7 -11 15 -18 25 -23c2 -11 6 -23 10 -35z" />
    <glyph glyph-name="Ograve" unicode="&#xd2;" horiz-adv-x="630" 
d="M809 833l-3 -3v-3c-7 -4 -12 -6 -15 -6l-186 70c-18 7 -27 17 -27 31c1 6 4 11 8 21l22 10l16 -4c3 -6 8 -10 15 -11c47 -24 103 -57 167 -97zM964 272c-10 -33 -86 -63 -180 -63c-12 0 -31 2 -56 7c-121 -152 -233 -228 -348 -228c-96 0 -134 57 -155 163
c0 208 183 497 446 570c26 16 40 24 54 30c14 0 30 2 46 7c62 -13 63 -14 98 -54c3 -19 8 -34 15 -47c1 -13 3 -29 7 -48c-11 -143 -51 -237 -149 -371c38 -4 60 -6 66 -6c63 0 110 15 141 45l7 3l5 -2c-1 -1 -1 -2 -1 -4c0 -1 1 -1 4 -2zM835 606c-3 26 -10 58 -22 95
c-3 4 -12 13 -28 29c-10 0 -17 1 -25 5c-6 -3 -8 -3 -22 -3l-32 -12c7 -5 16 -7 27 -7l32 -20l20 -26l10 -32c0 -13 0 -16 3 -22l-2 -6c-1 -2 -3 -3 -6 -5c-1 1 -3 2 -4 4c0 -1 -2 -1 -3 -1l-3 4c0 1 1 2 3 2c-3 2 -5 6 -5 11l1 2c-3 7 -11 24 -26 50c-8 4 -16 9 -23 16
c-12 0 -23 3 -31 7h-27c-57 -57 -86 -133 -86 -227c0 -93 42 -168 124 -215c80 129 110 200 125 351zM694 232c-8 1 -14 6 -17 14c-61 36 -114 133 -114 208c0 91 23 170 69 236c-192 -95 -335 -315 -335 -514c0 -48 8 -84 24 -110c3 -19 14 -30 33 -33
c11 -11 25 -16 41 -16c105 0 225 101 299 215z" />
    <glyph glyph-name="Oacute" unicode="&#xd3;" horiz-adv-x="630" 
d="M952 922c-7 -20 -8 -20 -29 -33l-191 -66l-8 4l-2 -2c-1 1 -2 2 -2 3c2 11 3 14 16 21l153 91c10 6 21 10 33 13l22 -10c1 -6 4 -13 8 -21zM964 272c-10 -33 -86 -63 -180 -63c-12 0 -31 2 -56 7c-121 -152 -233 -228 -348 -228c-96 0 -134 57 -155 163
c0 208 183 497 446 570c26 16 40 24 54 30c14 0 30 2 46 7c62 -13 63 -14 98 -54c3 -19 8 -34 15 -47c1 -13 3 -29 7 -48c-11 -143 -51 -237 -149 -371c38 -4 60 -6 66 -6c63 0 110 15 141 45l7 3l5 -2c-1 -1 -1 -2 -1 -4c0 -1 1 -1 4 -2zM835 606c-3 26 -10 58 -22 95
c-3 4 -12 13 -28 29c-10 0 -17 1 -25 5c-6 -3 -8 -3 -22 -3l-32 -12c7 -5 16 -7 27 -7l32 -20l20 -26l10 -32c0 -13 0 -16 3 -22l-2 -6c-1 -2 -3 -3 -6 -5c-1 1 -3 2 -4 4c0 -1 -2 -1 -3 -1l-3 4c0 1 1 2 3 2c-3 2 -5 6 -5 11l1 2c-3 7 -11 24 -26 50c-8 4 -16 9 -23 16
c-12 0 -23 3 -31 7h-27c-57 -57 -86 -133 -86 -227c0 -93 42 -168 124 -215c80 129 110 200 125 351zM694 232c-8 1 -14 6 -17 14c-61 36 -114 133 -114 208c0 91 23 170 69 236c-192 -95 -335 -315 -335 -514c0 -48 8 -84 24 -110c3 -19 14 -30 33 -33
c11 -11 25 -16 41 -16c105 0 225 101 299 215z" />
    <glyph glyph-name="Ocircumflex" unicode="&#xd4;" horiz-adv-x="630" 
d="M890 834c-3 -1 -5 -5 -5 -6l2 -2l-3 -3l-8 -1c-8 0 -33 23 -67 62l-175 -63c-5 0 -7 4 -9 13c4 11 14 17 167 96l6 -1l29 2c0 -1 0 -1 9 -3c30 -59 37 -71 53 -87c-1 -1 -2 -2 -2 -3zM964 272c-10 -33 -86 -63 -180 -63c-12 0 -31 2 -56 7c-121 -152 -233 -228 -348 -228
c-96 0 -134 57 -155 163c0 208 183 497 446 570c26 16 40 24 54 30c14 0 30 2 46 7c62 -13 63 -14 98 -54c3 -19 8 -34 15 -47c1 -13 3 -29 7 -48c-11 -143 -51 -237 -149 -371c38 -4 60 -6 66 -6c63 0 110 15 141 45l7 3l5 -2c-1 -1 -1 -2 -1 -4c0 -1 1 -1 4 -2zM835 606
c-3 26 -10 58 -22 95c-3 4 -12 13 -28 29c-10 0 -17 1 -25 5c-6 -3 -8 -3 -22 -3l-32 -12c7 -5 16 -7 27 -7l32 -20l20 -26l10 -32c0 -13 0 -16 3 -22l-2 -6c-1 -2 -3 -3 -6 -5c-1 1 -3 2 -4 4c0 -1 -2 -1 -3 -1l-3 4c0 1 1 2 3 2c-3 2 -5 6 -5 11l1 2c-3 7 -11 24 -26 50
c-8 4 -16 9 -23 16c-12 0 -23 3 -31 7h-27c-57 -57 -86 -133 -86 -227c0 -93 42 -168 124 -215c80 129 110 200 125 351zM694 232c-8 1 -14 6 -17 14c-61 36 -114 133 -114 208c0 91 23 170 69 236c-192 -95 -335 -315 -335 -514c0 -48 8 -84 24 -110c3 -19 14 -30 33 -33
c11 -11 25 -16 41 -16c105 0 225 101 299 215z" />
    <glyph glyph-name="Otilde" unicode="&#xd5;" horiz-adv-x="630" 
d="M1047 890l-1 -3c-29 -37 -82 -65 -122 -65c-12 0 -13 0 -104 44l-42 12c-8 -2 -19 -7 -35 -13c-11 -9 -27 -19 -49 -32v2c0 -1 -1 -1 -4 -2c0 2 -1 4 -3 5c31 52 68 75 119 83c10 -4 19 -5 31 -5c104 -45 114 -49 128 -49c12 0 13 0 75 29l2 -3l3 2zM964 272
c-10 -33 -86 -63 -180 -63c-12 0 -31 2 -56 7c-121 -152 -233 -228 -348 -228c-96 0 -134 57 -155 163c0 208 183 497 446 570c26 16 40 24 54 30c14 0 30 2 46 7c62 -13 63 -14 98 -54c3 -19 8 -34 15 -47c1 -13 3 -29 7 -48c-11 -143 -51 -237 -149 -371
c38 -4 60 -6 66 -6c63 0 110 15 141 45l7 3l5 -2c-1 -1 -1 -2 -1 -4c0 -1 1 -1 4 -2zM835 606c-3 26 -10 58 -22 95c-3 4 -12 13 -28 29c-10 0 -17 1 -25 5c-6 -3 -8 -3 -22 -3l-32 -12c7 -5 16 -7 27 -7l32 -20l20 -26l10 -32c0 -13 0 -16 3 -22l-2 -6c-1 -2 -3 -3 -6 -5
c-1 1 -3 2 -4 4c0 -1 -2 -1 -3 -1l-3 4c0 1 1 2 3 2c-3 2 -5 6 -5 11l1 2c-3 7 -11 24 -26 50c-8 4 -16 9 -23 16c-12 0 -23 3 -31 7h-27c-57 -57 -86 -133 -86 -227c0 -93 42 -168 124 -215c80 129 110 200 125 351zM694 232c-8 1 -14 6 -17 14c-61 36 -114 133 -114 208
c0 91 23 170 69 236c-192 -95 -335 -315 -335 -514c0 -48 8 -84 24 -110c3 -19 14 -30 33 -33c11 -11 25 -16 41 -16c105 0 225 101 299 215z" />
    <glyph glyph-name="Odieresis" unicode="&#xd6;" horiz-adv-x="630" 
d="M897 897c-5 -8 -7 -16 -7 -23c-14 -22 -29 -33 -43 -33c-24 0 -35 9 -35 27l2 2c14 40 17 44 56 55l20 -8c0 -8 2 -14 7 -20zM745 897c-11 -39 -29 -56 -49 -56c-23 0 -35 9 -35 27l12 31l22 20c8 2 16 3 23 6c8 -4 15 -7 21 -8zM964 272c-10 -33 -86 -63 -180 -63
c-12 0 -31 2 -56 7c-121 -152 -233 -228 -348 -228c-96 0 -134 57 -155 163c0 208 183 497 446 570c26 16 40 24 54 30c14 0 30 2 46 7c62 -13 63 -14 98 -54c3 -19 8 -34 15 -47c1 -13 3 -29 7 -48c-11 -143 -51 -237 -149 -371c38 -4 60 -6 66 -6c63 0 110 15 141 45l7 3
l5 -2c-1 -1 -1 -2 -1 -4c0 -1 1 -1 4 -2zM835 606c-3 26 -10 58 -22 95c-3 4 -12 13 -28 29c-10 0 -17 1 -25 5c-6 -3 -8 -3 -22 -3l-32 -12c7 -5 16 -7 27 -7l32 -20l20 -26l10 -32c0 -13 0 -16 3 -22l-2 -6c-1 -2 -3 -3 -6 -5c-1 1 -3 2 -4 4c0 -1 -2 -1 -3 -1l-3 4
c0 1 1 2 3 2c-3 2 -5 6 -5 11l1 2c-3 7 -11 24 -26 50c-8 4 -16 9 -23 16c-12 0 -23 3 -31 7h-27c-57 -57 -86 -133 -86 -227c0 -93 42 -168 124 -215c80 129 110 200 125 351zM694 232c-8 1 -14 6 -17 14c-61 36 -114 133 -114 208c0 91 23 170 69 236
c-192 -95 -335 -315 -335 -514c0 -48 8 -84 24 -110c3 -19 14 -30 33 -33c11 -11 25 -16 41 -16c105 0 225 101 299 215z" />
    <glyph glyph-name="Oslash" unicode="&#xd8;" horiz-adv-x="630" 
d="M984 753c-2 -4 -6 -11 -13 -19l-86 -81c5 -8 8 -26 9 -55c-11 -125 -52 -227 -149 -360c38 -4 60 -6 66 -6c63 0 110 15 141 45l7 3l6 -2l2 -6c-10 -33 -88 -63 -180 -63c-12 0 -31 2 -56 7c-98 -123 -209 -208 -291 -221c-13 -1 -31 -3 -57 -7c-70 11 -100 26 -129 67
l-82 -77h-4c-7 0 -7 -2 -7 -9c-4 -1 -8 -3 -11 -6l-8 4c-1 6 -2 9 -4 11c7 7 33 33 107 101c-11 40 -16 71 -16 92c0 215 216 487 445 550c23 15 24 16 54 30c14 0 29 2 46 7l60 -15c24 -23 39 -44 44 -64l83 78c2 0 6 2 13 5l9 -4l-3 -4zM830 633c0 13 -4 36 -12 69l-28 28
c-10 0 -17 1 -26 5c-6 -3 -8 -3 -22 -3l-32 -12c7 -5 16 -7 27 -7c11 -8 21 -15 31 -20l20 -26l10 -32l2 -23c0 -1 0 -2 -1 -4h1l-7 -6c-2 1 -3 2 -4 4c0 -1 -2 -1 -3 -1l-3 5c0 1 1 1 3 1c-3 2 -5 4 -5 7c0 2 1 4 2 6c-10 20 -19 37 -27 50c-8 4 -16 9 -23 16
c-12 0 -23 3 -31 7h-27c-42 -31 -86 -140 -86 -211l3 -78zM838 591l-3 14l-236 -223c33 -63 89 -122 115 -128l-2 -2c46 53 91 156 123 293c0 33 0 36 3 46zM635 690c-186 -127 -206 -147 -275 -285c-41 -80 -61 -149 -61 -206c0 -37 1 -59 3 -66l267 253c-2 27 -3 45 -3 52
c0 110 10 144 69 252zM698 232c-22 7 -63 46 -119 131l-274 -259c18 -48 59 -87 93 -87c98 0 236 100 300 215z" />
    <glyph glyph-name="Ugrave" unicode="&#xd9;" horiz-adv-x="711" 
d="M849 833l-3 -6c-7 -4 -12 -6 -14 -6l-187 70c-18 7 -27 17 -27 31c2 5 5 10 8 21l22 10l16 -4c3 -6 8 -10 15 -11c47 -24 103 -57 167 -97zM1065 748l-335 -515c-54 -83 -81 -134 -81 -154c0 -41 18 -61 54 -61c73 0 193 91 327 259l6 5c2 0 2 0 7 -2c0 -2 1 -4 2 -6
c-118 -176 -236 -265 -372 -286c-47 13 -84 30 -84 73c0 40 5 70 16 92c-118 -110 -212 -165 -284 -165c-55 12 -73 17 -73 90c0 50 14 72 289 486c39 55 42 66 55 119c-5 7 -5 12 -5 22c-8 5 -15 12 -23 21c-34 8 -36 9 -39 9c-125 0 -298 -145 -298 -284
c0 -36 31 -61 79 -61c32 0 64 22 122 78l4 -1l-1 -5l4 -2c-7 -32 -84 -93 -129 -93c-51 0 -102 40 -102 80c0 146 178 311 334 311c6 0 8 0 60 -11c16 -12 31 -24 44 -36c5 -15 9 -31 12 -47l-8 -48c-34 -69 -34 -70 -222 -343c-99 -149 -108 -181 -116 -224
c0 -5 2 -9 7 -13c4 -12 15 -18 33 -18c97 0 242 126 373 329l254 394z" />
    <glyph glyph-name="Uacute" unicode="&#xda;" horiz-adv-x="711" 
d="M992 922c-1 -4 -3 -10 -6 -17c-5 -4 -12 -9 -23 -16l-191 -66l-8 4c-1 -1 -1 -1 -1 -2l-3 3v9c3 3 8 8 16 12l153 91c10 6 21 10 33 13l22 -10c1 -6 4 -13 8 -21zM1065 748l-335 -515c-54 -83 -81 -134 -81 -154c0 -41 18 -61 54 -61c73 0 193 91 327 259l6 5
c2 0 2 0 7 -2c0 -2 1 -4 2 -6c-118 -176 -236 -265 -372 -286c-47 13 -84 30 -84 73c0 40 5 70 16 92c-118 -110 -212 -165 -284 -165c-55 12 -73 17 -73 90c0 50 14 72 289 486c39 55 42 66 55 119c-5 7 -5 12 -5 22c-8 5 -15 12 -23 21c-34 8 -36 9 -39 9
c-125 0 -298 -145 -298 -284c0 -36 31 -61 79 -61c32 0 64 22 122 78l4 -1l-1 -5l4 -2c-7 -32 -84 -93 -129 -93c-51 0 -102 40 -102 80c0 146 178 311 334 311c6 0 8 0 60 -11c16 -12 31 -24 44 -36c5 -15 9 -31 12 -47l-8 -48c-34 -69 -34 -70 -222 -343
c-99 -149 -108 -181 -116 -224c0 -5 2 -9 7 -13c4 -12 15 -18 33 -18c97 0 242 126 373 329l254 394z" />
    <glyph glyph-name="Ucircumflex" unicode="&#xdb;" horiz-adv-x="711" 
d="M930 834c-1 0 -4 -2 -5 -5c0 -1 1 -2 2 -3l-3 -3l-7 -1c-8 0 -22 11 -68 62c-37 -15 -94 -36 -171 -61c-1 -2 -2 -2 -4 -2c-4 0 -7 4 -9 13c4 12 14 17 167 96l6 -1l29 2c0 -1 0 -1 9 -3c26 -52 34 -68 53 -87c-2 -1 -3 -2 -3 -3zM1065 748l-335 -515
c-54 -83 -81 -134 -81 -154c0 -41 18 -61 54 -61c73 0 193 91 327 259l6 5c2 0 2 0 7 -2c0 -2 1 -4 2 -6c-118 -176 -236 -265 -372 -286c-47 13 -84 30 -84 73c0 40 5 70 16 92c-118 -110 -212 -165 -284 -165c-55 12 -73 17 -73 90c0 50 14 72 289 486c39 55 42 66 55 119
c-5 7 -5 12 -5 22c-8 5 -15 12 -23 21c-34 8 -36 9 -39 9c-125 0 -298 -145 -298 -284c0 -36 31 -61 79 -61c32 0 64 22 122 78l4 -1l-1 -5l4 -2c-7 -32 -84 -93 -129 -93c-51 0 -102 40 -102 80c0 146 178 311 334 311c6 0 8 0 60 -11c16 -12 31 -24 44 -36
c5 -15 9 -31 12 -47l-8 -48c-34 -69 -34 -70 -222 -343c-99 -149 -108 -181 -116 -224c0 -5 2 -9 7 -13c4 -12 15 -18 33 -18c97 0 242 126 373 329l254 394z" />
    <glyph glyph-name="Udieresis" unicode="&#xdc;" horiz-adv-x="711" 
d="M937 897c-5 -8 -7 -16 -7 -23c-15 -22 -29 -33 -42 -33c-24 0 -36 9 -36 27l2 2c14 40 17 43 56 55l20 -8c0 -8 2 -14 7 -20zM785 897c-10 -39 -29 -56 -49 -56c-24 0 -35 9 -35 27l2 2l10 29l22 20c8 1 16 3 23 6c8 -4 15 -7 21 -8zM1065 748l-335 -515
c-54 -83 -81 -134 -81 -154c0 -41 18 -61 54 -61c73 0 193 91 327 259l6 5c2 0 2 0 7 -2c0 -2 1 -4 2 -6c-118 -176 -236 -265 -372 -286c-47 13 -84 30 -84 73c0 40 5 70 16 92c-118 -110 -212 -165 -284 -165c-55 12 -73 17 -73 90c0 50 14 72 289 486c39 55 42 66 55 119
c-5 7 -5 12 -5 22c-8 5 -15 12 -23 21c-34 8 -36 9 -39 9c-125 0 -298 -145 -298 -284c0 -36 31 -61 79 -61c32 0 64 22 122 78l4 -1l-1 -5l4 -2c-7 -32 -84 -93 -129 -93c-51 0 -102 40 -102 80c0 146 178 311 334 311c6 0 8 0 60 -11c16 -12 31 -24 44 -36
c5 -15 9 -31 12 -47l-8 -48c-34 -69 -34 -70 -222 -343c-99 -149 -108 -181 -116 -224c0 -5 2 -9 7 -13c4 -12 15 -18 33 -18c97 0 242 126 373 329l254 394z" />
    <glyph glyph-name="Yacute" unicode="&#xdd;" horiz-adv-x="894" 
d="M1146 922c-7 -20 -8 -20 -29 -33l-191 -66l-8 4l-2 -2c-1 1 -2 2 -2 3c2 11 3 14 16 21l153 91c10 6 21 10 33 13l22 -10c1 -6 4 -13 8 -21zM1292 748l-410 -642c-210 -328 -340 -441 -513 -441c-121 0 -188 58 -188 161c0 55 65 108 129 108c56 0 76 -18 84 -36
c-3 0 -4 -2 -4 -6l1 -3h-3c-2 0 -3 -1 -3 -4l-3 8c-1 0 -2 -1 -4 -3c-10 9 -22 14 -35 14c-49 0 -91 -40 -91 -88c0 -38 19 -74 57 -109c34 -13 58 -20 73 -20c130 0 236 115 427 456c-140 -127 -172 -135 -271 -155c-67 14 -76 19 -79 39c-7 6 -10 14 -10 24
c0 73 15 106 256 444c68 99 90 141 100 188c-4 6 -5 9 -5 21c-7 3 -11 8 -13 17c-15 5 -31 10 -47 14c-89 -15 -117 -26 -198 -102c-73 -71 -104 -126 -104 -192c0 -34 35 -52 75 -52c32 0 43 9 119 77l4 1c-1 0 -1 0 -1 -1c0 -2 0 -3 2 -3l5 1l-1 -4c0 -4 2 -7 5 -7
c-53 -67 -91 -80 -163 -88c-33 0 -67 36 -67 71c0 78 49 160 146 247c45 41 89 59 193 75c14 -3 35 -7 63 -12c17 -14 31 -27 42 -38c2 -14 5 -26 9 -36c-9 -78 -17 -90 -216 -371l-88 -128c-29 -42 -51 -93 -51 -105c0 -30 15 -51 36 -51c136 0 302 165 525 524
c29 45 71 112 129 200z" />
    <glyph glyph-name="Thorn" unicode="&#xde;" horiz-adv-x="813" 
d="M1246 780c-4 -1 -6 -3 -6 -4s1 -3 3 -4c-16 -7 -22 -10 -32 -10c-94 -31 -144 -68 -230 -169c32 -11 44 -20 93 -76c8 -25 14 -50 18 -75c-4 -19 -7 -38 -10 -56c-21 -95 -123 -179 -209 -179c-39 0 -68 25 -68 46c0 17 9 33 26 50c8 2 15 4 21 6c5 -4 12 -7 20 -7v-4
c0 -4 2 -6 7 -6l-2 -25c-3 -1 -5 -3 -5 -5c0 -4 2 -6 6 -8l3 -7c0 -2 6 -6 19 -9c60 7 121 115 121 206c0 5 -4 28 -13 68c-13 17 -25 32 -36 45c-11 0 -12 0 -14 3c-18 -25 -43 -64 -75 -115c-134 -241 -222 -342 -372 -420c71 -5 117 -7 138 -7c146 0 291 57 393 155
c18 21 45 53 83 94c4 0 6 1 8 5l6 -2l2 -6c-133 -201 -222 -249 -475 -276c-41 0 -186 16 -208 22c-67 -13 -119 -20 -155 -20c-88 0 -128 23 -128 41c0 3 1 7 4 14l6 6c32 6 60 9 85 9c60 -9 69 -10 184 -30c101 38 169 118 310 362c118 204 196 291 316 346
c-17 0 -21 1 -31 9c-38 5 -59 5 -64 6c-237 6 -556 -206 -556 -397c0 -63 11 -89 45 -111c15 -10 27 -15 37 -15c60 0 110 31 145 86c28 42 31 65 37 163l-1 1c2 4 5 7 15 8c-1 0 -2 -1 -2 -3h6l4 -8c-2 -4 -3 -8 -3 -11c0 -5 2 -9 4 -14c0 -146 -92 -251 -220 -251
c-70 0 -122 60 -122 135c0 209 324 440 612 440c7 0 7 0 90 -9c11 -6 24 -9 39 -10c32 15 71 26 117 34c2 -2 2 -3 10 -3z" />
    <glyph glyph-name="germandbls" unicode="&#xdf;" horiz-adv-x="508" 
d="M840 689c-22 -89 -58 -125 -202 -199c-32 -17 -67 -49 -67 -65c0 -2 0 -4 1 -5c-2 -2 -3 -4 -3 -6c0 -3 1 -5 4 -7c41 -177 42 -180 42 -209c0 -71 -27 -129 -81 -176c158 67 255 188 289 246l9 4l2 -3l3 2v-5h2c-4 -1 -6 -2 -6 -4c0 -1 1 -3 3 -4
c-44 -88 -212 -245 -331 -262c-37 -5 -60 -8 -68 -8c-71 0 -125 45 -125 114c0 39 29 73 71 80l32 -11l11 -32c-7 -31 -15 -40 -34 -40c-1 0 -7 2 -18 8l2 2c-3 -13 -5 -26 -5 -40c0 -8 3 -15 8 -21c1 -15 10 -25 25 -29c6 -7 14 -11 24 -11c69 0 116 69 116 167l-10 92
c-14 44 -33 116 -33 130c0 34 37 61 117 111c112 72 134 105 151 175c-5 9 -7 19 -7 30c-7 4 -12 9 -15 16l-20 6c-80 -18 -120 -65 -435 -603c-45 -82 -72 -121 -109 -174c-4 -8 -10 -19 -19 -34l-44 -70c-4 -6 -52 -78 -124 -141c-22 -19 -77 -36 -111 -36
c-14 0 -77 16 -88 22c-10 6 -26 22 -48 46c-9 32 -14 49 -14 53c0 61 49 107 114 107c3 1 5 2 9 2c5 0 9 -2 12 -5h4c2 -2 3 -5 4 -8l-1 -3l-6 -5c-19 0 -34 -11 -57 -43c-3 -10 -5 -24 -8 -43c2 -13 7 -30 13 -54c9 -8 20 -19 32 -33c16 -3 32 -7 47 -13
c67 8 78 21 145 126c7 20 24 50 51 91c388 694 483 805 664 841c11 -3 26 -7 47 -12l26 -24c2 -14 5 -25 9 -33z" />
    <glyph glyph-name="agrave" unicode="&#xe0;" 
d="M710 453l-3 -4c-6 -2 -10 -3 -13 -3c-12 0 -192 70 -192 93c0 9 4 17 11 24l16 6c6 -4 13 -7 21 -9c24 -19 136 -91 153 -93c0 -5 3 -10 7 -14zM814 258c-7 -24 -208 -270 -318 -270c-41 0 -66 21 -66 57c0 10 1 32 6 39c-75 -67 -92 -82 -167 -96c-59 14 -73 29 -73 90
c0 81 100 219 195 272c21 11 53 21 96 28c18 -4 36 -9 53 -14c8 -12 17 -20 26 -27c0 -7 2 -14 6 -22l33 47l76 6l-162 -262c-22 -36 -33 -61 -33 -76c-1 -2 -2 -4 -2 -6c0 -7 14 -14 22 -14c54 0 134 69 290 248c3 2 7 4 12 8v-3l3 2l-2 -5l3 -2h2zM534 307
c-2 5 -4 17 -4 19v4c-9 5 -14 12 -17 21c-8 0 -14 0 -21 5c-62 -9 -108 -47 -165 -130c-38 -58 -59 -109 -60 -152l-2 -2c0 -26 17 -49 36 -49c78 0 190 136 221 224c4 11 8 31 12 60z" />
    <glyph glyph-name="aacute" unicode="&#xe1;" 
d="M706 545l-6 -16c-7 -7 -18 -13 -34 -20l-153 -63c-9 3 -10 3 -14 3l-1 2c11 23 138 104 183 118c5 -3 10 -5 17 -6zM814 258c-7 -24 -208 -270 -318 -270c-41 0 -66 21 -66 57c0 10 1 32 6 39c-75 -67 -92 -82 -167 -96c-59 14 -73 29 -73 90c0 81 100 219 195 272
c21 11 53 21 96 28c18 -4 36 -9 53 -14c8 -12 17 -20 26 -27c0 -7 2 -14 6 -22l33 47l76 6l-162 -262c-22 -36 -33 -61 -33 -76c-1 -2 -2 -4 -2 -6c0 -7 14 -14 22 -14c54 0 134 69 290 248c3 2 7 4 12 8v-3l3 2l-2 -5l3 -2h2zM534 307c-2 5 -4 17 -4 19v4
c-9 5 -14 12 -17 21c-8 0 -14 0 -21 5c-62 -9 -108 -47 -165 -130c-38 -58 -59 -109 -60 -152l-2 -2c0 -26 17 -49 36 -49c78 0 190 136 221 224c4 11 8 31 12 60z" />
    <glyph glyph-name="acircumflex" unicode="&#xe2;" 
d="M672 455l-3 -6l-10 -4c-3 0 -4 1 -75 59c-42 -20 -123 -50 -148 -59l-6 5c-1 -1 -1 -1 -2 -1s-1 1 -2 2c0 4 1 6 2 8l4 5c2 0 42 25 119 75c5 0 8 2 12 7c11 0 13 0 39 4c4 -1 7 -2 9 -2l51 -79l7 -5c-1 -2 -1 -3 -1 -4c0 -3 1 -4 4 -5zM814 258
c-7 -24 -208 -270 -318 -270c-41 0 -66 21 -66 57c0 10 1 32 6 39c-75 -67 -92 -82 -167 -96c-59 14 -73 29 -73 90c0 81 100 219 195 272c21 11 53 21 96 28c18 -4 36 -9 53 -14c8 -12 17 -20 26 -27c0 -7 2 -14 6 -22l33 47l76 6l-162 -262c-22 -36 -33 -61 -33 -76
c-1 -2 -2 -4 -2 -6c0 -7 14 -14 22 -14c54 0 134 69 290 248c3 2 7 4 12 8v-3l3 2l-2 -5l3 -2h2zM534 307c-2 5 -4 17 -4 19v4c-9 5 -14 12 -17 21c-8 0 -14 0 -21 5c-62 -9 -108 -47 -165 -130c-38 -58 -59 -109 -60 -152l-2 -2c0 -26 17 -49 36 -49c78 0 190 136 221 224
c4 11 8 31 12 60z" />
    <glyph glyph-name="atilde" unicode="&#xe3;" 
d="M711 514c-49 -55 -63 -68 -97 -68c-6 0 -57 15 -84 37c-12 3 -24 7 -35 12c-11 0 -16 -3 -75 -42l1 2l-3 -1l-2 6h-3l6 9c12 20 35 41 69 63c11 0 20 2 30 7c9 -4 16 -5 28 -5l50 -26c10 -12 25 -17 44 -17c16 0 22 3 63 31h3c3 -3 3 -3 5 -8zM814 258
c-7 -24 -208 -270 -318 -270c-41 0 -66 21 -66 57c0 10 1 32 6 39c-75 -67 -92 -82 -167 -96c-59 14 -73 29 -73 90c0 81 100 219 195 272c21 11 53 21 96 28c18 -4 36 -9 53 -14c8 -12 17 -20 26 -27c0 -7 2 -14 6 -22l33 47l76 6l-162 -262c-22 -36 -33 -61 -33 -76
c-1 -2 -2 -4 -2 -6c0 -7 14 -14 22 -14c54 0 134 69 290 248c3 2 7 4 12 8v-3l3 2l-2 -5l3 -2h2zM534 307c-2 5 -4 17 -4 19v4c-9 5 -14 12 -17 21c-8 0 -14 0 -21 5c-62 -9 -108 -47 -165 -130c-38 -58 -59 -109 -60 -152l-2 -2c0 -26 17 -49 36 -49c78 0 190 136 221 224
c4 11 8 31 12 60z" />
    <glyph glyph-name="adieresis" unicode="&#xe4;" 
d="M684 516l-6 -22c-18 -20 -31 -30 -39 -30c-21 0 -36 12 -36 28l12 28c6 4 12 9 18 15c9 0 17 2 25 7c6 -4 13 -7 20 -9c1 -5 3 -10 6 -17zM529 516l-6 -22c-18 -20 -31 -30 -40 -30c-19 0 -35 11 -35 28l2 2c1 7 5 16 10 26c6 4 12 9 18 15c8 0 17 2 25 7
c5 -5 11 -8 20 -9c1 -5 2 -10 6 -17zM814 258c-7 -24 -208 -270 -318 -270c-41 0 -66 21 -66 57c0 10 1 32 6 39c-75 -67 -92 -82 -167 -96c-59 14 -73 29 -73 90c0 81 100 219 195 272c21 11 53 21 96 28c18 -4 36 -9 53 -14c8 -12 17 -20 26 -27c0 -7 2 -14 6 -22l33 47
l76 6l-162 -262c-22 -36 -33 -61 -33 -76c-1 -2 -2 -4 -2 -6c0 -7 14 -14 22 -14c54 0 134 69 290 248c3 2 7 4 12 8v-3l3 2l-2 -5l3 -2h2zM534 307c-2 5 -4 17 -4 19v4c-9 5 -14 12 -17 21c-8 0 -14 0 -21 5c-62 -9 -108 -47 -165 -130c-38 -58 -59 -109 -60 -152l-2 -2
c0 -26 17 -49 36 -49c78 0 190 136 221 224c4 11 8 31 12 60z" />
    <glyph glyph-name="aring" unicode="&#xe5;" 
d="M611 527c-13 -54 -24 -81 -87 -81c-40 1 -75 38 -75 79l2 2c0 24 13 48 40 70l40 10l40 -10c7 -6 17 -16 29 -30c2 -14 6 -27 11 -40zM814 258c-7 -24 -208 -270 -318 -270c-41 0 -66 21 -66 57c0 10 1 32 6 39c-75 -67 -92 -82 -167 -96c-59 14 -73 29 -73 90
c0 81 100 219 195 272c21 11 53 21 96 28c18 -4 36 -9 53 -14c8 -12 17 -20 26 -27c0 -7 2 -14 6 -22l33 47l76 6l-162 -262c-22 -36 -33 -61 -33 -76c-1 -2 -2 -4 -2 -6c0 -7 14 -14 22 -14c54 0 134 69 290 248c3 2 7 4 12 8v-3l3 2l-2 -5l3 -2h2zM585 527
c-4 11 -7 20 -8 27c-7 6 -14 13 -19 20c-10 0 -19 2 -27 7c-9 -5 -18 -7 -27 -7c-18 -12 -27 -28 -27 -47c-1 -2 -2 -3 -2 -6c0 -21 26 -48 56 -48c26 0 44 18 54 54zM534 307c-2 5 -4 17 -4 19v4c-9 5 -14 12 -17 21c-8 0 -14 0 -21 5c-62 -9 -108 -47 -165 -130
c-38 -58 -59 -109 -60 -152l-2 -2c0 -26 17 -49 36 -49c78 0 190 136 221 224c4 11 8 31 12 60z" />
    <glyph glyph-name="ae" unicode="&#xe6;" horiz-adv-x="589" 
d="M916 266c-6 -44 -229 -257 -337 -271c-11 0 -28 -3 -50 -7l-46 12c-35 18 -47 57 -47 81c0 4 1 8 2 12c-82 -84 -96 -90 -168 -105c-55 9 -76 33 -76 84c0 104 123 255 226 294c10 3 30 7 61 12c7 -2 16 -3 27 -4c5 -5 10 -8 15 -10c0 -11 1 -13 9 -14c0 -6 2 -12 4 -19
c-3 -6 -4 -14 -4 -22l30 53l53 6l-38 -72c49 54 91 69 171 82l36 -8l14 -14c0 -4 2 -9 4 -15c-5 -67 -117 -137 -269 -168c-16 -32 -24 -60 -24 -83c0 -39 24 -67 60 -67c88 0 172 66 337 250l2 1l1 -4l5 1zM743 339l-4 11l-14 6c-62 -12 -93 -39 -174 -153
c91 22 153 60 187 114c0 12 1 15 5 22zM514 324c-1 3 -4 10 -6 21c-4 2 -7 5 -9 8c-3 -1 -6 -2 -8 -2c-4 0 -7 2 -9 5c-94 -7 -217 -212 -217 -278v-8l-3 -2c0 -26 18 -45 40 -45c80 0 182 146 212 301z" />
    <glyph glyph-name="ccedilla" unicode="&#xe7;" horiz-adv-x="365" 
d="M355 -3c-13 -1 -33 -4 -59 -9c-68 10 -69 11 -85 35c-10 15 -15 31 -15 46l2 2c0 142 138 280 310 307c13 -5 23 -5 36 -5l26 -14l13 -33c0 -29 -7 -34 -48 -53c-2 0 -4 1 -6 2c-2 -1 -3 -2 -4 -2c-5 0 -8 7 -8 21l5 24c-2 6 -5 16 -10 28l-24 10
c-132 -16 -221 -230 -221 -259c0 -40 9 -63 27 -67c5 -5 12 -8 20 -8c78 0 203 84 353 237c4 5 9 7 13 8l6 -3c0 -32 -236 -252 -331 -267zM327 -98c-5 -6 -7 -15 -7 -25l-34 -28c-19 -2 -35 -5 -50 -9c-61 7 -93 17 -96 33l-1 4h4l-1 3c13 0 15 0 52 -14l38 -4
c4 2 6 3 27 3c7 7 14 11 22 13c2 9 5 16 9 21c-3 21 -8 22 -23 22c-2 2 -5 4 -7 4l-27 -5l-7 6l1 1v-1c0 2 19 26 56 74h22l-46 -58c3 4 7 5 11 5c3 0 6 0 8 -2c2 1 4 2 6 2c18 0 40 -22 43 -45z" />
    <glyph glyph-name="egrave" unicode="&#xe8;" horiz-adv-x="367" 
d="M649 453l-3 -2v-2c-6 -2 -10 -3 -13 -3c-12 0 -192 70 -192 93c0 9 4 17 11 24l16 6c6 -4 13 -7 21 -9c23 -19 137 -91 153 -93c0 -5 2 -11 7 -14zM697 264c-10 -27 -212 -235 -336 -262c-23 -5 -45 -10 -67 -14c-75 17 -95 39 -95 104c0 49 60 147 118 195
c19 13 47 34 84 63c33 16 43 18 99 28l38 -10c4 -8 9 -13 16 -15c1 -7 3 -13 6 -19c-19 -69 -69 -101 -268 -166c-15 -31 -23 -60 -23 -87c0 -13 4 -24 12 -32c5 -17 20 -26 47 -26c71 0 188 81 350 243l10 4l6 -2v-4h3zM501 335c-5 5 -7 10 -7 16c-9 0 -11 0 -14 5
c-49 -7 -76 -35 -172 -155c116 28 180 72 193 134z" />
    <glyph glyph-name="eacute" unicode="&#xe9;" horiz-adv-x="365" 
d="M645 545l-6 -16c-7 -7 -18 -13 -34 -20l-152 -63c-11 3 -12 3 -15 3l-1 2c5 13 7 15 160 111c9 1 17 4 23 7c5 -3 11 -5 17 -6zM697 264c-10 -27 -212 -235 -336 -262c-23 -5 -45 -10 -67 -14c-75 17 -95 39 -95 104c0 49 60 147 118 195c19 13 47 34 84 63
c33 16 43 18 99 28l38 -10c4 -8 9 -13 16 -15c1 -7 3 -13 6 -19c-19 -69 -69 -101 -268 -166c-15 -31 -23 -60 -23 -87c0 -13 4 -24 12 -32c5 -17 20 -26 47 -26c71 0 188 81 350 243l10 4l6 -2v-4h3zM501 335c-5 5 -7 10 -7 16c-9 0 -11 0 -14 5c-49 -7 -76 -35 -172 -155
c116 28 180 72 193 134z" />
    <glyph glyph-name="ecircumflex" unicode="&#xea;" horiz-adv-x="365" 
d="M612 455l-4 -6l-10 -4c-2 0 -3 1 -75 59c-45 -21 -147 -59 -148 -59l-6 5c-1 -1 -1 -1 -2 -1s-2 1 -2 2c0 3 1 6 2 8l4 5c2 1 42 25 119 75c4 0 8 2 12 7c8 0 11 0 39 4c4 -1 7 -2 9 -2c0 -4 2 -7 5 -9l46 -70l7 -5v-4c0 -3 1 -4 4 -5zM697 264
c-10 -27 -212 -235 -336 -262c-23 -5 -45 -10 -67 -14c-75 17 -95 39 -95 104c0 49 60 147 118 195c19 13 47 34 84 63c33 16 43 18 99 28l38 -10c4 -8 9 -13 16 -15c1 -7 3 -13 6 -19c-19 -69 -69 -101 -268 -166c-15 -31 -23 -60 -23 -87c0 -13 4 -24 12 -32
c5 -17 20 -26 47 -26c71 0 188 81 350 243l10 4l6 -2v-4h3zM501 335c-5 5 -7 10 -7 16c-9 0 -11 0 -14 5c-49 -7 -76 -35 -172 -155c116 28 180 72 193 134z" />
    <glyph glyph-name="edieresis" unicode="&#xeb;" horiz-adv-x="365" 
d="M623 516l-6 -22c-18 -20 -31 -30 -39 -30c-22 0 -36 12 -36 28l2 2c2 17 6 21 28 41c8 0 17 2 25 7c6 -4 12 -7 20 -9c0 -5 3 -10 6 -17zM468 516l-6 -22c-18 -20 -31 -30 -39 -30c-19 0 -36 12 -36 28l12 28c6 4 12 9 18 15c9 0 17 2 25 7c5 -5 12 -8 20 -9
c1 -5 3 -10 6 -17zM697 264c-10 -27 -212 -235 -336 -262c-23 -5 -45 -10 -67 -14c-75 17 -95 39 -95 104c0 49 60 147 118 195c19 13 47 34 84 63c33 16 43 18 99 28l38 -10c4 -8 9 -13 16 -15c1 -7 3 -13 6 -19c-19 -69 -69 -101 -268 -166c-15 -31 -23 -60 -23 -87
c0 -13 4 -24 12 -32c5 -17 20 -26 47 -26c71 0 188 81 350 243l10 4l6 -2v-4h3zM501 335c-5 5 -7 10 -7 16c-9 0 -11 0 -14 5c-49 -7 -76 -35 -172 -155c116 28 180 72 193 134z" />
    <glyph glyph-name="igrave" unicode="&#xec;" horiz-adv-x="300" 
d="M582 453l-3 -2v-2c-6 -2 -10 -3 -12 -3c-13 0 -193 70 -193 93c0 9 4 17 11 24l16 6c6 -4 13 -7 21 -9c29 -23 140 -91 153 -93c0 -5 2 -11 7 -14zM569 260l-3 -3l2 -2l-5 -7c-113 -130 -183 -209 -281 -253c-13 0 -26 -2 -37 -7c-31 7 -61 16 -61 52s14 75 42 117
l134 205l77 6l-157 -246c-34 -53 -42 -68 -45 -94c-1 -1 -2 -3 -2 -5c0 -6 15 -13 28 -13c27 0 58 24 154 105c27 28 98 104 138 149l9 4l5 -2z" />
    <glyph glyph-name="iacute" unicode="&#xed;" horiz-adv-x="244" 
d="M585 545l-6 -16c-7 -7 -19 -13 -34 -20l-152 -63c-11 3 -11 3 -15 3l-1 2c7 15 8 15 160 111c9 1 17 4 23 7c5 -3 11 -5 17 -6zM569 260l-3 -3l2 -2l-5 -7c-113 -130 -183 -209 -281 -253c-13 0 -26 -2 -37 -7c-31 7 -61 16 -61 52s14 75 42 117l134 205l77 6l-157 -246
c-34 -53 -42 -68 -45 -94c-1 -1 -2 -3 -2 -5c0 -6 15 -13 28 -13c27 0 58 24 154 105c27 28 98 104 138 149l9 4l5 -2z" />
    <glyph glyph-name="icircumflex" unicode="&#xee;" horiz-adv-x="244" 
d="M551 455l-3 -6l-10 -4c-2 0 -5 2 -75 59c-42 -20 -147 -59 -148 -59l-6 5c-1 -1 -2 -1 -3 -1c-1 1 -1 1 -1 2c1 9 2 10 125 88c4 0 8 2 12 7c9 0 13 0 39 4c4 -1 7 -2 9 -2l51 -79l7 -5c0 -8 1 -8 3 -9zM569 260l-3 -3l2 -2l-5 -7c-113 -130 -183 -209 -281 -253
c-13 0 -26 -2 -37 -7c-31 7 -61 16 -61 52s14 75 42 117l134 205l77 6l-157 -246c-34 -53 -42 -68 -45 -94c-1 -1 -2 -3 -2 -5c0 -6 15 -13 28 -13c27 0 58 24 154 105c27 28 98 104 138 149l9 4l5 -2z" />
    <glyph glyph-name="idieresis" unicode="&#xef;" horiz-adv-x="244" 
d="M563 516l-6 -22c-18 -20 -31 -30 -40 -30c-19 0 -35 11 -35 28l2 2c1 7 5 16 10 26c6 4 12 9 18 15c8 0 17 2 25 7c6 -4 12 -7 20 -9c1 -5 2 -10 6 -17zM408 516l-6 -22c-18 -20 -31 -30 -39 -30c-22 0 -36 12 -36 28l2 2c2 17 6 21 28 41c8 0 17 2 25 7
c5 -5 12 -8 20 -9c1 -5 3 -10 6 -17zM569 260l-3 -3l2 -2l-5 -7c-113 -130 -183 -209 -281 -253c-13 0 -26 -2 -37 -7c-31 7 -61 16 -61 52s14 75 42 117l134 205l77 6l-157 -246c-34 -53 -42 -68 -45 -94c-1 -1 -2 -3 -2 -5c0 -6 15 -13 28 -13c27 0 58 24 154 105
c27 28 98 104 138 149l9 4l5 -2z" />
    <glyph glyph-name="eth" unicode="&#xf0;" 
d="M813 259c-28 -44 -66 -63 -127 -63c-8 0 -16 2 -24 7c-21 3 -37 12 -47 27c-7 2 -12 7 -17 14c-51 -143 -159 -233 -300 -256l-48 12c-25 7 -43 42 -43 85c0 125 158 282 299 293c5 -3 9 -3 27 -3c-12 87 -39 155 -114 254c-23 -12 -57 -27 -102 -43c-1 -2 -2 -2 -3 -2
l-5 5c0 -2 -1 -2 -2 -2s-2 1 -2 2s0 3 1 5h-2c0 3 2 5 4 9c5 1 36 17 98 47c-21 22 -31 31 -100 91l74 9c12 -15 26 -28 44 -39c8 -14 20 -26 35 -37l98 47l11 3v-2c0 -1 0 -1 9 -1c-1 -1 -1 -2 -1 -4c0 -1 1 -1 4 -2c-4 -14 -10 -17 -106 -59l28 -34l64 -113
c8 -21 18 -53 30 -95c1 -19 4 -47 9 -83c-2 -8 -4 -15 -4 -21c0 -20 6 -35 18 -46c7 -17 19 -28 37 -33c9 -8 20 -12 34 -12c42 0 77 13 103 40c2 0 7 3 15 7c2 -2 4 -5 5 -7zM535 310c-5 8 -7 18 -7 29c-4 3 -8 7 -12 11l-24 6l-38 -10c-100 -72 -170 -184 -176 -282l-2 -2
c0 -29 16 -54 35 -54c80 0 192 134 213 252c5 25 8 42 11 50z" />
    <glyph glyph-name="ntilde" unicode="&#xf1;" 
d="M711 514c-49 -55 -63 -68 -97 -68c-6 0 -57 15 -84 37c-12 3 -24 7 -35 12c-11 0 -16 -3 -75 -42l1 2l-3 -1l-2 6h-3l6 9c12 20 35 41 69 63c11 0 20 2 30 7c9 -4 16 -5 28 -5l50 -26c10 -12 25 -17 44 -17c16 0 22 3 63 31h3c3 -3 3 -3 5 -8zM813 265c-4 -1 -6 -3 -6 -4
s1 -3 3 -4l-7 -9c-109 -144 -192 -226 -249 -246c-8 -3 -29 -8 -61 -14c-47 7 -70 28 -70 65c0 42 26 83 166 276l3 11c-4 3 -5 6 -5 10l-22 6c-106 -11 -201 -103 -356 -350l-81 -6l237 362l79 6l-65 -93c99 88 139 95 197 103l32 -8c10 -11 18 -18 24 -23
c2 -12 5 -21 9 -29c-7 -44 -7 -44 -133 -219c-22 -35 -29 -50 -29 -69c-2 -2 -3 -5 -3 -7c0 -6 3 -10 10 -10c2 -3 5 -4 10 -4c84 12 212 126 298 258v2c1 1 7 3 14 5v-2h3z" />
    <glyph glyph-name="ograve" unicode="&#xf2;" 
d="M647 453l-3 -4c-6 -2 -10 -3 -13 -3c-14 0 -191 71 -191 93c0 9 3 17 10 24l16 6c6 -4 13 -7 21 -9c24 -19 136 -91 153 -93c0 -5 3 -10 7 -14zM811 259c-4 -4 -7 -7 -7 -12c-38 -38 -67 -51 -120 -51c-21 0 -55 16 -70 34c-8 3 -14 8 -18 14
c-38 -109 -128 -204 -229 -241c-11 -4 -34 -9 -71 -15l-48 12c-25 7 -43 42 -43 85c0 124 174 293 300 293c1 0 19 -4 55 -12c6 -8 14 -15 24 -19c7 -14 12 -32 19 -60c10 -32 51 -68 85 -68c27 0 66 16 118 47c3 -2 4 -5 5 -7zM532 310c-5 8 -7 18 -7 29c-5 3 -8 7 -12 11
l-24 6c-52 -13 -53 -14 -87 -50c-79 -83 -121 -164 -126 -242l-2 -2c0 -29 16 -54 35 -54c77 0 188 132 214 251c1 11 4 28 9 51z" />
    <glyph glyph-name="oacute" unicode="&#xf3;" 
d="M694 545l-6 -16c-7 -7 -18 -13 -34 -20l-152 -63c-11 3 -11 3 -15 3l-1 2c10 21 134 103 183 118c5 -3 11 -5 17 -6zM811 259c-4 -4 -7 -7 -7 -12c-38 -38 -67 -51 -120 -51c-21 0 -55 16 -70 34c-8 3 -14 8 -18 14c-38 -109 -128 -204 -229 -241c-11 -4 -34 -9 -71 -15
l-48 12c-25 7 -43 42 -43 85c0 124 174 293 300 293c1 0 19 -4 55 -12c6 -8 14 -15 24 -19c7 -14 12 -32 19 -60c10 -32 51 -68 85 -68c27 0 66 16 118 47c3 -2 4 -5 5 -7zM532 310c-5 8 -7 18 -7 29c-5 3 -8 7 -12 11l-24 6c-52 -13 -53 -14 -87 -50
c-79 -83 -121 -164 -126 -242l-2 -2c0 -29 16 -54 35 -54c77 0 188 132 214 251c1 11 4 28 9 51z" />
    <glyph glyph-name="ocircumflex" unicode="&#xf4;" 
d="M663 455l-3 -6l-10 -4c-3 0 -4 1 -75 59c-42 -20 -123 -50 -148 -59l-6 5c-1 -1 -1 -1 -2 -1s-1 1 -2 2c0 4 1 6 2 8l4 5c2 0 42 25 119 75c4 0 9 2 12 7c11 0 13 0 39 4c4 -1 7 -2 9 -2l51 -79l6 -5v-4c0 -3 2 -4 4 -5zM811 259c-4 -4 -7 -7 -7 -12
c-38 -38 -67 -51 -120 -51c-21 0 -55 16 -70 34c-8 3 -14 8 -18 14c-38 -109 -128 -204 -229 -241c-11 -4 -34 -9 -71 -15l-48 12c-25 7 -43 42 -43 85c0 124 174 293 300 293c1 0 19 -4 55 -12c6 -8 14 -15 24 -19c7 -14 12 -32 19 -60c10 -32 51 -68 85 -68
c27 0 66 16 118 47c3 -2 4 -5 5 -7zM532 310c-5 8 -7 18 -7 29c-5 3 -8 7 -12 11l-24 6c-52 -13 -53 -14 -87 -50c-79 -83 -121 -164 -126 -242l-2 -2c0 -29 16 -54 35 -54c77 0 188 132 214 251c1 11 4 28 9 51z" />
    <glyph glyph-name="otilde" unicode="&#xf5;" 
d="M711 514c-49 -55 -63 -68 -97 -68c-6 0 -57 15 -84 37c-12 3 -24 7 -35 12c-11 0 -16 -3 -75 -42l1 2l-3 -1l-2 6h-3l6 9c12 20 35 41 69 63c11 0 20 2 30 7c9 -4 16 -5 28 -5l50 -26c10 -12 25 -17 44 -17c16 0 22 3 63 31h3c3 -3 3 -3 5 -8zM811 259
c-4 -4 -7 -7 -7 -12c-38 -38 -67 -51 -120 -51c-21 0 -55 16 -70 34c-8 3 -14 8 -18 14c-38 -109 -128 -204 -229 -241c-11 -4 -34 -9 -71 -15l-48 12c-25 7 -43 42 -43 85c0 124 174 293 300 293c1 0 19 -4 55 -12c6 -8 14 -15 24 -19c7 -14 12 -32 19 -60
c10 -32 51 -68 85 -68c27 0 66 16 118 47c3 -2 4 -5 5 -7zM532 310c-5 8 -7 18 -7 29c-5 3 -8 7 -12 11l-24 6c-52 -13 -53 -14 -87 -50c-79 -83 -121 -164 -126 -242l-2 -2c0 -29 16 -54 35 -54c77 0 188 132 214 251c1 11 4 28 9 51z" />
    <glyph glyph-name="odieresis" unicode="&#xf6;" 
d="M675 516l-6 -22c-18 -20 -31 -30 -39 -30c-21 0 -36 12 -36 28l12 28c6 4 12 9 18 15c9 0 17 2 25 7c6 -4 12 -7 20 -9c1 -5 3 -10 6 -17zM520 516l-6 -22c-18 -20 -31 -30 -39 -30c-20 0 -36 11 -36 28l2 2c1 7 5 16 10 26c6 4 12 9 18 15c8 0 17 2 25 7
c5 -5 12 -8 20 -9c1 -5 3 -10 6 -17zM811 259c-4 -4 -7 -7 -7 -12c-38 -38 -67 -51 -120 -51c-21 0 -55 16 -70 34c-8 3 -14 8 -18 14c-38 -109 -128 -204 -229 -241c-11 -4 -34 -9 -71 -15l-48 12c-25 7 -43 42 -43 85c0 124 174 293 300 293c1 0 19 -4 55 -12
c6 -8 14 -15 24 -19c7 -14 12 -32 19 -60c10 -32 51 -68 85 -68c27 0 66 16 118 47c3 -2 4 -5 5 -7zM532 310c-5 8 -7 18 -7 29c-5 3 -8 7 -12 11l-24 6c-52 -13 -53 -14 -87 -50c-79 -83 -121 -164 -126 -242l-2 -2c0 -29 16 -54 35 -54c77 0 188 132 214 251
c1 11 4 28 9 51z" />
    <glyph glyph-name="oslash" unicode="&#xf8;" 
d="M813 259c-30 -47 -70 -63 -130 -63c-20 0 -57 16 -73 34c-8 3 -14 8 -18 14c-50 -149 -146 -230 -296 -256c-15 2 -34 8 -59 17l-58 -55c-5 -2 -10 -6 -13 -10l-10 -2l-3 2h-7l1 4l-2 4c27 24 42 37 76 72c-9 32 -15 52 -15 57c0 136 176 301 297 301c2 0 20 -4 54 -12
c2 -6 6 -10 12 -11c15 17 38 39 68 65c3 0 5 1 11 4c-1 0 -2 -1 -2 -3h6l3 -3l-1 -3h2c-2 -2 -4 -6 -5 -10c-1 -2 -23 -24 -67 -65l6 -5v-8c18 -62 44 -107 100 -107c42 0 77 13 103 39c2 0 7 3 15 7c2 -2 4 -5 5 -7zM525 313v19l-14 18c-7 1 -14 2 -23 6
c-57 -15 -58 -15 -106 -72c-77 -91 -89 -133 -106 -211zM525 283l-249 -241c0 -6 3 -10 9 -14c2 -11 6 -15 19 -15c2 -4 4 -6 8 -6c2 0 5 1 7 3c83 0 198 177 206 273z" />
    <glyph glyph-name="ugrave" unicode="&#xf9;" 
d="M647 453l-3 -4c-6 -2 -10 -3 -13 -3c-14 0 -191 71 -191 93c0 9 3 17 10 24l16 6c6 -4 13 -7 21 -9c24 -19 136 -91 153 -93c0 -5 3 -10 7 -14zM807 258c-5 -29 -174 -217 -283 -263c-14 0 -25 -2 -36 -7c-37 6 -57 19 -59 39c-5 6 -7 13 -7 21c0 1 3 37 4 38
c-92 -83 -100 -84 -173 -98c-57 10 -69 21 -69 70c0 22 20 62 61 121l128 183l85 6l-160 -223c-37 -51 -55 -86 -55 -103l4 -23c0 -5 1 -8 4 -8c2 0 3 1 5 2c1 -4 4 -6 8 -6c3 0 5 1 7 3c62 6 145 82 246 228l86 124l84 6l-174 -261c-26 -40 -34 -61 -34 -81l4 -11l10 -8
l5 3c59 0 184 110 296 252c3 1 5 2 7 4c-2 0 -2 0 -2 -2s1 -3 2 -3s3 1 5 2l-3 -4z" />
    <glyph glyph-name="uacute" unicode="&#xfa;" 
d="M706 545l-6 -16c-7 -7 -18 -13 -34 -20l-153 -63c-9 3 -10 3 -14 3l-1 2c11 23 138 104 183 118c5 -3 10 -5 17 -6zM807 258c-5 -29 -174 -217 -283 -263c-14 0 -25 -2 -36 -7c-37 6 -57 19 -59 39c-5 6 -7 13 -7 21c0 1 3 37 4 38c-92 -83 -100 -84 -173 -98
c-57 10 -69 21 -69 70c0 22 20 62 61 121l128 183l85 6l-160 -223c-37 -51 -55 -86 -55 -103l4 -23c0 -5 1 -8 4 -8c2 0 3 1 5 2c1 -4 4 -6 8 -6c3 0 5 1 7 3c62 6 145 82 246 228l86 124l84 6l-174 -261c-26 -40 -34 -61 -34 -81l4 -11l10 -8l5 3c59 0 184 110 296 252
c3 1 5 2 7 4c-2 0 -2 0 -2 -2s1 -3 2 -3s3 1 5 2l-3 -4z" />
    <glyph glyph-name="ucircumflex" unicode="&#xfb;" 
d="M672 455l-3 -6l-10 -4c-3 0 -4 1 -75 59c-42 -20 -123 -50 -148 -59l-6 5c-1 -1 -1 -1 -2 -1s-1 1 -2 2c0 4 1 6 2 8l4 5c2 0 42 25 119 75c5 0 8 2 12 7c11 0 13 0 39 4c4 -1 7 -2 9 -2l51 -79l7 -5c-1 -2 -1 -3 -1 -4c0 -3 1 -4 4 -5zM807 258
c-5 -29 -174 -217 -283 -263c-14 0 -25 -2 -36 -7c-37 6 -57 19 -59 39c-5 6 -7 13 -7 21c0 1 3 37 4 38c-92 -83 -100 -84 -173 -98c-57 10 -69 21 -69 70c0 22 20 62 61 121l128 183l85 6l-160 -223c-37 -51 -55 -86 -55 -103l4 -23c0 -5 1 -8 4 -8c2 0 3 1 5 2
c1 -4 4 -6 8 -6c3 0 5 1 7 3c62 6 145 82 246 228l86 124l84 6l-174 -261c-26 -40 -34 -61 -34 -81l4 -11l10 -8l5 3c59 0 184 110 296 252c3 1 5 2 7 4c-2 0 -2 0 -2 -2s1 -3 2 -3s3 1 5 2l-3 -4z" />
    <glyph glyph-name="udieresis" unicode="&#xfc;" 
d="M684 516l-6 -22c-18 -20 -31 -30 -39 -30c-21 0 -36 12 -36 28l12 28c6 4 12 9 18 15c9 0 17 2 25 7c6 -4 13 -7 20 -9c1 -5 3 -10 6 -17zM529 516l-6 -22c-18 -20 -31 -30 -40 -30c-19 0 -35 11 -35 28l2 2c1 7 5 16 10 26c6 4 12 9 18 15c8 0 17 2 25 7
c5 -5 11 -8 20 -9c1 -5 2 -10 6 -17zM807 258c-5 -29 -174 -217 -283 -263c-14 0 -25 -2 -36 -7c-37 6 -57 19 -59 39c-5 6 -7 13 -7 21c0 1 3 37 4 38c-92 -83 -100 -84 -173 -98c-57 10 -69 21 -69 70c0 22 20 62 61 121l128 183l85 6l-160 -223c-37 -51 -55 -86 -55 -103
l4 -23c0 -5 1 -8 4 -8c2 0 3 1 5 2c1 -4 4 -6 8 -6c3 0 5 1 7 3c62 6 145 82 246 228l86 124l84 6l-174 -261c-26 -40 -34 -61 -34 -81l4 -11l10 -8l5 3c59 0 184 110 296 252c3 1 5 2 7 4c-2 0 -2 0 -2 -2s1 -3 2 -3s3 1 5 2l-3 -4z" />
    <glyph glyph-name="yacute" unicode="&#xfd;" 
d="M706 545l-6 -16c-7 -7 -18 -13 -34 -20l-153 -63c-9 3 -10 3 -14 3l-1 2c11 23 138 104 183 118c5 -3 10 -5 17 -6zM815 268c-6 -9 -8 -15 -8 -16c-91 -126 -276 -255 -376 -262c-165 -235 -231 -280 -433 -313c-24 0 -33 2 -106 28c-14 16 -29 31 -45 45
c-5 16 -11 35 -16 56c9 53 17 68 50 87c20 11 37 16 54 16l28 1c9 -2 16 -3 19 -5l-3 -9c-2 0 -18 -6 -48 -17c-30 -32 -32 -35 -39 -75l12 -46l40 -38c31 -13 55 -20 72 -20c116 0 231 111 409 398c-103 -93 -110 -95 -182 -110c-49 11 -55 14 -59 30c-5 5 -8 12 -8 19
c0 33 16 73 48 120l140 205l88 6l-175 -251c-26 -34 -35 -51 -35 -70c-2 -2 -4 -4 -4 -6c0 -3 2 -5 7 -5c0 -9 0 -11 4 -11c1 0 3 1 5 2c11 -3 17 -4 20 -4c57 0 178 113 319 339l82 6l-233 -360c153 51 224 111 361 267l4 1l2 -3l3 2v-3h2l-2 -3z" />
    <glyph glyph-name="thorn" unicode="&#xfe;" horiz-adv-x="467" 
d="M797 263l-3 -3l3 -2c-74 -86 -197 -159 -269 -163c-105 -77 -136 -94 -215 -107l-30 6c-11 11 -16 18 -16 21c0 65 127 89 200 97c41 58 67 121 78 188c-4 12 -7 23 -9 33c-5 2 -9 5 -11 10c-5 1 -12 3 -21 6c-77 -10 -131 -70 -269 -301l-225 -373l-77 -6l651 1072l78 7
l-265 -436c19 19 24 22 87 59c13 1 27 4 45 7c17 -6 32 -9 45 -11c8 -10 17 -19 27 -27c6 -19 10 -37 14 -54c-5 -15 -7 -31 -7 -49c-15 -38 -37 -77 -68 -118c104 33 105 33 249 151l4 -1v-5zM450 84l-2 -2c-102 -15 -112 -30 -123 -63c0 -6 12 -10 20 -10
c11 0 94 58 105 75z" />
    <glyph glyph-name="ydieresis" unicode="&#xff;" 
d="M684 516l-6 -22c-18 -20 -31 -30 -39 -30c-21 0 -36 12 -36 28l12 28c6 4 12 9 18 15c9 0 17 2 25 7c6 -4 13 -7 20 -9c1 -5 3 -10 6 -17zM529 516l-6 -22c-18 -20 -31 -30 -40 -30c-19 0 -35 11 -35 28l2 2c1 7 5 16 10 26c6 4 12 9 18 15c8 0 17 2 25 7
c5 -5 11 -8 20 -9c1 -5 2 -10 6 -17zM815 268c-6 -9 -8 -15 -8 -16c-91 -126 -276 -255 -376 -262c-165 -235 -231 -280 -433 -313c-24 0 -33 2 -106 28c-14 16 -29 31 -45 45c-5 16 -11 35 -16 56c9 53 17 68 50 87c20 11 37 16 54 16l28 1c9 -2 16 -3 19 -5l-3 -9
c-2 0 -18 -6 -48 -17c-30 -32 -32 -35 -39 -75l12 -46l40 -38c31 -13 55 -20 72 -20c116 0 231 111 409 398c-103 -93 -110 -95 -182 -110c-49 11 -55 14 -59 30c-5 5 -8 12 -8 19c0 33 16 73 48 120l140 205l88 6l-175 -251c-26 -34 -35 -51 -35 -70c-2 -2 -4 -4 -4 -6
c0 -3 2 -5 7 -5c0 -9 0 -11 4 -11c1 0 3 1 5 2c11 -3 17 -4 20 -4c57 0 178 113 319 339l82 6l-233 -360c153 51 224 111 361 267l4 1l2 -3l3 2v-3h2l-2 -3z" />
    <glyph glyph-name="OE" unicode="&#x152;" horiz-adv-x="1057" 
d="M1414 639c-17 -102 -80 -145 -201 -145c-18 0 -24 3 -29 8c-1 0 -2 0 -2 1c1 3 2 5 3 9l5 4c1 -2 2 -3 4 -3s3 2 5 4c6 -1 13 -2 20 -2c19 0 68 12 83 21c39 25 47 58 56 101c-5 23 -10 40 -13 52c-12 13 -27 25 -47 38c-28 6 -44 7 -48 8c-89 0 -153 -61 -158 -152
c-7 -128 -24 -140 -151 -195c-102 -44 -154 -113 -154 -207c0 -84 81 -163 191 -163c87 0 186 49 221 111c10 17 16 41 20 73c-5 11 -7 24 -7 39c-8 8 -15 18 -23 30l-45 13l-48 -8c-22 -4 -32 -12 -115 -76l-2 3h-5c0 18 56 70 96 89c20 9 50 17 89 24c14 -4 34 -9 62 -15
l40 -40c6 -20 11 -37 14 -52c-8 -65 -25 -101 -116 -156c-77 -45 -148 -65 -228 -65c-120 0 -216 71 -216 172c-128 -128 -203 -172 -307 -172c-20 0 -43 5 -71 16c-52 21 -78 79 -78 175c0 201 199 448 453 545c37 23 66 34 89 34c36 0 62 -13 99 -58c13 -39 20 -68 20 -89
c0 -76 -13 -121 -62 -243c116 50 136 59 147 77c13 154 13 155 50 225c26 35 124 83 170 83c13 0 26 1 41 5c18 -5 48 -13 91 -23c41 -33 41 -34 57 -96zM864 608c0 2 -3 25 -9 71c-10 18 -22 34 -33 48l-28 8c-15 -3 -37 -10 -66 -21c4 -1 24 -7 60 -19
c15 -19 27 -38 36 -57c0 -15 0 -16 3 -19l-3 -12c-3 -2 -6 -3 -9 -3c-2 0 -3 1 -3 2s1 1 1 2c-1 -1 -1 -1 -2 -1l-4 3c0 2 0 3 3 3c-6 6 -10 19 -11 37c-8 8 -19 19 -34 33c-11 3 -30 7 -43 10c-2 -1 -10 -1 -25 -2c-41 -27 -75 -126 -75 -214c0 -55 36 -110 81 -124
c1 -6 4 -10 11 -11l-1 -4c-3 -3 -6 -5 -11 -5c-2 0 -4 1 -6 3c-42 12 -96 76 -96 157c0 55 27 140 63 194l-2 -2c-168 -55 -331 -313 -331 -524c0 -76 36 -143 106 -143c185 0 428 338 428 590z" />
    <glyph glyph-name="oe" unicode="&#x153;" horiz-adv-x="630" 
d="M954 269l-3 -3c0 -11 -17 -32 -70 -88c-118 -127 -219 -190 -305 -190c-72 14 -86 22 -99 87c-85 -71 -91 -72 -182 -87c-40 0 -91 25 -91 81c0 140 169 309 309 309l43 -11c10 -11 20 -20 29 -27c6 -32 9 -49 10 -52c50 54 126 90 187 90c5 0 20 -4 44 -12
c4 -6 8 -16 13 -28c0 -55 -102 -118 -263 -162c-23 -48 -29 -60 -29 -73c0 -44 23 -81 51 -81c96 0 190 78 343 251l6 2l2 -3l3 2zM780 335c-3 5 -5 10 -6 15l-16 6c-47 -5 -89 -41 -171 -152c124 39 189 82 193 131zM535 311c-5 12 -6 17 -5 26c-6 3 -11 7 -15 14
c-8 0 -13 0 -19 5c-107 -20 -215 -180 -222 -298l-2 -2c0 -16 8 -41 22 -41c3 -4 6 -7 11 -7c66 0 166 98 201 190c4 11 10 27 19 48z" />
    <glyph glyph-name="Scaron" unicode="&#x160;" horiz-adv-x="650" 
d="M1064 920c-3 -8 -13 -17 -31 -26l-135 -69c-3 -2 -6 -4 -9 -4c-37 0 -41 3 -68 50c-18 33 -22 44 -22 53l10 7c3 -6 8 -9 13 -10c8 -7 26 -26 54 -55l167 64c0 -2 1 -3 3 -3l5 4c2 -5 6 -5 11 -5zM1071 661c-12 -49 -14 -53 -38 -65c-13 -7 -24 -11 -33 -11l-11 6
c2 14 6 35 12 62c-6 17 -9 33 -11 47c-11 10 -19 18 -24 25c-7 1 -21 4 -43 10c-77 -12 -105 -32 -140 -121c-17 -48 -28 -95 -31 -143c-14 -247 -41 -328 -136 -411c-56 -48 -123 -72 -200 -72c-110 0 -180 46 -217 113c-15 27 -22 49 -22 66c0 53 12 81 49 118
c11 0 20 3 28 7c12 -3 23 -6 32 -10c2 -9 6 -21 12 -35c-2 -5 -4 -13 -5 -23c-12 -14 -26 -20 -42 -20c-4 0 -8 1 -12 2l2 2c-5 -15 -7 -31 -7 -49c0 -81 96 -150 203 -150c101 0 203 110 220 237c31 403 77 474 282 512c19 0 46 -6 84 -20c11 -10 24 -22 37 -36
c1 -11 5 -25 11 -41z" />
    <glyph glyph-name="scaron" unicode="&#x161;" horiz-adv-x="345" 
d="M640 538c0 -3 -116 -81 -155 -93c-8 0 -17 2 -28 4c-11 0 -62 78 -62 93l-1 1c1 2 3 4 4 5l6 2c1 -3 66 -54 75 -61c53 22 141 59 150 61c0 -1 0 -2 9 -3c1 -3 2 -6 2 -9zM670 257l-4 -6c-4 -25 -175 -263 -389 -263c-69 0 -128 45 -128 102c0 49 21 77 72 91
c14 -6 25 -12 33 -16c0 -10 2 -19 7 -25c-9 -33 -12 -40 -29 -40l-5 -2l-3 3c-7 0 -11 2 -14 7l2 2c-2 -7 -6 -34 -6 -36c0 -5 2 -10 5 -14c0 -25 31 -49 67 -50c18 0 38 14 60 43c5 20 10 42 15 66c-5 13 -5 23 -5 37c-8 9 -13 19 -15 31c-20 27 -21 39 -26 87
c0 35 39 88 71 94c12 2 29 5 52 10c12 -3 31 -7 56 -11c12 -10 24 -20 37 -28c4 -14 7 -27 11 -37c-10 -40 -25 -60 -46 -60c-26 6 -31 9 -31 22c0 2 1 4 3 6c0 15 0 19 3 27l-6 36c-6 4 -11 10 -14 17c-5 1 -11 2 -17 6l-22 -8c-21 -22 -29 -53 -29 -72c0 -21 6 -40 19 -57
c3 -16 9 -30 19 -43c10 -42 10 -43 10 -49c0 -41 -21 -77 -63 -109c125 41 217 136 299 245l10 -2z" />
    <glyph glyph-name="Ydieresis" unicode="&#x178;" horiz-adv-x="894" 
d="M1185 897c-5 -8 -7 -16 -7 -23c-15 -22 -29 -33 -42 -33c-24 0 -36 9 -36 27l2 2c14 40 17 44 56 55l20 -8c0 -8 2 -14 7 -20zM1033 897c-10 -35 -28 -56 -49 -56c-23 0 -35 9 -35 27l12 31l22 20c8 2 16 3 23 6c8 -4 15 -7 21 -8zM1292 748l-410 -642
c-210 -328 -340 -441 -513 -441c-121 0 -188 58 -188 161c0 55 65 108 129 108c56 0 76 -18 84 -36c-3 0 -4 -2 -4 -6l1 -3h-3c-2 0 -3 -1 -3 -4l-3 8c-1 0 -2 -1 -4 -3c-10 9 -22 14 -35 14c-49 0 -91 -40 -91 -88c0 -38 19 -74 57 -109c34 -13 58 -20 73 -20
c130 0 236 115 427 456c-140 -127 -172 -135 -271 -155c-67 14 -76 19 -79 39c-7 6 -10 14 -10 24c0 73 15 106 256 444c68 99 90 141 100 188c-4 6 -5 9 -5 21c-7 3 -11 8 -13 17c-15 5 -31 10 -47 14c-89 -15 -117 -26 -198 -102c-73 -71 -104 -126 -104 -192
c0 -34 35 -52 75 -52c32 0 43 9 119 77l4 1c-1 0 -1 0 -1 -1c0 -2 0 -3 2 -3l5 1l-1 -4c0 -4 2 -7 5 -7c-53 -67 -91 -80 -163 -88c-33 0 -67 36 -67 71c0 78 49 160 146 247c45 41 89 59 193 75c14 -3 35 -7 63 -12c17 -14 31 -27 42 -38c2 -14 5 -26 9 -36
c-9 -78 -17 -90 -216 -371l-88 -128c-29 -42 -51 -93 -51 -105c0 -30 15 -51 36 -51c136 0 302 165 525 524c29 45 71 112 129 200z" />
    <glyph glyph-name="Zcaron" unicode="&#x17d;" horiz-adv-x="691" 
d="M972 920c-3 -8 -13 -17 -31 -26l-128 -67l-16 -6c-37 0 -41 3 -68 50c-15 26 -22 42 -22 53l3 4c3 0 5 1 7 3c3 -6 8 -9 13 -10c8 -7 26 -26 54 -55l167 64c0 -2 2 -3 4 -3l4 4c2 -5 6 -5 11 -5zM1105 747c-2 -3 -3 -5 -3 -6h2c-5 -9 -7 -11 -102 -83
c-24 -22 -59 -54 -107 -95l-543 -462c11 2 21 7 31 13c39 5 57 8 62 9c33 0 78 -13 135 -39c58 -26 100 -39 127 -39c77 0 154 52 252 169c33 41 53 62 58 63l7 -6c-4 -1 -6 -2 -6 -4c0 -1 1 -3 3 -4c-149 -195 -212 -246 -369 -275c-88 14 -89 14 -186 74
c-17 8 -39 15 -69 23c-79 -17 -100 -32 -165 -93c-2 1 -3 2 -4 2c-2 0 -4 -2 -6 -5c-2 3 -5 5 -8 5l-2 6c3 9 3 10 206 185l534 455c-60 -16 -109 -25 -147 -25c-24 0 -50 6 -79 17c-81 39 -122 53 -164 53c-80 0 -140 -62 -140 -144c0 -39 48 -84 86 -84c48 0 63 11 114 47
l1 -2v-2c0 -2 1 -3 4 -3l-1 -3v-2c-19 -29 -67 -57 -103 -57c-74 0 -123 50 -123 128c0 98 114 180 220 180c4 0 23 -2 58 -6c35 -19 176 -63 235 -63c61 0 88 19 183 84l6 -2l-2 -4z" />
    <glyph glyph-name="zcaron" unicode="&#x17e;" horiz-adv-x="426" 
d="M712 538c0 -3 -117 -81 -155 -93c-8 0 -17 2 -28 4c-11 0 -62 78 -62 93l-1 1c1 2 3 4 4 5l6 2c1 -3 66 -54 75 -61c53 22 141 59 150 61c0 -1 0 -2 9 -3c1 -3 2 -6 2 -9zM757 271l-3 -6h2c-64 -108 -214 -256 -276 -270c-7 -1 -18 -3 -33 -7c-29 0 -43 5 -125 46
c-9 2 -21 5 -37 10l-5 -3l-4 2c-12 -6 -27 -17 -69 -51l-2 -1c-2 1 -6 4 -9 7c1 6 4 14 10 24c51 36 55 39 105 83l225 186l-8 2c-25 0 -59 10 -93 26h-4c-6 0 -12 1 -19 5c-38 -11 -44 -17 -83 -70c-1 -8 -2 -9 -12 -9c-1 -1 -3 -2 -4 -2v3c0 -1 -1 -2 -3 -2v6h-2v7
c48 75 93 116 129 116c8 0 16 2 25 5l110 -36c1 0 3 1 6 2c21 -3 40 8 77 46c1 1 8 4 20 9l3 -3l2 -7c-7 -17 -7 -17 -46 -49l-307 -251c14 -5 30 -7 47 -7c30 -18 100 -42 127 -42c44 0 119 80 246 238l4 1v-2l3 1c-1 -1 -1 -2 -1 -5z" />
    <glyph glyph-name="florin" unicode="&#x192;" horiz-adv-x="670" 
d="M982 677c0 -26 -31 -64 -52 -64c-1 0 -4 0 -8 2c0 -1 0 -2 -2 -2s-2 1 -2 2s0 3 1 5l-4 7l3 5c-2 4 -15 65 -15 66c-8 3 -13 9 -15 17l-20 6c-74 -18 -126 -90 -293 -359l212 2c2 -2 4 -3 8 -3c2 0 4 0 7 2v-2c0 -3 0 -3 3 -3l4 2l2 -5l-2 -6c-7 -4 -15 -6 -24 -6h-219
l-241 -422c-9 -11 -22 -31 -39 -61c-25 -23 -48 -52 -69 -87c-72 -68 -131 -96 -198 -96c-12 0 -39 7 -82 22c-16 16 -31 31 -47 43c-3 13 -8 32 -15 58c7 67 47 104 116 104c3 2 5 3 8 3l16 -6l2 -11l-1 -2c-1 1 -2 1 -4 1c-1 0 -2 -1 -4 -2c-26 -6 -45 -21 -56 -47
c0 -12 -2 -25 -7 -39l13 -55c9 -8 20 -19 32 -33c15 -5 31 -9 48 -13c22 7 41 11 57 15c11 13 24 23 39 29c55 62 63 76 79 106c3 4 9 11 15 21l265 472c-70 2 -71 3 -73 11l-1 1c1 2 2 3 4 4l6 4h77c182 284 281 380 396 380c4 0 19 -3 46 -10c6 -7 15 -16 26 -25z" />
    <glyph glyph-name="macron" unicode="&#xaf;" horiz-adv-x="244" 
d="M579 528l-30 -43h-196l30 43h196z" />
    <glyph glyph-name="endash" unicode="&#x2013;" horiz-adv-x="630" 
d="M810 265l-27 -54h-396l27 54h396z" />
    <glyph glyph-name="emdash" unicode="&#x2014;" horiz-adv-x="772" 
d="M957 265l-27 -54h-546l27 54h546z" />
    <glyph glyph-name="quoteleft" unicode="&#x2018;" horiz-adv-x="244" 
d="M509 628c-1 -6 -6 -11 -14 -15c-54 -23 -82 -49 -102 -94l12 -1c6 -8 14 -14 25 -17c1 -7 4 -16 8 -27c-2 -26 -21 -47 -44 -47c-34 0 -51 30 -51 57c0 67 73 132 156 153c0 -3 1 -5 5 -5l3 2v-6h2z" />
    <glyph glyph-name="quoteright" unicode="&#x2019;" horiz-adv-x="244" 
d="M566 579c-8 -72 -80 -143 -155 -152l-12 5c6 8 21 19 43 32c35 20 53 37 71 76l-8 5c-19 0 -33 21 -33 44c0 25 15 40 44 48c16 -4 30 -13 41 -25c2 -14 5 -25 9 -33z" />
    <glyph glyph-name="quotesinglbase" unicode="&#x201a;" horiz-adv-x="244" 
d="M298 24c-4 -16 -9 -33 -14 -51l-51 -58c-65 -35 -78 -40 -91 -43l-12 5l2 4c0 10 1 11 10 11c14 6 39 23 74 49c7 10 17 25 28 45c-8 4 -19 11 -33 21c-5 8 -8 17 -8 27c0 25 15 41 44 48c16 -6 30 -14 42 -25c2 -14 6 -25 9 -33z" />
    <glyph glyph-name="quotedblleft" unicode="&#x201c;" 
d="M697 628c-2 -6 -6 -11 -14 -15c-55 -23 -83 -49 -102 -94l12 -1c6 -8 14 -14 25 -17c1 -7 4 -16 8 -27c-1 -25 -22 -47 -44 -47c-33 0 -51 30 -51 57c0 67 73 132 156 153c0 -3 1 -5 4 -5l4 2c-1 -1 -1 -2 -1 -4zM535 628c-3 -7 -8 -12 -15 -15c-56 -25 -90 -56 -101 -94
l11 -1c8 -7 17 -12 26 -17c0 -11 2 -20 7 -27c0 -24 -21 -47 -44 -47c-38 0 -49 25 -51 65c0 55 97 142 148 142c3 0 6 1 8 3v-2c0 -3 1 -3 3 -3l5 2l1 -6h2z" />
    <glyph glyph-name="quotedblright" unicode="&#x201d;" 
d="M676 579c-8 -72 -75 -137 -156 -152l-11 2l-1 3c6 8 21 19 43 32c39 22 53 38 71 76l-7 5c-22 2 -34 17 -34 44c0 25 15 40 44 48c16 -6 30 -15 42 -25c2 -14 5 -25 9 -33zM513 579c-9 -88 -95 -143 -156 -152l-11 2l-1 3c5 9 6 10 13 14c63 33 64 34 98 85l3 9l-7 5
c-17 1 -34 19 -34 35c0 32 12 48 45 57c16 -4 29 -13 41 -25c2 -14 6 -25 9 -33z" />
    <glyph glyph-name="quotedblbase" unicode="&#x201e;" 
d="M488 24c-3 -11 -8 -27 -13 -51l-52 -58c-2 -2 -27 -16 -77 -40c-2 1 -4 1 -6 1c-3 0 -6 -1 -8 -4l-12 5l2 4c-2 2 -3 3 -3 4l10 9l4 -2c14 6 39 23 74 49c5 12 13 24 24 36l3 9c-34 19 -41 26 -41 39c0 37 18 51 45 57c16 -4 30 -12 41 -25c3 -14 6 -25 9 -33zM326 24
c-4 -16 -9 -33 -14 -51l-51 -58c-68 -36 -80 -41 -91 -43l-12 5l2 4c0 9 1 11 10 11c14 6 39 23 74 49c7 10 16 25 28 45c-36 22 -41 26 -41 48c0 25 15 41 44 48c15 -6 30 -14 42 -25c2 -14 5 -25 9 -33z" />
    <glyph glyph-name="dagger" unicode="&#x2020;" horiz-adv-x="711" 
d="M810 528l-8 -20c-9 -6 -17 -9 -26 -9c-10 0 -28 4 -55 12l-12 -1c0 1 -14 3 -42 7c0 -13 9 -50 20 -69c-13 -82 -18 -140 -18 -214v-305h-31l2 307c-3 27 -4 40 -4 45c0 13 1 25 3 36c-4 16 -6 34 -6 53c0 15 -4 41 -13 78c4 6 19 50 22 67l-18 1c-9 -5 -10 -5 -34 -5
c-30 -8 -51 -12 -65 -12s-22 9 -25 29c1 6 4 12 8 21c7 3 14 6 22 9c25 -6 62 -13 112 -20c0 57 0 58 2 67c-1 0 -4 8 -4 45c-3 6 -15 64 -15 65c0 25 8 41 30 43c7 -4 15 -7 22 -9c1 -6 4 -14 8 -23c-7 -19 -20 -112 -20 -137v-51c45 5 48 5 116 20c6 -4 13 -7 21 -9
c2 -6 4 -13 8 -21z" />
    <glyph glyph-name="daggerdbl" unicode="&#x2021;" horiz-adv-x="711" 
d="M819 355c-2 -21 -19 -32 -43 -32c-6 0 -11 2 -16 6c-11 0 -23 3 -35 8c-11 0 -28 2 -52 5l-3 -106v-307h-30l2 307c-1 8 -3 43 -5 106c-23 0 -44 -4 -100 -18c-28 0 -42 10 -42 31c2 5 5 12 8 21c8 5 16 8 23 8c1 0 59 -12 93 -19h20c-3 7 -8 35 -17 85l2 2
c3 10 8 25 17 45c0 7 1 13 3 18l-18 1c-11 -4 -16 -5 -35 -5c-29 -8 -50 -12 -64 -12c-17 0 -25 9 -25 29c1 6 4 12 8 21c7 3 14 6 22 9c24 -6 62 -13 113 -20v67c-1 1 -4 8 -4 45c-9 19 -13 44 -13 76c0 7 2 15 7 23c7 4 14 7 22 9c8 -4 15 -7 21 -9c1 -6 4 -14 8 -23
c-10 -23 -20 -137 -20 -188c48 5 51 6 116 20c7 -4 15 -7 22 -9c1 -6 4 -13 8 -21c-10 -26 -13 -29 -30 -29c-13 0 -33 4 -59 12l-12 -1c-3 1 -18 3 -43 7c0 -5 6 -40 20 -67c-4 -19 -9 -47 -15 -86l16 3c22 0 24 0 99 17c9 -4 16 -6 23 -8c1 -6 4 -13 8 -21z" />
    <glyph glyph-name="ellipsis" unicode="&#x2026;" horiz-adv-x="1097" 
d="M1110 44c-10 -34 -16 -40 -51 -43c-17 0 -37 24 -37 41l2 2c0 21 15 36 43 43c8 -3 15 -5 21 -6c4 -7 9 -11 16 -15zM746 44c-8 -29 -20 -43 -35 -43c-30 0 -53 17 -53 41l2 2c0 23 8 31 43 43l22 -6c2 -8 7 -13 15 -15zM382 44c-4 -7 -5 -12 -5 -21
c-12 -18 -12 -19 -46 -22c-14 0 -39 25 -36 41l2 2c0 24 1 29 42 43l22 -6c4 -7 9 -11 16 -15c0 -11 0 -14 5 -22z" />
    <glyph glyph-name="perthousand" unicode="&#x2030;" horiz-adv-x="1179" 
d="M1318 231c0 -81 -72 -183 -169 -224c-10 -4 -37 -11 -83 -19c-55 14 -63 18 -80 48c-8 16 -13 31 -13 46l2 2c0 79 46 148 132 198c5 3 29 13 73 31c18 0 34 2 49 7c18 -6 35 -11 51 -15c31 -33 31 -33 38 -74zM952 231c0 -54 -36 -126 -85 -170
c-65 -50 -74 -56 -166 -73c-55 14 -63 18 -79 48c-9 16 -14 31 -14 46l2 2c-7 66 56 162 131 198c17 6 41 17 74 31c17 0 33 2 48 7l52 -15c14 -17 24 -30 31 -40c4 -20 6 -31 6 -34zM848 554c-1 -10 -9 -24 -23 -40l-466 -546h-2c-5 0 -9 -4 -9 -11l-5 -2l-6 10l376 483
c-32 -6 -51 -9 -56 -9c-22 0 -44 9 -65 28c-13 -116 -137 -224 -257 -224c-48 0 -86 45 -86 105c0 66 60 154 131 191c17 6 40 17 72 31c16 0 32 2 50 7l42 -11l35 -42c0 -17 5 -26 17 -31c12 -20 35 -30 71 -30c49 0 65 13 146 105c4 2 9 5 16 9l6 -2c1 -5 4 -8 10 -9
c0 -7 1 -10 3 -12zM1261 256c-6 11 -6 15 -5 22c-8 2 -13 7 -15 15l-18 4c-34 -6 -35 -6 -65 -29c-73 -56 -127 -149 -127 -208l-2 -2c0 -32 15 -48 46 -48c71 0 180 142 186 246zM896 256c-5 8 -5 10 -5 22c-8 2 -13 7 -15 15l-18 4l-31 -6c-95 -57 -161 -155 -161 -231
l-2 -2c0 -32 15 -48 46 -48c41 0 113 65 149 132c13 31 20 48 27 60c0 4 3 22 10 54zM535 513c-6 11 -6 15 -5 22c-7 4 -12 9 -14 15c-6 1 -12 2 -19 4c-34 -6 -35 -6 -65 -29c-73 -56 -127 -148 -127 -208l-2 -2c0 -32 17 -48 51 -48c39 0 114 72 145 131
c16 30 28 68 36 115z" />
    <glyph glyph-name="periodcentered" unicode="&#xb7;" horiz-adv-x="304" 
d="M388 256c-3 -9 -5 -17 -6 -23c-3 -3 -9 -9 -17 -18c-8 -4 -16 -6 -24 -6c-24 0 -49 20 -49 45l2 2c0 29 18 39 47 47l24 -6c3 -8 9 -14 17 -17z" />
  </font>
</defs>
</svg>
